{"glyphs":{"0":{"ha":833,"x_min":43,"x_max":790,"o":"m 417 -12 q 139 117 235 -12 q 43 490 43 246 q 140 860 43 731 q 417 989 236 989 q 694 860 597 989 q 790 490 790 731 q 694 117 790 246 q 417 -12 599 -12 m 417 181 q 513 253 483 181 q 542 490 542 325 q 513 724 542 653 q 417 796 483 796 q 321 724 350 796 q 292 490 292 653 q 321 253 292 325 q 417 181 350 181 z "},"1":{"ha":833,"x_min":85,"x_max":807,"o":"m 807 203 l 807 0 l 132 0 l 132 203 l 342 203 l 342 701 l 176 607 l 85 790 l 417 979 l 597 979 l 597 203 l 807 203 z "},"2":{"ha":835,"x_min":49,"x_max":772,"o":"m 772 203 l 772 0 l 82 0 l 82 189 l 401 521 q 493 697 493 617 q 378 794 493 794 q 258 772 322 794 q 128 707 193 749 l 49 888 q 201 963 107 935 q 392 992 294 992 q 577 958 497 992 q 700 861 657 924 q 743 715 743 799 q 709 560 743 631 q 593 404 675 490 l 396 203 l 772 203 z "},"3":{"ha":833,"x_min":35,"x_max":768,"o":"m 592 504 q 722 418 675 481 q 768 267 768 356 q 666 63 768 138 q 388 -11 564 -11 q 188 17 283 -11 q 35 93 92 46 l 114 274 q 375 186 244 186 q 494 211 458 186 q 529 294 529 236 q 494 372 529 349 q 381 396 460 396 l 229 396 l 229 593 l 356 593 q 467 615 432 593 q 501 686 501 638 q 469 766 501 738 q 376 794 436 794 q 253 772 318 794 q 128 707 188 749 l 49 888 q 202 963 107 935 q 396 992 297 992 q 578 958 500 992 q 700 864 657 925 q 743 722 743 803 q 703 588 743 644 q 592 504 664 531 z "},"4":{"ha":833,"x_min":42,"x_max":813,"o":"m 813 165 l 685 165 l 685 0 l 436 0 l 436 165 l 42 165 l 42 354 l 481 979 l 685 979 l 685 360 l 813 360 l 813 165 m 436 360 l 436 600 l 269 360 l 436 360 z "},"5":{"ha":833,"x_min":61,"x_max":794,"o":"m 483 640 q 644 601 574 640 q 755 490 715 561 q 794 325 794 418 q 746 147 794 224 q 608 30 697 71 q 400 -11 519 -11 q 210 17 304 -11 q 61 93 117 46 l 140 274 q 403 186 271 186 q 518 217 481 186 q 556 315 556 249 q 516 413 556 379 q 406 447 476 447 q 322 434 367 447 q 239 399 276 421 l 99 399 l 99 979 l 744 979 l 744 786 l 347 786 l 347 615 q 483 640 401 640 z "},"6":{"ha":833,"x_min":42,"x_max":793,"o":"m 500 644 q 650 603 583 644 q 755 490 717 563 q 793 325 793 417 q 749 151 793 228 q 627 31 706 74 q 450 -12 549 -12 q 148 115 254 -12 q 42 479 42 243 q 93 753 42 638 q 241 930 144 868 q 468 992 338 992 q 647 965 560 992 q 793 888 733 938 l 714 707 q 590 773 650 751 q 479 794 531 794 q 351 733 397 794 q 297 549 306 671 q 382 619 328 593 q 500 644 436 644 m 436 183 q 522 219 490 183 q 554 315 554 256 q 523 412 554 376 q 436 447 492 447 q 349 411 382 447 q 317 315 317 375 q 349 220 317 257 q 436 183 382 183 z "},"7":{"ha":833,"x_min":56,"x_max":779,"o":"m 779 979 l 779 789 l 354 0 l 81 0 l 506 776 l 56 776 l 56 979 l 779 979 z "},"8":{"ha":833,"x_min":31,"x_max":803,"o":"m 628 504 q 758 419 713 479 q 803 269 803 358 q 699 63 803 138 q 417 -11 596 -11 q 134 63 238 -11 q 31 269 31 138 q 76 422 31 361 q 207 504 122 482 q 96 590 135 532 q 57 725 57 647 q 154 920 57 849 q 417 992 251 992 q 680 920 583 992 q 776 725 776 849 q 737 586 776 644 q 628 504 697 528 m 417 799 q 324 774 354 799 q 293 696 293 750 q 324 617 293 642 q 417 592 354 592 q 510 617 479 592 q 540 696 540 642 q 510 774 540 750 q 417 799 479 799 m 417 182 q 568 290 568 182 q 417 399 568 399 q 265 290 265 399 q 417 182 265 182 z "},"9":{"ha":833,"x_min":40,"x_max":792,"o":"m 382 992 q 685 864 578 992 q 792 500 792 736 q 740 226 792 342 q 592 49 689 111 q 365 -12 496 -12 q 185 15 272 -12 q 40 92 99 42 l 119 272 q 243 206 183 228 q 353 185 303 185 q 536 431 519 185 q 451 360 506 386 q 333 335 397 335 q 183 376 250 335 q 78 490 117 417 q 40 654 40 563 q 84 828 40 751 q 206 949 128 906 q 382 992 283 992 m 397 532 q 484 568 451 532 q 517 664 517 604 q 483 759 517 722 q 397 796 450 796 q 311 760 343 796 q 279 664 279 724 q 310 567 279 603 q 397 532 342 532 z "},"\u0000":{"ha":0,"x_min":0,"x_max":0,"o":""},"\r":{"ha":397,"x_min":0,"x_max":0,"o":""}," ":{"ha":397,"x_min":0,"x_max":0,"o":""},"A":{"ha":1057,"x_min":-31,"x_max":1088,"o":"m 747 203 l 314 203 l 226 0 l -31 0 l 426 979 l 629 979 l 1088 0 l 835 0 l 747 203 m 665 394 l 531 708 l 396 394 l 665 394 z "},"Á":{"ha":1057,"x_min":-31,"x_max":1088,"o":"m 747 203 l 314 203 l 226 0 l -31 0 l 426 979 l 629 979 l 1088 0 l 835 0 l 747 203 m 665 394 l 531 708 l 396 394 l 665 394 m 453 1063 l 597 1281 l 818 1281 l 603 1063 l 453 1063 z "},"Ă":{"ha":1057,"x_min":-31,"x_max":1088,"o":"m 747 203 l 314 203 l 226 0 l -31 0 l 426 979 l 629 979 l 1088 0 l 835 0 l 747 203 m 665 394 l 531 708 l 396 394 l 665 394 m 528 1074 q 366 1114 433 1074 q 272 1226 299 1154 l 379 1271 q 528 1214 419 1214 q 676 1271 636 1214 l 783 1226 q 690 1114 757 1154 q 528 1074 622 1074 z "},"Ắ":{"ha":1057,"x_min":-31,"x_max":1088,"o":"m 747 203 l 314 203 l 226 0 l -31 0 l 426 979 l 629 979 l 1088 0 l 835 0 l 747 203 m 665 394 l 531 708 l 396 394 l 665 394 m 458 1213 l 597 1408 l 801 1408 l 597 1213 l 458 1213 m 528 1056 q 365 1095 432 1056 q 272 1208 299 1135 l 353 1242 q 424 1192 374 1211 q 528 1174 475 1174 q 631 1192 581 1174 q 703 1242 682 1211 l 783 1208 q 690 1095 757 1135 q 528 1056 624 1056 z "},"Ặ":{"ha":1057,"x_min":-31,"x_max":1088,"o":"m 747 203 l 314 203 l 226 0 l -31 0 l 426 979 l 629 979 l 1088 0 l 835 0 l 747 203 m 665 394 l 531 708 l 396 394 l 665 394 m 638 -79 l 638 -285 l 421 -285 l 421 -79 l 638 -79 m 528 1074 q 366 1114 433 1074 q 272 1226 299 1154 l 379 1271 q 528 1214 419 1214 q 676 1271 636 1214 l 783 1226 q 690 1114 757 1154 q 528 1074 622 1074 z "},"Ằ":{"ha":1057,"x_min":-31,"x_max":1088,"o":"m 747 203 l 314 203 l 226 0 l -31 0 l 426 979 l 629 979 l 1088 0 l 835 0 l 747 203 m 665 394 l 531 708 l 396 394 l 665 394 m 254 1408 l 458 1408 l 597 1213 l 458 1213 l 254 1408 m 528 1056 q 365 1095 432 1056 q 272 1208 299 1135 l 353 1242 q 424 1192 374 1211 q 528 1174 475 1174 q 631 1192 581 1174 q 703 1242 682 1211 l 783 1208 q 690 1095 757 1135 q 528 1056 624 1056 z "},"Ẳ":{"ha":1057,"x_min":-31,"x_max":1088,"o":"m 747 203 l 314 203 l 226 0 l -31 0 l 426 979 l 629 979 l 1088 0 l 835 0 l 747 203 m 665 394 l 531 708 l 396 394 l 665 394 m 585 1215 l 471 1215 l 471 1243 q 490 1284 471 1271 q 535 1306 510 1297 q 560 1317 560 1314 q 550 1327 560 1322 q 518 1332 540 1332 q 442 1317 483 1332 l 411 1392 q 550 1417 474 1417 q 661 1394 619 1417 q 703 1335 703 1371 q 685 1294 703 1308 q 635 1267 667 1279 q 597 1249 610 1257 q 585 1225 585 1240 l 585 1215 m 528 1056 q 365 1095 432 1056 q 272 1208 299 1135 l 353 1242 q 424 1192 374 1211 q 528 1174 475 1174 q 631 1192 581 1174 q 703 1242 682 1211 l 783 1208 q 690 1095 757 1135 q 528 1056 624 1056 z "},"Ẵ":{"ha":1057,"x_min":-31,"x_max":1088,"o":"m 747 203 l 314 203 l 226 0 l -31 0 l 426 979 l 629 979 l 1088 0 l 835 0 l 747 203 m 665 394 l 531 708 l 396 394 l 665 394 m 279 1268 q 327 1372 279 1329 q 440 1414 375 1414 q 542 1394 478 1414 q 583 1383 563 1388 q 619 1378 603 1378 q 658 1385 644 1378 q 676 1410 672 1392 l 776 1410 q 728 1306 776 1349 q 615 1264 681 1264 q 514 1283 578 1264 q 473 1295 493 1290 q 436 1300 453 1300 q 397 1293 411 1300 q 379 1268 383 1286 l 279 1268 m 528 1056 q 365 1095 432 1056 q 272 1208 299 1135 l 353 1242 q 424 1192 374 1211 q 528 1174 475 1174 q 631 1192 581 1174 q 703 1242 682 1211 l 783 1208 q 690 1095 757 1135 q 528 1056 624 1056 z "},"Â":{"ha":1057,"x_min":-31,"x_max":1088,"o":"m 747 203 l 314 203 l 226 0 l -31 0 l 426 979 l 629 979 l 1088 0 l 835 0 l 747 203 m 665 394 l 531 708 l 396 394 l 665 394 m 269 1063 l 460 1281 l 596 1281 l 786 1063 l 608 1063 l 528 1171 l 447 1063 l 269 1063 z "},"Ấ":{"ha":1057,"x_min":-31,"x_max":1088,"o":"m 747 203 l 314 203 l 226 0 l -31 0 l 426 979 l 629 979 l 1088 0 l 835 0 l 747 203 m 665 394 l 531 708 l 396 394 l 665 394 m 664 1213 l 753 1408 l 947 1408 l 779 1213 l 664 1213 m 269 1063 l 460 1250 l 596 1250 l 786 1063 l 611 1063 l 528 1146 l 444 1063 l 269 1063 z "},"Ậ":{"ha":1057,"x_min":-31,"x_max":1088,"o":"m 747 203 l 314 203 l 226 0 l -31 0 l 426 979 l 629 979 l 1088 0 l 835 0 l 747 203 m 665 394 l 531 708 l 396 394 l 665 394 m 638 -79 l 638 -285 l 421 -285 l 421 -79 l 638 -79 m 269 1063 l 460 1281 l 596 1281 l 786 1063 l 608 1063 l 528 1171 l 447 1063 l 269 1063 z "},"Ầ":{"ha":1057,"x_min":-31,"x_max":1088,"o":"m 747 203 l 314 203 l 226 0 l -31 0 l 426 979 l 629 979 l 1088 0 l 835 0 l 747 203 m 665 394 l 531 708 l 396 394 l 665 394 m 547 1408 l 742 1408 l 836 1213 l 722 1213 l 547 1408 m 269 1063 l 460 1250 l 596 1250 l 786 1063 l 611 1063 l 528 1146 l 444 1063 l 269 1063 z "},"Ẩ":{"ha":1057,"x_min":-31,"x_max":1088,"o":"m 747 203 l 314 203 l 226 0 l -31 0 l 426 979 l 629 979 l 1088 0 l 835 0 l 747 203 m 665 394 l 531 708 l 396 394 l 665 394 m 778 1215 l 663 1215 l 663 1243 q 682 1284 663 1271 q 726 1306 701 1297 q 751 1317 751 1314 q 742 1327 751 1322 q 711 1332 732 1332 q 633 1317 678 1332 l 604 1392 q 743 1417 667 1417 q 853 1394 813 1417 q 894 1335 894 1371 q 877 1294 894 1308 q 828 1267 860 1279 q 790 1249 803 1257 q 778 1225 778 1240 l 778 1215 m 269 1063 l 460 1250 l 596 1250 l 786 1063 l 611 1063 l 528 1146 l 444 1063 l 269 1063 z "},"Ẫ":{"ha":1057,"x_min":-31,"x_max":1088,"o":"m 747 203 l 314 203 l 226 0 l -31 0 l 426 979 l 629 979 l 1088 0 l 835 0 l 747 203 m 665 394 l 531 708 l 396 394 l 665 394 m 279 1276 q 327 1382 279 1339 q 440 1425 375 1425 q 542 1403 478 1425 q 619 1385 593 1385 q 658 1392 644 1385 q 676 1419 672 1399 l 776 1419 q 728 1314 776 1357 q 615 1271 681 1271 q 514 1293 578 1271 q 436 1311 463 1311 q 397 1304 411 1311 q 379 1276 383 1297 l 279 1276 m 269 1063 l 460 1250 l 596 1250 l 786 1063 l 611 1063 l 528 1146 l 444 1063 l 269 1063 z "},"Ȁ":{"ha":1057,"x_min":-31,"x_max":1088,"o":"m 747 203 l 314 203 l 226 0 l -31 0 l 426 979 l 629 979 l 1088 0 l 835 0 l 747 203 m 665 394 l 531 708 l 396 394 l 665 394 m 228 1281 l 383 1281 l 486 1063 l 367 1063 l 228 1281 m 431 1281 l 586 1281 l 689 1063 l 569 1063 l 431 1281 z "},"Ä":{"ha":1057,"x_min":-31,"x_max":1088,"o":"m 747 203 l 314 203 l 226 0 l -31 0 l 426 979 l 629 979 l 1088 0 l 835 0 l 747 203 m 665 394 l 531 708 l 396 394 l 665 394 m 500 1276 l 500 1068 l 281 1068 l 281 1276 l 500 1276 m 775 1276 l 775 1068 l 556 1068 l 556 1276 l 775 1276 z "},"Ạ":{"ha":1057,"x_min":-31,"x_max":1088,"o":"m 747 203 l 314 203 l 226 0 l -31 0 l 426 979 l 629 979 l 1088 0 l 835 0 l 747 203 m 665 394 l 531 708 l 396 394 l 665 394 m 638 -79 l 638 -285 l 421 -285 l 421 -79 l 638 -79 z "},"À":{"ha":1057,"x_min":-31,"x_max":1088,"o":"m 747 203 l 314 203 l 226 0 l -31 0 l 426 979 l 629 979 l 1088 0 l 835 0 l 747 203 m 665 394 l 531 708 l 396 394 l 665 394 m 238 1281 l 458 1281 l 603 1063 l 453 1063 l 238 1281 z "},"Ả":{"ha":1057,"x_min":-31,"x_max":1088,"o":"m 747 203 l 314 203 l 226 0 l -31 0 l 426 979 l 629 979 l 1088 0 l 835 0 l 747 203 m 665 394 l 531 708 l 396 394 l 665 394 m 585 1063 l 471 1063 l 471 1094 q 487 1132 471 1119 q 532 1157 503 1144 q 560 1176 560 1167 q 518 1199 560 1199 q 442 1183 483 1199 l 411 1261 q 550 1286 474 1286 q 660 1260 618 1286 q 703 1197 703 1233 q 685 1156 703 1171 q 635 1126 667 1140 q 597 1105 608 1114 q 585 1082 585 1096 l 585 1063 z "},"Ȃ":{"ha":1057,"x_min":-31,"x_max":1088,"o":"m 747 203 l 314 203 l 226 0 l -31 0 l 426 979 l 629 979 l 1088 0 l 835 0 l 747 203 m 665 394 l 531 708 l 396 394 l 665 394 m 528 1271 q 690 1231 624 1271 q 783 1118 757 1192 l 676 1074 q 528 1131 636 1131 q 379 1074 419 1131 l 272 1118 q 365 1231 299 1192 q 528 1271 432 1271 z "},"Ā":{"ha":1057,"x_min":-31,"x_max":1088,"o":"m 747 203 l 314 203 l 226 0 l -31 0 l 426 979 l 629 979 l 1088 0 l 835 0 l 747 203 m 665 394 l 531 708 l 396 394 l 665 394 m 307 1246 l 749 1246 l 749 1097 l 307 1097 l 307 1246 z "},"Ą":{"ha":1057,"x_min":-31,"x_max":1088,"o":"m 982 -153 q 1056 -139 1018 -153 l 1079 -249 q 932 -275 1013 -275 q 802 -233 854 -275 q 750 -121 750 -190 q 769 -42 750 -79 q 825 22 789 -4 l 747 203 l 314 203 l 226 0 l -31 0 l 426 979 l 629 979 l 1088 0 l 1000 0 q 930 -24 957 0 q 903 -83 903 -47 q 982 -153 903 -153 m 665 394 l 531 708 l 396 394 l 665 394 z "},"Å":{"ha":1057,"x_min":-31,"x_max":1088,"o":"m 747 203 l 314 203 l 226 0 l -31 0 l 422 969 q 385 1020 399 990 q 372 1083 372 1050 q 418 1192 372 1147 q 529 1236 464 1236 q 640 1192 594 1236 q 685 1083 685 1147 q 672 1019 685 1050 q 635 968 658 989 l 1088 0 l 835 0 l 747 203 m 529 1143 q 488 1126 504 1143 q 471 1083 471 1108 q 488 1040 471 1057 q 529 1022 504 1022 q 570 1040 554 1022 q 586 1083 586 1057 q 570 1126 586 1108 q 529 1143 554 1143 m 665 394 l 531 708 l 396 394 l 665 394 z "},"Ǻ":{"ha":1057,"x_min":-31,"x_max":1088,"o":"m 747 203 l 314 203 l 226 0 l -31 0 l 422 969 q 385 1020 399 990 q 372 1083 372 1050 q 418 1192 372 1147 q 529 1236 464 1236 q 589 1225 560 1236 l 671 1317 l 890 1317 l 675 1138 q 685 1083 685 1108 q 672 1019 685 1050 q 635 968 658 989 l 1088 0 l 835 0 l 747 203 m 529 1143 q 488 1126 504 1143 q 471 1083 471 1108 q 488 1040 471 1057 q 529 1022 504 1022 q 570 1040 554 1022 q 586 1083 586 1057 q 570 1126 586 1108 q 529 1143 554 1143 m 665 394 l 531 708 l 396 394 l 665 394 z "},"Ã":{"ha":1057,"x_min":-31,"x_max":1088,"o":"m 747 203 l 314 203 l 226 0 l -31 0 l 426 979 l 629 979 l 1088 0 l 835 0 l 747 203 m 665 394 l 531 708 l 396 394 l 665 394 m 279 1064 q 325 1228 279 1174 q 440 1283 371 1283 q 486 1274 464 1283 q 542 1246 508 1265 q 586 1222 569 1229 q 619 1214 603 1214 q 658 1231 643 1214 q 676 1279 672 1247 l 776 1279 q 731 1115 776 1169 q 615 1060 685 1060 q 568 1069 592 1060 q 514 1099 544 1079 q 469 1123 486 1115 q 436 1131 453 1131 q 398 1114 413 1131 q 379 1064 383 1097 l 279 1064 z "},"Æ":{"ha":1394,"x_min":-58,"x_max":1350,"o":"m 833 783 l 876 596 l 1322 596 l 1322 400 l 921 400 l 967 196 l 1350 196 l 1350 0 l 778 0 l 732 203 l 339 203 l 219 0 l -58 0 l 567 979 l 1350 979 l 1350 783 l 833 783 m 690 394 l 625 685 l 453 394 l 690 394 z "},"Ǽ":{"ha":1394,"x_min":-58,"x_max":1350,"o":"m 833 783 l 876 596 l 1322 596 l 1322 400 l 921 400 l 967 196 l 1350 196 l 1350 0 l 778 0 l 732 203 l 339 203 l 219 0 l -58 0 l 567 979 l 1350 979 l 1350 783 l 833 783 m 690 394 l 625 685 l 453 394 l 690 394 m 629 1063 l 774 1281 l 994 1281 l 779 1063 l 629 1063 z "},"B":{"ha":965,"x_min":89,"x_max":924,"o":"m 746 508 q 878 420 832 482 q 924 268 924 358 q 881 127 924 188 q 760 33 839 67 q 576 0 682 0 l 89 0 l 89 979 l 563 979 q 808 910 717 979 q 899 725 899 842 q 858 592 899 650 q 746 508 818 535 m 338 594 l 519 594 q 625 617 592 594 q 658 688 658 639 q 625 763 658 739 q 519 786 592 786 l 338 786 l 338 594 m 544 193 q 653 217 621 193 q 686 297 686 242 q 653 377 686 353 q 544 401 621 401 l 338 401 l 338 193 l 544 193 z "},"C":{"ha":942,"x_min":64,"x_max":896,"o":"m 564 -12 q 298 50 411 -12 q 124 226 185 113 q 64 490 64 340 q 124 753 64 640 q 298 929 185 867 q 564 992 411 992 q 749 963 660 992 q 896 885 839 933 l 817 704 q 569 789 696 789 q 387 714 450 789 q 324 490 324 639 q 387 266 324 342 q 569 190 450 190 q 817 275 696 190 l 896 94 q 749 17 839 46 q 564 -12 660 -12 z "},"Ć":{"ha":942,"x_min":64,"x_max":896,"o":"m 564 -12 q 298 50 411 -12 q 124 226 185 113 q 64 490 64 340 q 124 753 64 640 q 298 929 185 867 q 564 992 411 992 q 749 963 660 992 q 896 885 839 933 l 817 704 q 569 789 696 789 q 387 714 450 789 q 324 490 324 639 q 387 266 324 342 q 569 190 450 190 q 817 275 696 190 l 896 94 q 749 17 839 46 q 564 -12 660 -12 m 478 1063 l 622 1281 l 843 1281 l 628 1063 l 478 1063 z "},"Č":{"ha":942,"x_min":64,"x_max":896,"o":"m 564 -12 q 298 50 411 -12 q 124 226 185 113 q 64 490 64 340 q 124 753 64 640 q 298 929 185 867 q 564 992 411 992 q 749 963 660 992 q 896 885 839 933 l 817 704 q 569 789 696 789 q 387 714 450 789 q 324 490 324 639 q 387 266 324 342 q 569 190 450 190 q 817 275 696 190 l 896 94 q 749 17 839 46 q 564 -12 660 -12 m 811 1281 l 621 1063 l 485 1063 l 294 1281 l 472 1281 l 553 1172 l 633 1281 l 811 1281 z "},"Ç":{"ha":942,"x_min":64,"x_max":896,"o":"m 896 94 q 767 22 846 50 q 600 -11 688 -6 l 592 -56 l 604 -56 q 692 -81 661 -56 q 724 -151 724 -107 q 673 -241 724 -207 q 526 -275 622 -275 q 460 -269 497 -275 q 394 -251 422 -262 l 408 -162 q 519 -182 475 -182 q 578 -151 578 -182 q 535 -128 578 -128 q 490 -135 518 -128 l 463 -104 l 475 -7 q 255 78 347 11 q 113 250 163 144 q 64 490 64 356 q 124 753 64 640 q 298 929 185 867 q 564 992 411 992 q 749 963 660 992 q 896 885 839 933 l 817 704 q 569 789 696 789 q 387 714 450 789 q 324 490 324 639 q 387 266 324 342 q 569 190 450 190 q 817 275 696 190 l 896 94 z "},"Ḉ":{"ha":942,"x_min":64,"x_max":896,"o":"m 628 1063 l 478 1063 l 622 1281 l 843 1281 l 628 1063 m 896 94 q 767 22 846 50 q 600 -11 688 -6 l 592 -56 l 604 -56 q 692 -81 661 -56 q 724 -151 724 -107 q 673 -241 724 -207 q 526 -275 622 -275 q 460 -269 497 -275 q 394 -251 422 -262 l 408 -162 q 519 -182 475 -182 q 578 -151 578 -182 q 535 -128 578 -128 q 490 -135 518 -128 l 463 -104 l 475 -7 q 255 78 347 11 q 113 250 163 144 q 64 490 64 356 q 124 753 64 640 q 298 929 185 867 q 564 992 411 992 q 749 963 660 992 q 896 885 839 933 l 817 704 q 569 789 696 789 q 387 714 450 789 q 324 490 324 639 q 387 266 324 342 q 569 190 450 190 q 817 275 696 190 l 896 94 z "},"Ĉ":{"ha":942,"x_min":64,"x_max":896,"o":"m 564 -12 q 298 50 411 -12 q 124 226 185 113 q 64 490 64 340 q 124 753 64 640 q 298 929 185 867 q 564 992 411 992 q 749 963 660 992 q 896 885 839 933 l 817 704 q 569 789 696 789 q 387 714 450 789 q 324 490 324 639 q 387 266 324 342 q 569 190 450 190 q 817 275 696 190 l 896 94 q 749 17 839 46 q 564 -12 660 -12 m 294 1063 l 485 1281 l 621 1281 l 811 1063 l 633 1063 l 553 1171 l 472 1063 l 294 1063 z "},"Ċ":{"ha":942,"x_min":64,"x_max":896,"o":"m 564 -12 q 298 50 411 -12 q 124 226 185 113 q 64 490 64 340 q 124 753 64 640 q 298 929 185 867 q 564 992 411 992 q 749 963 660 992 q 896 885 839 933 l 817 704 q 569 789 696 789 q 387 714 450 789 q 324 490 324 639 q 387 266 324 342 q 569 190 450 190 q 817 275 696 190 l 896 94 q 749 17 839 46 q 564 -12 660 -12 m 682 1283 l 682 1061 l 424 1061 l 424 1283 l 682 1283 z "},"D":{"ha":1074,"x_min":89,"x_max":1010,"o":"m 89 979 l 488 979 q 767 921 650 979 q 947 752 885 863 q 1010 490 1010 642 q 948 227 1010 338 q 769 58 886 117 q 488 0 651 0 l 89 0 l 89 979 m 469 206 q 685 276 614 206 q 756 490 756 347 q 685 703 756 633 q 469 774 614 774 l 344 774 l 344 206 l 469 206 z "},"Ǆ":{"ha":1910,"x_min":89,"x_max":1863,"o":"m 89 979 l 488 979 q 767 921 650 979 q 947 752 885 863 q 1010 490 1010 642 q 948 227 1010 338 q 769 58 886 117 q 488 0 651 0 l 89 0 l 89 979 m 469 206 q 685 276 614 206 q 756 490 756 347 q 685 703 756 633 q 469 774 614 774 l 344 774 l 344 206 l 469 206 m 1863 200 l 1863 0 l 1125 0 l 1125 188 l 1560 779 l 1125 779 l 1125 979 l 1846 979 l 1846 796 l 1407 200 l 1863 200 m 1743 1281 l 1553 1063 l 1417 1063 l 1226 1281 l 1404 1281 l 1485 1172 l 1565 1281 l 1743 1281 z "},"Ð":{"ha":1124,"x_min":24,"x_max":1060,"o":"m 538 979 q 817 921 700 979 q 997 752 935 863 q 1060 490 1060 642 q 998 227 1060 338 q 819 58 936 117 q 538 0 701 0 l 139 0 l 139 397 l 24 397 l 24 590 l 139 590 l 139 979 l 538 979 m 519 206 q 735 276 664 206 q 806 490 806 346 q 735 703 806 633 q 519 774 664 774 l 394 774 l 394 590 l 649 590 l 649 397 l 394 397 l 394 206 l 519 206 z "},"Ď":{"ha":1074,"x_min":89,"x_max":1010,"o":"m 89 979 l 488 979 q 767 921 650 979 q 947 752 885 863 q 1010 490 1010 642 q 948 227 1010 338 q 769 58 886 117 q 488 0 651 0 l 89 0 l 89 979 m 469 206 q 685 276 614 206 q 756 490 756 347 q 685 703 756 633 q 469 774 614 774 l 344 774 l 344 206 l 469 206 m 794 1281 l 604 1063 l 468 1063 l 278 1281 l 456 1281 l 536 1172 l 617 1281 l 794 1281 z "},"Đ":{"ha":1124,"x_min":24,"x_max":1060,"o":"m 538 979 q 817 921 700 979 q 997 752 935 863 q 1060 490 1060 642 q 998 227 1060 338 q 819 58 936 117 q 538 0 701 0 l 139 0 l 139 397 l 24 397 l 24 590 l 139 590 l 139 979 l 538 979 m 519 206 q 735 276 664 206 q 806 490 806 346 q 735 703 806 633 q 519 774 664 774 l 394 774 l 394 590 l 649 590 l 649 397 l 394 397 l 394 206 l 519 206 z "},"Ḍ":{"ha":1074,"x_min":89,"x_max":1010,"o":"m 89 979 l 488 979 q 767 921 650 979 q 947 752 885 863 q 1010 490 1010 642 q 948 227 1010 338 q 769 58 886 117 q 488 0 651 0 l 89 0 l 89 979 m 469 206 q 685 276 614 206 q 756 490 756 347 q 685 703 756 633 q 469 774 614 774 l 344 774 l 344 206 l 469 206 m 644 -79 l 644 -285 l 428 -285 l 428 -79 l 644 -79 z "},"Ḏ":{"ha":1074,"x_min":89,"x_max":1010,"o":"m 89 979 l 488 979 q 767 921 650 979 q 947 752 885 863 q 1010 490 1010 642 q 948 227 1010 338 q 769 58 886 117 q 488 0 651 0 l 89 0 l 89 979 m 469 206 q 685 276 614 206 q 756 490 756 347 q 685 703 756 633 q 469 774 614 774 l 344 774 l 344 206 l 469 206 m 315 -114 l 757 -114 l 757 -251 l 315 -251 l 315 -114 z "},"ǅ":{"ha":1794,"x_min":89,"x_max":1751,"o":"m 89 979 l 488 979 q 767 921 650 979 q 947 752 885 863 q 1010 490 1010 642 q 948 227 1010 338 q 769 58 886 117 q 488 0 651 0 l 89 0 l 89 979 m 469 206 q 685 276 614 206 q 756 490 756 347 q 685 703 756 633 q 469 774 614 774 l 344 774 l 344 206 l 469 206 m 1751 182 l 1751 0 l 1136 0 l 1136 174 l 1443 501 l 1136 501 l 1136 683 l 1738 683 l 1738 521 l 1422 182 l 1751 182 m 1706 1058 l 1518 772 l 1376 772 l 1189 1058 l 1374 1058 l 1447 913 l 1521 1058 l 1706 1058 z "},"E":{"ha":829,"x_min":89,"x_max":785,"o":"m 89 979 l 785 979 l 785 782 l 338 782 l 338 596 l 757 596 l 757 400 l 338 400 l 338 197 l 785 197 l 785 0 l 89 0 l 89 979 z "},"É":{"ha":829,"x_min":89,"x_max":785,"o":"m 89 979 l 785 979 l 785 782 l 338 782 l 338 596 l 757 596 l 757 400 l 338 400 l 338 197 l 785 197 l 785 0 l 89 0 l 89 979 m 388 1063 l 532 1281 l 753 1281 l 538 1063 l 388 1063 z "},"Ĕ":{"ha":829,"x_min":89,"x_max":785,"o":"m 89 979 l 785 979 l 785 782 l 338 782 l 338 596 l 757 596 l 757 400 l 338 400 l 338 197 l 785 197 l 785 0 l 89 0 l 89 979 m 463 1074 q 301 1114 368 1074 q 207 1226 233 1154 l 314 1271 q 463 1214 354 1214 q 611 1271 571 1214 l 718 1226 q 624 1114 692 1154 q 463 1074 557 1074 z "},"Ě":{"ha":829,"x_min":89,"x_max":785,"o":"m 89 979 l 785 979 l 785 782 l 338 782 l 338 596 l 757 596 l 757 400 l 338 400 l 338 197 l 785 197 l 785 0 l 89 0 l 89 979 m 721 1281 l 531 1063 l 394 1063 l 204 1281 l 382 1281 l 463 1172 l 543 1281 l 721 1281 z "},"Ȩ":{"ha":829,"x_min":89,"x_max":785,"o":"m 338 782 l 338 596 l 757 596 l 757 400 l 338 400 l 338 197 l 785 197 l 785 0 l 511 0 l 501 -56 l 514 -56 q 602 -81 571 -56 q 633 -151 633 -107 q 583 -241 633 -207 q 436 -275 532 -275 q 369 -269 407 -275 q 304 -251 332 -262 l 318 -162 q 429 -182 385 -182 q 488 -151 488 -182 q 444 -128 488 -128 q 400 -135 428 -128 l 372 -104 l 385 0 l 89 0 l 89 979 l 785 979 l 785 782 l 338 782 z "},"Ḝ":{"ha":829,"x_min":89,"x_max":785,"o":"m 463 1074 q 301 1114 368 1074 q 207 1226 233 1154 l 314 1271 q 463 1214 354 1214 q 611 1271 571 1214 l 718 1226 q 624 1114 692 1154 q 463 1074 557 1074 m 338 782 l 338 596 l 757 596 l 757 400 l 338 400 l 338 197 l 785 197 l 785 0 l 511 0 l 501 -56 l 514 -56 q 602 -81 571 -56 q 633 -151 633 -107 q 583 -241 633 -207 q 436 -275 532 -275 q 369 -269 407 -275 q 304 -251 332 -262 l 318 -162 q 429 -182 385 -182 q 488 -151 488 -182 q 444 -128 488 -128 q 400 -135 428 -128 l 372 -104 l 385 0 l 89 0 l 89 979 l 785 979 l 785 782 l 338 782 z "},"Ê":{"ha":829,"x_min":89,"x_max":785,"o":"m 89 979 l 785 979 l 785 782 l 338 782 l 338 596 l 757 596 l 757 400 l 338 400 l 338 197 l 785 197 l 785 0 l 89 0 l 89 979 m 204 1063 l 394 1281 l 531 1281 l 721 1063 l 543 1063 l 463 1171 l 382 1063 l 204 1063 z "},"Ế":{"ha":829,"x_min":89,"x_max":882,"o":"m 89 979 l 785 979 l 785 782 l 338 782 l 338 596 l 757 596 l 757 400 l 338 400 l 338 197 l 785 197 l 785 0 l 89 0 l 89 979 m 599 1213 l 688 1408 l 882 1408 l 714 1213 l 599 1213 m 204 1063 l 394 1250 l 531 1250 l 721 1063 l 546 1063 l 463 1146 l 379 1063 l 204 1063 z "},"Ệ":{"ha":829,"x_min":89,"x_max":785,"o":"m 89 979 l 785 979 l 785 782 l 338 782 l 338 596 l 757 596 l 757 400 l 338 400 l 338 197 l 785 197 l 785 0 l 89 0 l 89 979 m 571 -79 l 571 -285 l 354 -285 l 354 -79 l 571 -79 m 204 1063 l 394 1281 l 531 1281 l 721 1063 l 543 1063 l 463 1171 l 382 1063 l 204 1063 z "},"Ề":{"ha":829,"x_min":89,"x_max":785,"o":"m 89 979 l 785 979 l 785 782 l 338 782 l 338 596 l 757 596 l 757 400 l 338 400 l 338 197 l 785 197 l 785 0 l 89 0 l 89 979 m 482 1408 l 676 1408 l 771 1213 l 657 1213 l 482 1408 m 204 1063 l 394 1250 l 531 1250 l 721 1063 l 546 1063 l 463 1146 l 379 1063 l 204 1063 z "},"Ể":{"ha":829,"x_min":89,"x_max":829,"o":"m 89 979 l 785 979 l 785 782 l 338 782 l 338 596 l 757 596 l 757 400 l 338 400 l 338 197 l 785 197 l 785 0 l 89 0 l 89 979 m 713 1215 l 597 1215 l 597 1243 q 617 1284 597 1271 q 661 1306 636 1297 q 686 1317 686 1314 q 676 1327 686 1322 q 646 1332 667 1332 q 568 1317 613 1332 l 539 1392 q 678 1417 601 1417 q 788 1394 747 1417 q 829 1335 829 1371 q 812 1294 829 1308 q 763 1267 794 1279 q 725 1249 738 1257 q 713 1225 713 1240 l 713 1215 m 204 1063 l 394 1250 l 531 1250 l 721 1063 l 546 1063 l 463 1146 l 379 1063 l 204 1063 z "},"Ễ":{"ha":829,"x_min":89,"x_max":785,"o":"m 89 979 l 785 979 l 785 782 l 338 782 l 338 596 l 757 596 l 757 400 l 338 400 l 338 197 l 785 197 l 785 0 l 89 0 l 89 979 m 214 1276 q 262 1382 214 1339 q 375 1425 310 1425 q 476 1403 413 1425 q 554 1385 528 1385 q 593 1392 579 1385 q 611 1419 607 1399 l 711 1419 q 663 1314 711 1357 q 550 1271 615 1271 q 449 1293 513 1271 q 371 1311 397 1311 q 332 1304 346 1311 q 314 1276 318 1297 l 214 1276 m 204 1063 l 394 1250 l 531 1250 l 721 1063 l 546 1063 l 463 1146 l 379 1063 l 204 1063 z "},"Ȅ":{"ha":829,"x_min":89,"x_max":785,"o":"m 89 979 l 785 979 l 785 782 l 338 782 l 338 596 l 757 596 l 757 400 l 338 400 l 338 197 l 785 197 l 785 0 l 89 0 l 89 979 m 163 1281 l 318 1281 l 421 1063 l 301 1063 l 163 1281 m 365 1281 l 521 1281 l 624 1063 l 504 1063 l 365 1281 z "},"Ë":{"ha":829,"x_min":89,"x_max":785,"o":"m 89 979 l 785 979 l 785 782 l 338 782 l 338 596 l 757 596 l 757 400 l 338 400 l 338 197 l 785 197 l 785 0 l 89 0 l 89 979 m 435 1276 l 435 1068 l 215 1068 l 215 1276 l 435 1276 m 710 1276 l 710 1068 l 490 1068 l 490 1276 l 710 1276 z "},"Ė":{"ha":829,"x_min":89,"x_max":785,"o":"m 89 979 l 785 979 l 785 782 l 338 782 l 338 596 l 757 596 l 757 400 l 338 400 l 338 197 l 785 197 l 785 0 l 89 0 l 89 979 m 592 1283 l 592 1061 l 333 1061 l 333 1283 l 592 1283 z "},"Ẹ":{"ha":829,"x_min":89,"x_max":785,"o":"m 89 979 l 785 979 l 785 782 l 338 782 l 338 596 l 757 596 l 757 400 l 338 400 l 338 197 l 785 197 l 785 0 l 89 0 l 89 979 m 571 -79 l 571 -285 l 354 -285 l 354 -79 l 571 -79 z "},"È":{"ha":829,"x_min":89,"x_max":785,"o":"m 89 979 l 785 979 l 785 782 l 338 782 l 338 596 l 757 596 l 757 400 l 338 400 l 338 197 l 785 197 l 785 0 l 89 0 l 89 979 m 172 1281 l 393 1281 l 538 1063 l 388 1063 l 172 1281 z "},"Ẻ":{"ha":829,"x_min":89,"x_max":785,"o":"m 89 979 l 785 979 l 785 782 l 338 782 l 338 596 l 757 596 l 757 400 l 338 400 l 338 197 l 785 197 l 785 0 l 89 0 l 89 979 m 519 1063 l 406 1063 l 406 1094 q 422 1132 406 1119 q 467 1157 438 1144 q 494 1176 494 1167 q 453 1199 494 1199 q 376 1183 418 1199 l 346 1261 q 485 1286 408 1286 q 595 1260 553 1286 q 638 1197 638 1233 q 619 1156 638 1171 q 569 1126 601 1140 q 531 1105 543 1114 q 519 1082 519 1096 l 519 1063 z "},"Ȇ":{"ha":829,"x_min":89,"x_max":785,"o":"m 89 979 l 785 979 l 785 782 l 338 782 l 338 596 l 757 596 l 757 400 l 338 400 l 338 197 l 785 197 l 785 0 l 89 0 l 89 979 m 463 1271 q 625 1231 558 1271 q 718 1118 692 1192 l 611 1074 q 463 1131 571 1131 q 314 1074 354 1131 l 207 1118 q 300 1231 233 1192 q 463 1271 367 1271 z "},"Ē":{"ha":829,"x_min":89,"x_max":785,"o":"m 89 979 l 785 979 l 785 782 l 338 782 l 338 596 l 757 596 l 757 400 l 338 400 l 338 197 l 785 197 l 785 0 l 89 0 l 89 979 m 242 1246 l 683 1246 l 683 1097 l 242 1097 l 242 1246 z "},"Ḗ":{"ha":829,"x_min":89,"x_max":785,"o":"m 89 979 l 785 979 l 785 782 l 338 782 l 338 596 l 757 596 l 757 400 l 338 400 l 338 197 l 785 197 l 785 0 l 89 0 l 89 979 m 242 1246 l 683 1246 l 683 1097 l 242 1097 l 242 1246 m 388 1285 l 532 1503 l 753 1503 l 538 1285 l 388 1285 z "},"Ḕ":{"ha":829,"x_min":89,"x_max":785,"o":"m 89 979 l 785 979 l 785 782 l 338 782 l 338 596 l 757 596 l 757 400 l 338 400 l 338 197 l 785 197 l 785 0 l 89 0 l 89 979 m 242 1246 l 683 1246 l 683 1097 l 242 1097 l 242 1246 m 172 1503 l 393 1503 l 538 1285 l 388 1285 l 172 1503 z "},"Ę":{"ha":829,"x_min":89,"x_max":842,"o":"m 842 -249 q 694 -275 775 -275 q 564 -232 615 -275 q 513 -121 513 -189 q 565 0 513 -49 l 89 0 l 89 979 l 785 979 l 785 782 l 338 782 l 338 596 l 757 596 l 757 400 l 338 400 l 338 197 l 785 197 l 785 0 l 751 0 q 690 -23 714 0 q 665 -83 665 -46 q 744 -153 665 -153 q 818 -139 781 -153 l 842 -249 z "},"Ẽ":{"ha":829,"x_min":89,"x_max":785,"o":"m 89 979 l 785 979 l 785 782 l 338 782 l 338 596 l 757 596 l 757 400 l 338 400 l 338 197 l 785 197 l 785 0 l 89 0 l 89 979 m 214 1064 q 260 1228 214 1174 q 375 1283 306 1283 q 421 1274 399 1283 q 476 1246 443 1265 q 521 1222 504 1229 q 554 1214 538 1214 q 592 1231 578 1214 q 611 1279 607 1247 l 711 1279 q 665 1115 711 1169 q 550 1060 619 1060 q 503 1069 526 1060 q 449 1099 479 1079 q 404 1123 421 1115 q 371 1131 388 1131 q 333 1114 347 1131 q 314 1064 318 1097 l 214 1064 z "},"F":{"ha":803,"x_min":89,"x_max":771,"o":"m 89 979 l 771 979 l 771 779 l 340 779 l 340 599 l 743 599 l 743 399 l 340 399 l 340 0 l 89 0 l 89 979 z "},"G":{"ha":1033,"x_min":64,"x_max":956,"o":"m 956 553 l 956 63 q 782 7 879 26 q 583 -12 685 -12 q 306 48 424 -12 q 126 222 189 108 q 64 490 64 335 q 126 756 64 642 q 303 931 189 869 q 572 992 418 992 q 773 964 679 992 q 925 888 867 936 l 846 707 q 715 771 778 751 q 582 790 653 790 q 385 717 450 790 q 321 490 321 643 q 388 258 321 333 q 594 182 456 182 q 726 196 661 182 l 726 378 l 554 378 l 554 553 l 956 553 z "},"Ğ":{"ha":1033,"x_min":64,"x_max":956,"o":"m 956 553 l 956 63 q 782 7 879 26 q 583 -12 685 -12 q 306 48 424 -12 q 126 222 189 108 q 64 490 64 335 q 126 756 64 642 q 303 931 189 869 q 572 992 418 992 q 773 964 679 992 q 925 888 867 936 l 846 707 q 715 771 778 751 q 582 790 653 790 q 385 717 450 790 q 321 490 321 643 q 388 258 321 333 q 594 182 456 182 q 726 196 661 182 l 726 378 l 554 378 l 554 553 l 956 553 m 574 1074 q 412 1114 479 1074 q 318 1226 344 1154 l 425 1271 q 574 1214 465 1214 q 722 1271 682 1214 l 829 1226 q 735 1114 803 1154 q 574 1074 668 1074 z "},"Ǧ":{"ha":1033,"x_min":64,"x_max":956,"o":"m 956 553 l 956 63 q 782 7 879 26 q 583 -12 685 -12 q 306 48 424 -12 q 126 222 189 108 q 64 490 64 335 q 126 756 64 642 q 303 931 189 869 q 572 992 418 992 q 773 964 679 992 q 925 888 867 936 l 846 707 q 715 771 778 751 q 582 790 653 790 q 385 717 450 790 q 321 490 321 643 q 388 258 321 333 q 594 182 456 182 q 726 196 661 182 l 726 378 l 554 378 l 554 553 l 956 553 m 832 1281 l 642 1063 l 506 1063 l 315 1281 l 493 1281 l 574 1172 l 654 1281 l 832 1281 z "},"Ĝ":{"ha":1033,"x_min":64,"x_max":956,"o":"m 956 553 l 956 63 q 782 7 879 26 q 583 -12 685 -12 q 306 48 424 -12 q 126 222 189 108 q 64 490 64 335 q 126 756 64 642 q 303 931 189 869 q 572 992 418 992 q 773 964 679 992 q 925 888 867 936 l 846 707 q 715 771 778 751 q 582 790 653 790 q 385 717 450 790 q 321 490 321 643 q 388 258 321 333 q 594 182 456 182 q 726 196 661 182 l 726 378 l 554 378 l 554 553 l 956 553 m 315 1063 l 506 1281 l 642 1281 l 832 1063 l 654 1063 l 574 1171 l 493 1063 l 315 1063 z "},"Ģ":{"ha":1033,"x_min":64,"x_max":956,"o":"m 956 553 l 956 63 q 782 7 879 26 q 583 -12 685 -12 q 306 48 424 -12 q 126 222 189 108 q 64 490 64 335 q 126 756 64 642 q 303 931 189 869 q 572 992 418 992 q 773 964 679 992 q 925 888 867 936 l 846 707 q 715 771 778 751 q 582 790 653 790 q 385 717 450 790 q 321 490 321 643 q 388 258 321 333 q 594 182 456 182 q 726 196 661 182 l 726 378 l 554 378 l 554 553 l 956 553 m 700 -87 l 700 -181 q 680 -299 700 -249 q 611 -390 660 -349 l 528 -333 q 575 -262 564 -300 l 465 -262 l 465 -87 l 700 -87 z "},"Ġ":{"ha":1033,"x_min":64,"x_max":956,"o":"m 956 553 l 956 63 q 782 7 879 26 q 583 -12 685 -12 q 306 48 424 -12 q 126 222 189 108 q 64 490 64 335 q 126 756 64 642 q 303 931 189 869 q 572 992 418 992 q 773 964 679 992 q 925 888 867 936 l 846 707 q 715 771 778 751 q 582 790 653 790 q 385 717 450 790 q 321 490 321 643 q 388 258 321 333 q 594 182 456 182 q 726 196 661 182 l 726 378 l 554 378 l 554 553 l 956 553 m 703 1283 l 703 1061 l 444 1061 l 444 1283 l 703 1283 z "},"Ḡ":{"ha":1033,"x_min":64,"x_max":956,"o":"m 956 553 l 956 63 q 782 7 879 26 q 583 -12 685 -12 q 306 48 424 -12 q 126 222 189 108 q 64 490 64 335 q 126 756 64 642 q 303 931 189 869 q 572 992 418 992 q 773 964 679 992 q 925 888 867 936 l 846 707 q 715 771 778 751 q 582 790 653 790 q 385 717 450 790 q 321 490 321 643 q 388 258 321 333 q 594 182 456 182 q 726 196 661 182 l 726 378 l 554 378 l 554 553 l 956 553 m 353 1246 l 794 1246 l 794 1097 l 353 1097 l 353 1246 z "},"H":{"ha":1078,"x_min":89,"x_max":989,"o":"m 989 979 l 989 0 l 739 0 l 739 396 l 339 396 l 339 0 l 89 0 l 89 979 l 339 979 l 339 599 l 739 599 l 739 979 l 989 979 z "},"Ħ":{"ha":1178,"x_min":24,"x_max":1154,"o":"m 1154 699 l 1039 699 l 1039 0 l 789 0 l 789 396 l 389 396 l 389 0 l 139 0 l 139 699 l 24 699 l 24 885 l 139 885 l 139 979 l 389 979 l 389 885 l 789 885 l 789 979 l 1039 979 l 1039 885 l 1154 885 l 1154 699 m 789 699 l 389 699 l 389 599 l 789 599 l 789 699 z "},"Ḫ":{"ha":1078,"x_min":89,"x_max":989,"o":"m 989 979 l 989 0 l 739 0 l 739 396 l 339 396 l 339 0 l 89 0 l 89 979 l 339 979 l 339 599 l 739 599 l 739 979 l 989 979 m 539 -324 q 368 -269 443 -324 q 271 -112 293 -214 l 376 -68 q 539 -174 439 -174 q 701 -68 639 -174 l 807 -112 q 710 -269 785 -214 q 539 -324 635 -324 z "},"Ĥ":{"ha":1078,"x_min":89,"x_max":989,"o":"m 989 979 l 989 0 l 739 0 l 739 396 l 339 396 l 339 0 l 89 0 l 89 979 l 339 979 l 339 599 l 739 599 l 739 979 l 989 979 m 281 1063 l 471 1281 l 607 1281 l 797 1063 l 619 1063 l 539 1171 l 458 1063 l 281 1063 z "},"Ḥ":{"ha":1078,"x_min":89,"x_max":989,"o":"m 989 979 l 989 0 l 739 0 l 739 396 l 339 396 l 339 0 l 89 0 l 89 979 l 339 979 l 339 599 l 739 599 l 739 979 l 989 979 m 647 -79 l 647 -285 l 431 -285 l 431 -79 l 647 -79 z "},"I":{"ha":433,"x_min":89,"x_max":344,"o":"m 89 979 l 344 979 l 344 0 l 89 0 l 89 979 z "},"Í":{"ha":433,"x_min":89,"x_max":506,"o":"m 89 979 l 344 979 l 344 0 l 89 0 l 89 979 m 140 1063 l 285 1281 l 506 1281 l 290 1063 l 140 1063 z "},"Ĭ":{"ha":433,"x_min":-40,"x_max":471,"o":"m 89 979 l 344 979 l 344 0 l 89 0 l 89 979 m 215 1074 q 53 1114 121 1074 q -40 1226 -14 1154 l 67 1271 q 215 1214 107 1214 q 364 1271 324 1214 l 471 1226 q 377 1114 444 1154 q 215 1074 310 1074 z "},"Î":{"ha":433,"x_min":-43,"x_max":474,"o":"m 89 979 l 344 979 l 344 0 l 89 0 l 89 979 m -43 1063 l 147 1281 l 283 1281 l 474 1063 l 296 1063 l 215 1171 l 135 1063 l -43 1063 z "},"Ȉ":{"ha":433,"x_min":-85,"x_max":376,"o":"m 89 979 l 344 979 l 344 0 l 89 0 l 89 979 m -85 1281 l 71 1281 l 174 1063 l 54 1063 l -85 1281 m 118 1281 l 274 1281 l 376 1063 l 257 1063 l 118 1281 z "},"Ï":{"ha":433,"x_min":-32,"x_max":463,"o":"m 89 979 l 344 979 l 344 0 l 89 0 l 89 979 m 188 1276 l 188 1068 l -32 1068 l -32 1276 l 188 1276 m 463 1276 l 463 1068 l 243 1068 l 243 1276 l 463 1276 z "},"Ḯ":{"ha":433,"x_min":-32,"x_max":506,"o":"m 89 979 l 344 979 l 344 0 l 89 0 l 89 979 m 188 1276 l 188 1068 l -32 1068 l -32 1276 l 188 1276 m 463 1276 l 463 1068 l 243 1068 l 243 1276 l 463 1276 m 140 1285 l 285 1503 l 506 1503 l 290 1285 l 140 1285 z "},"İ":{"ha":433,"x_min":86,"x_max":344,"o":"m 89 979 l 344 979 l 344 0 l 89 0 l 89 979 m 344 1283 l 344 1061 l 86 1061 l 86 1283 l 344 1283 z "},"Ị":{"ha":433,"x_min":89,"x_max":344,"o":"m 89 979 l 344 979 l 344 0 l 89 0 l 89 979 m 324 -79 l 324 -285 l 107 -285 l 107 -79 l 324 -79 z "},"Ì":{"ha":433,"x_min":-75,"x_max":344,"o":"m 89 979 l 344 979 l 344 0 l 89 0 l 89 979 m -75 1281 l 146 1281 l 290 1063 l 140 1063 l -75 1281 z "},"Ỉ":{"ha":433,"x_min":89,"x_max":390,"o":"m 89 979 l 344 979 l 344 0 l 89 0 l 89 979 m 272 1063 l 158 1063 l 158 1094 q 174 1132 158 1119 q 219 1157 190 1144 q 247 1176 247 1167 q 206 1199 247 1199 q 129 1183 171 1199 l 99 1261 q 238 1286 161 1286 q 348 1260 306 1286 q 390 1197 390 1233 q 372 1156 390 1171 q 322 1126 354 1140 q 284 1105 296 1114 q 272 1082 272 1096 l 272 1063 z "},"Ȋ":{"ha":433,"x_min":-40,"x_max":471,"o":"m 89 979 l 344 979 l 344 0 l 89 0 l 89 979 m 215 1271 q 378 1231 311 1271 q 471 1118 444 1192 l 364 1074 q 215 1131 324 1131 q 67 1074 107 1131 l -40 1118 q 53 1231 -14 1192 q 215 1271 119 1271 z "},"Ī":{"ha":433,"x_min":-6,"x_max":436,"o":"m 89 979 l 344 979 l 344 0 l 89 0 l 89 979 m -6 1246 l 436 1246 l 436 1097 l -6 1097 l -6 1246 z "},"Į":{"ha":433,"x_min":56,"x_max":385,"o":"m 385 -249 q 238 -275 318 -275 q 108 -232 160 -275 q 56 -117 56 -189 q 103 0 56 -51 l 89 0 l 89 979 l 344 979 l 344 0 l 321 0 q 238 -23 269 0 q 207 -83 207 -46 q 288 -153 207 -153 q 360 -139 324 -153 l 385 -249 z "},"Ĩ":{"ha":433,"x_min":-33,"x_max":464,"o":"m 89 979 l 344 979 l 344 0 l 89 0 l 89 979 m -33 1064 q 13 1228 -33 1174 q 128 1283 58 1283 q 174 1274 151 1283 q 229 1246 196 1265 q 274 1222 257 1229 q 307 1214 290 1214 q 345 1231 331 1214 q 364 1279 360 1247 l 464 1279 q 418 1115 464 1169 q 303 1060 372 1060 q 256 1069 279 1060 q 201 1099 232 1079 q 157 1123 174 1115 q 124 1131 140 1131 q 85 1114 100 1131 q 67 1064 71 1097 l -33 1064 z "},"J":{"ha":551,"x_min":-4,"x_max":463,"o":"m -4 189 l 110 196 q 183 221 161 199 q 206 292 206 243 l 206 979 l 463 979 l 463 296 q 386 77 463 153 q 154 -8 310 1 l 11 -15 l -4 189 z "},"Ĵ":{"ha":551,"x_min":-4,"x_max":593,"o":"m -4 189 l 110 196 q 183 221 161 199 q 206 292 206 243 l 206 979 l 463 979 l 463 296 q 386 77 463 153 q 154 -8 310 1 l 11 -15 l -4 189 m 76 1063 l 267 1281 l 403 1281 l 593 1063 l 415 1063 l 335 1171 l 254 1063 l 76 1063 z "},"K":{"ha":969,"x_min":89,"x_max":1042,"o":"m 739 0 l 344 443 l 344 0 l 89 0 l 89 979 l 344 979 l 344 558 l 728 979 l 1026 979 l 594 514 l 1042 0 l 739 0 z "},"Ķ":{"ha":969,"x_min":89,"x_max":1042,"o":"m 739 0 l 344 443 l 344 0 l 89 0 l 89 979 l 344 979 l 344 558 l 728 979 l 1026 979 l 594 514 l 1042 0 l 739 0 m 604 -87 l 604 -181 q 584 -299 604 -249 q 515 -390 564 -349 l 432 -333 q 479 -262 468 -300 l 369 -262 l 369 -87 l 604 -87 z "},"L":{"ha":794,"x_min":89,"x_max":761,"o":"m 89 979 l 344 979 l 344 207 l 761 207 l 761 0 l 89 0 l 89 979 z "},"Ǉ":{"ha":1353,"x_min":89,"x_max":1264,"o":"m 89 979 l 344 979 l 344 207 l 719 207 l 719 0 l 89 0 l 89 979 m 796 189 l 911 196 q 983 222 960 199 q 1006 296 1006 246 l 1006 979 l 1264 979 l 1264 299 q 954 -8 1264 11 l 813 -15 l 796 189 z "},"Ĺ":{"ha":794,"x_min":89,"x_max":761,"o":"m 89 979 l 344 979 l 344 207 l 761 207 l 761 0 l 89 0 l 89 979 m 140 1063 l 285 1281 l 506 1281 l 290 1063 l 140 1063 z "},"Ľ":{"ha":794,"x_min":89,"x_max":761,"o":"m 89 979 l 344 979 l 344 207 l 761 207 l 761 0 l 89 0 l 89 979 m 467 708 l 467 979 l 617 979 l 581 708 l 467 708 z "},"Ļ":{"ha":794,"x_min":89,"x_max":761,"o":"m 89 979 l 344 979 l 344 207 l 761 207 l 761 0 l 89 0 l 89 979 m 553 -87 l 553 -181 q 533 -299 553 -249 q 464 -390 513 -349 l 381 -333 q 428 -262 417 -300 l 318 -262 l 318 -87 l 553 -87 z "},"Ŀ":{"ha":794,"x_min":89,"x_max":761,"o":"m 89 979 l 344 979 l 344 207 l 761 207 l 761 0 l 89 0 l 89 979 m 693 600 l 693 381 l 438 381 l 438 600 l 693 600 z "},"Ḷ":{"ha":794,"x_min":89,"x_max":761,"o":"m 89 979 l 344 979 l 344 207 l 761 207 l 761 0 l 89 0 l 89 979 m 544 -79 l 544 -285 l 328 -285 l 328 -79 l 544 -79 z "},"ǈ":{"ha":1185,"x_min":89,"x_max":1117,"o":"m 89 979 l 344 979 l 344 207 l 761 207 l 761 0 l 89 0 l 89 979 m 1114 60 q 1082 -118 1114 -53 q 978 -215 1050 -183 q 779 -256 906 -247 l 711 -260 l 694 -85 l 769 -79 q 845 -55 824 -75 q 867 11 867 -35 l 867 683 l 1114 683 l 1114 60 m 1117 1025 l 1117 801 l 858 801 l 858 1025 l 1117 1025 z "},"Ḻ":{"ha":794,"x_min":89,"x_max":761,"o":"m 89 979 l 344 979 l 344 207 l 761 207 l 761 0 l 89 0 l 89 979 m 215 -114 l 657 -114 l 657 -251 l 215 -251 l 215 -114 z "},"Ł":{"ha":846,"x_min":-26,"x_max":811,"o":"m 811 207 l 811 0 l 139 0 l 139 313 l 65 269 l -26 432 l 139 528 l 139 979 l 394 979 l 394 675 l 596 792 l 688 628 l 394 458 l 394 207 l 811 207 z "},"M":{"ha":1169,"x_min":92,"x_max":1078,"o":"m 1078 979 l 1078 0 l 856 0 l 856 514 l 667 163 l 503 163 l 315 506 l 314 0 l 92 0 l 92 979 l 293 979 l 588 422 l 881 979 l 1078 979 z "},"Ṃ":{"ha":1169,"x_min":92,"x_max":1078,"o":"m 1078 979 l 1078 0 l 856 0 l 856 514 l 667 163 l 503 163 l 315 506 l 314 0 l 92 0 l 92 979 l 293 979 l 588 422 l 881 979 l 1078 979 m 693 -79 l 693 -285 l 476 -285 l 476 -79 l 693 -79 z "},"N":{"ha":1051,"x_min":89,"x_max":963,"o":"m 963 979 l 963 0 l 774 0 l 326 560 l 326 0 l 89 0 l 89 979 l 275 979 l 724 419 l 724 979 l 963 979 z "},"Ǌ":{"ha":1603,"x_min":89,"x_max":1514,"o":"m 963 979 l 963 0 l 774 0 l 326 560 l 326 0 l 89 0 l 89 979 l 275 979 l 724 419 l 724 979 l 963 979 m 1047 189 l 1161 196 q 1235 221 1213 199 q 1257 292 1257 243 l 1257 979 l 1514 979 l 1514 296 q 1438 77 1514 153 q 1206 -8 1361 1 l 1063 -15 l 1047 189 z "},"Ń":{"ha":1051,"x_min":89,"x_max":963,"o":"m 963 979 l 963 0 l 774 0 l 326 560 l 326 0 l 89 0 l 89 979 l 275 979 l 724 419 l 724 979 l 963 979 m 450 1063 l 594 1281 l 815 1281 l 600 1063 l 450 1063 z "},"Ň":{"ha":1051,"x_min":89,"x_max":963,"o":"m 963 979 l 963 0 l 774 0 l 326 560 l 326 0 l 89 0 l 89 979 l 275 979 l 724 419 l 724 979 l 963 979 m 783 1281 l 593 1063 l 457 1063 l 267 1281 l 444 1281 l 525 1172 l 606 1281 l 783 1281 z "},"Ņ":{"ha":1051,"x_min":89,"x_max":963,"o":"m 963 979 l 963 0 l 774 0 l 326 560 l 326 0 l 89 0 l 89 979 l 275 979 l 724 419 l 724 979 l 963 979 m 643 -87 l 643 -181 q 623 -299 643 -249 q 554 -390 603 -349 l 471 -333 q 518 -262 507 -300 l 408 -262 l 408 -87 l 643 -87 z "},"Ṅ":{"ha":1051,"x_min":89,"x_max":963,"o":"m 963 979 l 963 0 l 774 0 l 326 560 l 326 0 l 89 0 l 89 979 l 275 979 l 724 419 l 724 979 l 963 979 m 654 1283 l 654 1061 l 396 1061 l 396 1283 l 654 1283 z "},"Ṇ":{"ha":1051,"x_min":89,"x_max":963,"o":"m 963 979 l 963 0 l 774 0 l 326 560 l 326 0 l 89 0 l 89 979 l 275 979 l 724 419 l 724 979 l 963 979 m 635 -79 l 635 -285 l 418 -285 l 418 -79 l 635 -79 z "},"Ŋ":{"ha":1051,"x_min":89,"x_max":963,"o":"m 963 979 l 963 53 q 654 -254 963 -237 l 511 -261 l 496 -71 l 610 -64 q 692 -33 663 -62 q 721 44 721 -3 l 721 68 l 326 560 l 326 0 l 89 0 l 89 979 l 275 979 l 724 419 l 724 979 l 963 979 z "},"ǋ":{"ha":1442,"x_min":89,"x_max":1374,"o":"m 963 979 l 963 0 l 774 0 l 326 560 l 326 0 l 89 0 l 89 979 l 275 979 l 724 419 l 724 979 l 963 979 m 1371 60 q 1339 -118 1371 -53 q 1235 -215 1307 -183 q 1036 -256 1163 -247 l 968 -260 l 951 -85 l 1026 -79 q 1102 -55 1081 -75 q 1124 11 1124 -35 l 1124 683 l 1371 683 l 1371 60 m 1374 1025 l 1374 801 l 1115 801 l 1115 1025 l 1374 1025 z "},"Ṉ":{"ha":1051,"x_min":89,"x_max":963,"o":"m 963 979 l 963 0 l 774 0 l 326 560 l 326 0 l 89 0 l 89 979 l 275 979 l 724 419 l 724 979 l 963 979 m 306 -114 l 747 -114 l 747 -251 l 306 -251 l 306 -114 z "},"Ñ":{"ha":1051,"x_min":89,"x_max":963,"o":"m 963 979 l 963 0 l 774 0 l 326 560 l 326 0 l 89 0 l 89 979 l 275 979 l 724 419 l 724 979 l 963 979 m 276 1064 q 322 1228 276 1174 q 438 1283 368 1283 q 483 1274 461 1283 q 539 1246 506 1265 q 583 1222 567 1229 q 617 1214 600 1214 q 655 1231 640 1214 q 674 1279 669 1247 l 774 1279 q 728 1115 774 1169 q 613 1060 682 1060 q 565 1069 589 1060 q 511 1099 542 1079 q 467 1123 483 1115 q 433 1131 450 1131 q 395 1114 410 1131 q 376 1064 381 1097 l 276 1064 z "},"O":{"ha":1106,"x_min":64,"x_max":1043,"o":"m 554 -12 q 294 49 404 -12 q 124 224 183 111 q 64 490 64 338 q 124 756 64 643 q 294 931 183 869 q 554 992 404 992 q 815 931 704 992 q 984 756 925 869 q 1043 490 1043 643 q 983 224 1043 338 q 813 49 924 111 q 554 -12 703 -12 m 554 183 q 728 262 665 183 q 790 490 790 340 q 727 718 790 640 q 554 796 664 796 q 381 719 443 796 q 318 490 318 642 q 381 261 318 339 q 554 183 443 183 z "},"Ó":{"ha":1106,"x_min":64,"x_max":1043,"o":"m 554 -12 q 294 49 404 -12 q 124 224 183 111 q 64 490 64 338 q 124 756 64 643 q 294 931 183 869 q 554 992 404 992 q 815 931 704 992 q 984 756 925 869 q 1043 490 1043 643 q 983 224 1043 338 q 813 49 924 111 q 554 -12 703 -12 m 554 183 q 728 262 665 183 q 790 490 790 340 q 727 718 790 640 q 554 796 664 796 q 381 719 443 796 q 318 490 318 642 q 381 261 318 339 q 554 183 443 183 m 478 1063 l 622 1281 l 843 1281 l 628 1063 l 478 1063 z "},"Ŏ":{"ha":1106,"x_min":64,"x_max":1043,"o":"m 554 -12 q 294 49 404 -12 q 124 224 183 111 q 64 490 64 338 q 124 756 64 643 q 294 931 183 869 q 554 992 404 992 q 815 931 704 992 q 984 756 925 869 q 1043 490 1043 643 q 983 224 1043 338 q 813 49 924 111 q 554 -12 703 -12 m 554 183 q 728 262 665 183 q 790 490 790 340 q 727 718 790 640 q 554 796 664 796 q 381 719 443 796 q 318 490 318 642 q 381 261 318 339 q 554 183 443 183 m 553 1074 q 391 1114 458 1074 q 297 1226 324 1154 l 404 1271 q 553 1214 444 1214 q 701 1271 661 1214 l 808 1226 q 715 1114 782 1154 q 553 1074 647 1074 z "},"Ô":{"ha":1106,"x_min":64,"x_max":1043,"o":"m 554 -12 q 294 49 404 -12 q 124 224 183 111 q 64 490 64 338 q 124 756 64 643 q 294 931 183 869 q 554 992 404 992 q 815 931 704 992 q 984 756 925 869 q 1043 490 1043 643 q 983 224 1043 338 q 813 49 924 111 q 554 -12 703 -12 m 554 183 q 728 262 665 183 q 790 490 790 340 q 727 718 790 640 q 554 796 664 796 q 381 719 443 796 q 318 490 318 642 q 381 261 318 339 q 554 183 443 183 m 294 1063 l 485 1281 l 621 1281 l 811 1063 l 633 1063 l 553 1171 l 472 1063 l 294 1063 z "},"Ố":{"ha":1106,"x_min":64,"x_max":1043,"o":"m 554 -12 q 294 49 404 -12 q 124 224 183 111 q 64 490 64 338 q 124 756 64 643 q 294 931 183 869 q 554 992 404 992 q 815 931 704 992 q 984 756 925 869 q 1043 490 1043 643 q 983 224 1043 338 q 813 49 924 111 q 554 -12 703 -12 m 554 183 q 728 262 665 183 q 790 490 790 340 q 727 718 790 640 q 554 796 664 796 q 381 719 443 796 q 318 490 318 642 q 381 261 318 339 q 554 183 443 183 m 689 1213 l 778 1408 l 972 1408 l 804 1213 l 689 1213 m 294 1063 l 485 1250 l 621 1250 l 811 1063 l 636 1063 l 553 1146 l 469 1063 l 294 1063 z "},"Ộ":{"ha":1106,"x_min":64,"x_max":1043,"o":"m 554 -12 q 294 49 404 -12 q 124 224 183 111 q 64 490 64 338 q 124 756 64 643 q 294 931 183 869 q 554 992 404 992 q 815 931 704 992 q 984 756 925 869 q 1043 490 1043 643 q 983 224 1043 338 q 813 49 924 111 q 554 -12 703 -12 m 554 183 q 728 262 665 183 q 790 490 790 340 q 727 718 790 640 q 554 796 664 796 q 381 719 443 796 q 318 490 318 642 q 381 261 318 339 q 554 183 443 183 m 663 -79 l 663 -285 l 446 -285 l 446 -79 l 663 -79 m 294 1063 l 485 1281 l 621 1281 l 811 1063 l 633 1063 l 553 1171 l 472 1063 l 294 1063 z "},"Ồ":{"ha":1106,"x_min":64,"x_max":1043,"o":"m 554 -12 q 294 49 404 -12 q 124 224 183 111 q 64 490 64 338 q 124 756 64 643 q 294 931 183 869 q 554 992 404 992 q 815 931 704 992 q 984 756 925 869 q 1043 490 1043 643 q 983 224 1043 338 q 813 49 924 111 q 554 -12 703 -12 m 554 183 q 728 262 665 183 q 790 490 790 340 q 727 718 790 640 q 554 796 664 796 q 381 719 443 796 q 318 490 318 642 q 381 261 318 339 q 554 183 443 183 m 572 1408 l 767 1408 l 861 1213 l 747 1213 l 572 1408 m 294 1063 l 485 1250 l 621 1250 l 811 1063 l 636 1063 l 553 1146 l 469 1063 l 294 1063 z "},"Ổ":{"ha":1106,"x_min":64,"x_max":1043,"o":"m 554 -12 q 294 49 404 -12 q 124 224 183 111 q 64 490 64 338 q 124 756 64 643 q 294 931 183 869 q 554 992 404 992 q 815 931 704 992 q 984 756 925 869 q 1043 490 1043 643 q 983 224 1043 338 q 813 49 924 111 q 554 -12 703 -12 m 554 183 q 728 262 665 183 q 790 490 790 340 q 727 718 790 640 q 554 796 664 796 q 381 719 443 796 q 318 490 318 642 q 381 261 318 339 q 554 183 443 183 m 803 1215 l 688 1215 l 688 1243 q 707 1284 688 1271 q 751 1306 726 1297 q 776 1317 776 1314 q 767 1327 776 1322 q 736 1332 757 1332 q 658 1317 703 1332 l 629 1392 q 768 1417 692 1417 q 878 1394 838 1417 q 919 1335 919 1371 q 902 1294 919 1308 q 853 1267 885 1279 q 815 1249 828 1257 q 803 1225 803 1240 l 803 1215 m 294 1063 l 485 1250 l 621 1250 l 811 1063 l 636 1063 l 553 1146 l 469 1063 l 294 1063 z "},"Ỗ":{"ha":1106,"x_min":64,"x_max":1043,"o":"m 554 -12 q 294 49 404 -12 q 124 224 183 111 q 64 490 64 338 q 124 756 64 643 q 294 931 183 869 q 554 992 404 992 q 815 931 704 992 q 984 756 925 869 q 1043 490 1043 643 q 983 224 1043 338 q 813 49 924 111 q 554 -12 703 -12 m 554 183 q 728 262 665 183 q 790 490 790 340 q 727 718 790 640 q 554 796 664 796 q 381 719 443 796 q 318 490 318 642 q 381 261 318 339 q 554 183 443 183 m 304 1276 q 352 1382 304 1339 q 465 1425 400 1425 q 567 1403 503 1425 q 644 1385 618 1385 q 683 1392 669 1385 q 701 1419 697 1399 l 801 1419 q 753 1314 801 1357 q 640 1271 706 1271 q 539 1293 603 1271 q 461 1311 488 1311 q 422 1304 436 1311 q 404 1276 408 1297 l 304 1276 m 294 1063 l 485 1250 l 621 1250 l 811 1063 l 636 1063 l 553 1146 l 469 1063 l 294 1063 z "},"Ȍ":{"ha":1106,"x_min":64,"x_max":1043,"o":"m 554 -12 q 294 49 404 -12 q 124 224 183 111 q 64 490 64 338 q 124 756 64 643 q 294 931 183 869 q 554 992 404 992 q 815 931 704 992 q 984 756 925 869 q 1043 490 1043 643 q 983 224 1043 338 q 813 49 924 111 q 554 -12 703 -12 m 554 183 q 728 262 665 183 q 790 490 790 340 q 727 718 790 640 q 554 796 664 796 q 381 719 443 796 q 318 490 318 642 q 381 261 318 339 q 554 183 443 183 m 253 1281 l 408 1281 l 511 1063 l 392 1063 l 253 1281 m 456 1281 l 611 1281 l 714 1063 l 594 1063 l 456 1281 z "},"Ö":{"ha":1106,"x_min":64,"x_max":1043,"o":"m 554 -12 q 294 49 404 -12 q 124 224 183 111 q 64 490 64 338 q 124 756 64 643 q 294 931 183 869 q 554 992 404 992 q 815 931 704 992 q 984 756 925 869 q 1043 490 1043 643 q 983 224 1043 338 q 813 49 924 111 q 554 -12 703 -12 m 554 183 q 728 262 665 183 q 790 490 790 340 q 727 718 790 640 q 554 796 664 796 q 381 719 443 796 q 318 490 318 642 q 381 261 318 339 q 554 183 443 183 m 525 1276 l 525 1068 l 306 1068 l 306 1276 l 525 1276 m 800 1276 l 800 1068 l 581 1068 l 581 1276 l 800 1276 z "},"Ȫ":{"ha":1106,"x_min":64,"x_max":1043,"o":"m 554 -12 q 294 49 404 -12 q 124 224 183 111 q 64 490 64 338 q 124 756 64 643 q 294 931 183 869 q 554 992 404 992 q 815 931 704 992 q 984 756 925 869 q 1043 490 1043 643 q 983 224 1043 338 q 813 49 924 111 q 554 -12 703 -12 m 554 183 q 728 262 665 183 q 790 490 790 340 q 727 718 790 640 q 554 796 664 796 q 381 719 443 796 q 318 490 318 642 q 381 261 318 339 q 554 183 443 183 m 525 1276 l 525 1068 l 306 1068 l 306 1276 l 525 1276 m 800 1276 l 800 1068 l 581 1068 l 581 1276 l 800 1276 m 332 1468 l 774 1468 l 774 1319 l 332 1319 l 332 1468 z "},"Ȱ":{"ha":1106,"x_min":64,"x_max":1043,"o":"m 554 -12 q 294 49 404 -12 q 124 224 183 111 q 64 490 64 338 q 124 756 64 643 q 294 931 183 869 q 554 992 404 992 q 815 931 704 992 q 984 756 925 869 q 1043 490 1043 643 q 983 224 1043 338 q 813 49 924 111 q 554 -12 703 -12 m 554 183 q 728 262 665 183 q 790 490 790 340 q 727 718 790 640 q 554 796 664 796 q 381 719 443 796 q 318 490 318 642 q 381 261 318 339 q 554 183 443 183 m 682 1283 l 682 1061 l 424 1061 l 424 1283 l 682 1283 m 332 1468 l 774 1468 l 774 1319 l 332 1319 l 332 1468 z "},"Ọ":{"ha":1106,"x_min":64,"x_max":1043,"o":"m 554 -12 q 294 49 404 -12 q 124 224 183 111 q 64 490 64 338 q 124 756 64 643 q 294 931 183 869 q 554 992 404 992 q 815 931 704 992 q 984 756 925 869 q 1043 490 1043 643 q 983 224 1043 338 q 813 49 924 111 q 554 -12 703 -12 m 554 183 q 728 262 665 183 q 790 490 790 340 q 727 718 790 640 q 554 796 664 796 q 381 719 443 796 q 318 490 318 642 q 381 261 318 339 q 554 183 443 183 m 663 -79 l 663 -285 l 446 -285 l 446 -79 l 663 -79 z "},"Ò":{"ha":1106,"x_min":64,"x_max":1043,"o":"m 554 -12 q 294 49 404 -12 q 124 224 183 111 q 64 490 64 338 q 124 756 64 643 q 294 931 183 869 q 554 992 404 992 q 815 931 704 992 q 984 756 925 869 q 1043 490 1043 643 q 983 224 1043 338 q 813 49 924 111 q 554 -12 703 -12 m 554 183 q 728 262 665 183 q 790 490 790 340 q 727 718 790 640 q 554 796 664 796 q 381 719 443 796 q 318 490 318 642 q 381 261 318 339 q 554 183 443 183 m 263 1281 l 483 1281 l 628 1063 l 478 1063 l 263 1281 z "},"Ỏ":{"ha":1106,"x_min":64,"x_max":1043,"o":"m 554 -12 q 294 49 404 -12 q 124 224 183 111 q 64 490 64 338 q 124 756 64 643 q 294 931 183 869 q 554 992 404 992 q 815 931 704 992 q 984 756 925 869 q 1043 490 1043 643 q 983 224 1043 338 q 813 49 924 111 q 554 -12 703 -12 m 554 183 q 728 262 665 183 q 790 490 790 340 q 727 718 790 640 q 554 796 664 796 q 381 719 443 796 q 318 490 318 642 q 381 261 318 339 q 554 183 443 183 m 610 1063 l 496 1063 l 496 1094 q 512 1132 496 1119 q 557 1157 528 1144 q 585 1176 585 1167 q 543 1199 585 1199 q 467 1183 508 1199 l 436 1261 q 575 1286 499 1286 q 685 1260 643 1286 q 728 1197 728 1233 q 710 1156 728 1171 q 660 1126 692 1140 q 622 1105 633 1114 q 610 1082 610 1096 l 610 1063 z "},"Ơ":{"ha":1106,"x_min":64,"x_max":1043,"o":"m 1043 1086 q 1001 951 1043 1008 q 892 874 960 893 q 1043 490 1043 739 q 983 224 1043 338 q 813 49 924 111 q 554 -12 703 -12 q 294 49 404 -12 q 124 224 183 111 q 64 490 64 338 q 124 756 64 643 q 294 931 183 869 q 556 992 406 992 q 642 985 597 992 q 722 979 692 979 q 808 1010 783 979 q 832 1115 832 1040 l 832 1146 l 1043 1146 l 1043 1086 m 554 183 q 728 262 665 183 q 790 490 790 340 q 727 718 790 640 q 554 796 664 796 q 381 719 443 796 q 318 490 318 642 q 381 261 318 339 q 554 183 443 183 z "},"Ớ":{"ha":1106,"x_min":64,"x_max":1043,"o":"m 1043 1086 q 1001 951 1043 1008 q 892 874 960 893 q 1043 490 1043 739 q 983 224 1043 338 q 813 49 924 111 q 554 -12 703 -12 q 294 49 404 -12 q 124 224 183 111 q 64 490 64 338 q 124 756 64 643 q 294 931 183 869 q 556 992 406 992 q 642 985 597 992 q 722 979 692 979 q 808 1010 783 979 q 832 1115 832 1040 l 832 1146 l 1043 1146 l 1043 1086 m 554 183 q 728 262 665 183 q 790 490 790 340 q 727 718 790 640 q 554 796 664 796 q 381 719 443 796 q 318 490 318 642 q 381 261 318 339 q 554 183 443 183 m 478 1063 l 622 1281 l 843 1281 l 628 1063 l 478 1063 z "},"Ợ":{"ha":1106,"x_min":64,"x_max":1043,"o":"m 1043 1086 q 1001 951 1043 1008 q 892 874 960 893 q 1043 490 1043 739 q 983 224 1043 338 q 813 49 924 111 q 554 -12 703 -12 q 294 49 404 -12 q 124 224 183 111 q 64 490 64 338 q 124 756 64 643 q 294 931 183 869 q 556 992 406 992 q 642 985 597 992 q 722 979 692 979 q 808 1010 783 979 q 832 1115 832 1040 l 832 1146 l 1043 1146 l 1043 1086 m 554 183 q 728 262 665 183 q 790 490 790 340 q 727 718 790 640 q 554 796 664 796 q 381 719 443 796 q 318 490 318 642 q 381 261 318 339 q 554 183 443 183 m 663 -79 l 663 -285 l 446 -285 l 446 -79 l 663 -79 z "},"Ờ":{"ha":1106,"x_min":64,"x_max":1043,"o":"m 1043 1086 q 1001 951 1043 1008 q 892 874 960 893 q 1043 490 1043 739 q 983 224 1043 338 q 813 49 924 111 q 554 -12 703 -12 q 294 49 404 -12 q 124 224 183 111 q 64 490 64 338 q 124 756 64 643 q 294 931 183 869 q 556 992 406 992 q 642 985 597 992 q 722 979 692 979 q 808 1010 783 979 q 832 1115 832 1040 l 832 1146 l 1043 1146 l 1043 1086 m 554 183 q 728 262 665 183 q 790 490 790 340 q 727 718 790 640 q 554 796 664 796 q 381 719 443 796 q 318 490 318 642 q 381 261 318 339 q 554 183 443 183 m 263 1281 l 483 1281 l 628 1063 l 478 1063 l 263 1281 z "},"Ở":{"ha":1106,"x_min":64,"x_max":1043,"o":"m 1043 1086 q 1001 951 1043 1008 q 892 874 960 893 q 1043 490 1043 739 q 983 224 1043 338 q 813 49 924 111 q 554 -12 703 -12 q 294 49 404 -12 q 124 224 183 111 q 64 490 64 338 q 124 756 64 643 q 294 931 183 869 q 556 992 406 992 q 642 985 597 992 q 722 979 692 979 q 808 1010 783 979 q 832 1115 832 1040 l 832 1146 l 1043 1146 l 1043 1086 m 554 183 q 728 262 665 183 q 790 490 790 340 q 727 718 790 640 q 554 796 664 796 q 381 719 443 796 q 318 490 318 642 q 381 261 318 339 q 554 183 443 183 m 610 1063 l 496 1063 l 496 1094 q 512 1132 496 1119 q 557 1157 528 1144 q 585 1176 585 1167 q 543 1199 585 1199 q 467 1183 508 1199 l 436 1261 q 575 1286 499 1286 q 685 1260 643 1286 q 728 1197 728 1233 q 710 1156 728 1171 q 660 1126 692 1140 q 622 1105 633 1114 q 610 1082 610 1096 l 610 1063 z "},"Ỡ":{"ha":1106,"x_min":64,"x_max":1043,"o":"m 1043 1086 q 1001 951 1043 1008 q 892 874 960 893 q 1043 490 1043 739 q 983 224 1043 338 q 813 49 924 111 q 554 -12 703 -12 q 294 49 404 -12 q 124 224 183 111 q 64 490 64 338 q 124 756 64 643 q 294 931 183 869 q 556 992 406 992 q 642 985 597 992 q 722 979 692 979 q 808 1010 783 979 q 832 1115 832 1040 l 832 1146 l 1043 1146 l 1043 1086 m 554 183 q 728 262 665 183 q 790 490 790 340 q 727 718 790 640 q 554 796 664 796 q 381 719 443 796 q 318 490 318 642 q 381 261 318 339 q 554 183 443 183 m 304 1064 q 350 1228 304 1174 q 465 1283 396 1283 q 511 1274 489 1283 q 567 1246 533 1265 q 611 1222 594 1229 q 644 1214 628 1214 q 683 1231 668 1214 q 701 1279 697 1247 l 801 1279 q 756 1115 801 1169 q 640 1060 710 1060 q 593 1069 617 1060 q 539 1099 569 1079 q 494 1123 511 1115 q 461 1131 478 1131 q 423 1114 438 1131 q 404 1064 408 1097 l 304 1064 z "},"Ő":{"ha":1106,"x_min":64,"x_max":1043,"o":"m 554 -12 q 294 49 404 -12 q 124 224 183 111 q 64 490 64 338 q 124 756 64 643 q 294 931 183 869 q 554 992 404 992 q 815 931 704 992 q 984 756 925 869 q 1043 490 1043 643 q 983 224 1043 338 q 813 49 924 111 q 554 -12 703 -12 m 554 183 q 728 262 665 183 q 790 490 790 340 q 727 718 790 640 q 554 796 664 796 q 381 719 443 796 q 318 490 318 642 q 381 261 318 339 q 554 183 443 183 m 392 1063 l 494 1281 l 650 1281 l 511 1063 l 392 1063 m 594 1063 l 697 1281 l 853 1281 l 714 1063 l 594 1063 z "},"Ȏ":{"ha":1106,"x_min":64,"x_max":1043,"o":"m 554 -12 q 294 49 404 -12 q 124 224 183 111 q 64 490 64 338 q 124 756 64 643 q 294 931 183 869 q 554 992 404 992 q 815 931 704 992 q 984 756 925 869 q 1043 490 1043 643 q 983 224 1043 338 q 813 49 924 111 q 554 -12 703 -12 m 554 183 q 728 262 665 183 q 790 490 790 340 q 727 718 790 640 q 554 796 664 796 q 381 719 443 796 q 318 490 318 642 q 381 261 318 339 q 554 183 443 183 m 553 1271 q 715 1231 649 1271 q 808 1118 782 1192 l 701 1074 q 553 1131 661 1131 q 404 1074 444 1131 l 297 1118 q 390 1231 324 1192 q 553 1271 457 1271 z "},"Ō":{"ha":1106,"x_min":64,"x_max":1043,"o":"m 554 -12 q 294 49 404 -12 q 124 224 183 111 q 64 490 64 338 q 124 756 64 643 q 294 931 183 869 q 554 992 404 992 q 815 931 704 992 q 984 756 925 869 q 1043 490 1043 643 q 983 224 1043 338 q 813 49 924 111 q 554 -12 703 -12 m 554 183 q 728 262 665 183 q 790 490 790 340 q 727 718 790 640 q 554 796 664 796 q 381 719 443 796 q 318 490 318 642 q 381 261 318 339 q 554 183 443 183 m 332 1246 l 774 1246 l 774 1097 l 332 1097 l 332 1246 z "},"Ṓ":{"ha":1106,"x_min":64,"x_max":1043,"o":"m 554 -12 q 294 49 404 -12 q 124 224 183 111 q 64 490 64 338 q 124 756 64 643 q 294 931 183 869 q 554 992 404 992 q 815 931 704 992 q 984 756 925 869 q 1043 490 1043 643 q 983 224 1043 338 q 813 49 924 111 q 554 -12 703 -12 m 554 183 q 728 262 665 183 q 790 490 790 340 q 727 718 790 640 q 554 796 664 796 q 381 719 443 796 q 318 490 318 642 q 381 261 318 339 q 554 183 443 183 m 332 1246 l 774 1246 l 774 1097 l 332 1097 l 332 1246 m 478 1285 l 622 1503 l 843 1503 l 628 1285 l 478 1285 z "},"Ṑ":{"ha":1106,"x_min":64,"x_max":1043,"o":"m 554 -12 q 294 49 404 -12 q 124 224 183 111 q 64 490 64 338 q 124 756 64 643 q 294 931 183 869 q 554 992 404 992 q 815 931 704 992 q 984 756 925 869 q 1043 490 1043 643 q 983 224 1043 338 q 813 49 924 111 q 554 -12 703 -12 m 554 183 q 728 262 665 183 q 790 490 790 340 q 727 718 790 640 q 554 796 664 796 q 381 719 443 796 q 318 490 318 642 q 381 261 318 339 q 554 183 443 183 m 332 1246 l 774 1246 l 774 1097 l 332 1097 l 332 1246 m 263 1503 l 483 1503 l 628 1285 l 478 1285 l 263 1503 z "},"Ǫ":{"ha":1106,"x_min":64,"x_max":1043,"o":"m 717 7 q 633 -83 633 -18 q 713 -153 633 -153 q 786 -139 749 -153 l 810 -249 q 663 -275 744 -275 q 532 -231 583 -275 q 481 -121 481 -187 q 521 -12 481 -57 q 278 58 381 -6 q 119 232 175 121 q 64 490 64 343 q 124 756 64 643 q 294 931 183 869 q 554 992 404 992 q 815 931 704 992 q 984 756 925 869 q 1043 490 1043 643 q 958 181 1043 307 q 717 7 872 54 m 554 183 q 728 262 665 183 q 790 490 790 340 q 727 718 790 640 q 554 796 664 796 q 381 719 443 796 q 318 490 318 642 q 381 261 318 339 q 554 183 443 183 z "},"Ø":{"ha":1106,"x_min":64,"x_max":1043,"o":"m 888 879 q 1003 713 963 813 q 1043 490 1043 614 q 983 224 1043 338 q 813 49 924 111 q 554 -12 703 -12 q 383 11 463 -12 l 315 -104 l 156 -8 l 219 101 q 104 267 144 168 q 64 490 64 367 q 124 756 64 643 q 294 931 183 869 q 554 992 404 992 q 724 968 644 992 l 790 1083 l 951 988 l 888 879 m 318 490 q 347 321 318 388 l 618 788 q 554 796 589 796 q 381 719 443 796 q 318 490 318 642 m 554 183 q 728 262 665 183 q 790 490 790 340 q 761 660 790 593 l 488 192 q 554 183 519 183 z "},"Ǿ":{"ha":1106,"x_min":64,"x_max":1043,"o":"m 888 879 q 1003 713 963 813 q 1043 490 1043 614 q 983 224 1043 338 q 813 49 924 111 q 554 -12 703 -12 q 383 11 463 -12 l 315 -104 l 156 -8 l 219 101 q 104 267 144 168 q 64 490 64 367 q 124 756 64 643 q 294 931 183 869 q 554 992 404 992 q 724 968 644 992 l 790 1083 l 951 988 l 888 879 m 318 490 q 347 321 318 388 l 618 788 q 554 796 589 796 q 381 719 443 796 q 318 490 318 642 m 554 183 q 728 262 665 183 q 790 490 790 340 q 761 660 790 593 l 488 192 q 554 183 519 183 m 478 1063 l 622 1281 l 843 1281 l 628 1063 l 478 1063 z "},"Õ":{"ha":1106,"x_min":64,"x_max":1043,"o":"m 554 -12 q 294 49 404 -12 q 124 224 183 111 q 64 490 64 338 q 124 756 64 643 q 294 931 183 869 q 554 992 404 992 q 815 931 704 992 q 984 756 925 869 q 1043 490 1043 643 q 983 224 1043 338 q 813 49 924 111 q 554 -12 703 -12 m 554 183 q 728 262 665 183 q 790 490 790 340 q 727 718 790 640 q 554 796 664 796 q 381 719 443 796 q 318 490 318 642 q 381 261 318 339 q 554 183 443 183 m 304 1064 q 350 1228 304 1174 q 465 1283 396 1283 q 511 1274 489 1283 q 567 1246 533 1265 q 611 1222 594 1229 q 644 1214 628 1214 q 683 1231 668 1214 q 701 1279 697 1247 l 801 1279 q 756 1115 801 1169 q 640 1060 710 1060 q 593 1069 617 1060 q 539 1099 569 1079 q 494 1123 511 1115 q 461 1131 478 1131 q 423 1114 438 1131 q 404 1064 408 1097 l 304 1064 z "},"Ṍ":{"ha":1106,"x_min":64,"x_max":1043,"o":"m 554 -12 q 294 49 404 -12 q 124 224 183 111 q 64 490 64 338 q 124 756 64 643 q 294 931 183 869 q 554 992 404 992 q 815 931 704 992 q 984 756 925 869 q 1043 490 1043 643 q 983 224 1043 338 q 813 49 924 111 q 554 -12 703 -12 m 554 183 q 728 262 665 183 q 790 490 790 340 q 727 718 790 640 q 554 796 664 796 q 381 719 443 796 q 318 490 318 642 q 381 261 318 339 q 554 183 443 183 m 304 1064 q 350 1228 304 1174 q 465 1283 396 1283 q 511 1274 489 1283 q 567 1246 533 1265 q 611 1222 594 1229 q 644 1214 628 1214 q 683 1231 668 1214 q 701 1279 697 1247 l 801 1279 q 756 1115 801 1169 q 640 1060 710 1060 q 593 1069 617 1060 q 539 1099 569 1079 q 494 1123 511 1115 q 461 1131 478 1131 q 423 1114 438 1131 q 404 1064 408 1097 l 304 1064 m 478 1285 l 622 1503 l 843 1503 l 628 1285 l 478 1285 z "},"Ṏ":{"ha":1106,"x_min":64,"x_max":1043,"o":"m 554 -12 q 294 49 404 -12 q 124 224 183 111 q 64 490 64 338 q 124 756 64 643 q 294 931 183 869 q 554 992 404 992 q 815 931 704 992 q 984 756 925 869 q 1043 490 1043 643 q 983 224 1043 338 q 813 49 924 111 q 554 -12 703 -12 m 554 183 q 728 262 665 183 q 790 490 790 340 q 727 718 790 640 q 554 796 664 796 q 381 719 443 796 q 318 490 318 642 q 381 261 318 339 q 554 183 443 183 m 304 1064 q 350 1228 304 1174 q 465 1283 396 1283 q 511 1274 489 1283 q 567 1246 533 1265 q 611 1222 594 1229 q 644 1214 628 1214 q 683 1231 668 1214 q 701 1279 697 1247 l 801 1279 q 756 1115 801 1169 q 640 1060 710 1060 q 593 1069 617 1060 q 539 1099 569 1079 q 494 1123 511 1115 q 461 1131 478 1131 q 423 1114 438 1131 q 404 1064 408 1097 l 304 1064 m 525 1499 l 525 1290 l 306 1290 l 306 1499 l 525 1499 m 800 1499 l 800 1290 l 581 1290 l 581 1499 l 800 1499 z "},"Ȭ":{"ha":1106,"x_min":64,"x_max":1043,"o":"m 554 -12 q 294 49 404 -12 q 124 224 183 111 q 64 490 64 338 q 124 756 64 643 q 294 931 183 869 q 554 992 404 992 q 815 931 704 992 q 984 756 925 869 q 1043 490 1043 643 q 983 224 1043 338 q 813 49 924 111 q 554 -12 703 -12 m 554 183 q 728 262 665 183 q 790 490 790 340 q 727 718 790 640 q 554 796 664 796 q 381 719 443 796 q 318 490 318 642 q 381 261 318 339 q 554 183 443 183 m 304 1064 q 350 1228 304 1174 q 465 1283 396 1283 q 511 1274 489 1283 q 567 1246 533 1265 q 611 1222 594 1229 q 644 1214 628 1214 q 683 1231 668 1214 q 701 1279 697 1247 l 801 1279 q 756 1115 801 1169 q 640 1060 710 1060 q 593 1069 617 1060 q 539 1099 569 1079 q 494 1123 511 1115 q 461 1131 478 1131 q 423 1114 438 1131 q 404 1064 408 1097 l 304 1064 m 332 1468 l 774 1468 l 774 1319 l 332 1319 l 332 1468 z "},"Œ":{"ha":1450,"x_min":64,"x_max":1404,"o":"m 586 0 q 305 58 422 0 q 126 227 188 117 q 64 490 64 338 q 126 752 64 642 q 306 921 189 863 q 586 979 424 979 l 1404 979 l 1404 782 l 956 782 l 956 596 l 1375 596 l 1375 400 l 956 400 l 956 197 l 1403 197 l 1403 0 l 586 0 m 707 197 l 707 782 l 603 782 q 390 709 463 782 q 318 490 318 636 q 603 197 318 197 l 707 197 z "},"P":{"ha":940,"x_min":89,"x_max":906,"o":"m 89 979 l 563 979 q 815 897 725 979 q 906 667 906 814 q 815 438 906 521 q 563 354 724 354 l 344 354 l 344 0 l 89 0 l 89 979 m 528 546 q 633 575 599 546 q 667 665 667 604 q 633 756 667 726 q 528 786 599 786 l 344 786 l 344 546 l 528 546 z "},"Þ":{"ha":943,"x_min":89,"x_max":906,"o":"m 561 789 q 814 711 722 789 q 906 497 906 633 q 813 284 906 363 q 561 206 721 206 l 339 206 l 339 0 l 89 0 l 89 979 l 339 979 l 339 789 l 561 789 m 517 399 q 631 422 596 399 q 667 497 667 444 q 631 572 667 549 q 517 596 594 596 l 339 596 l 339 399 l 517 399 z "},"Q":{"ha":1106,"x_min":64,"x_max":1043,"o":"m 813 50 q 925 -39 882 32 l 1033 -215 l 815 -314 l 660 -60 q 554 -12 631 -12 q 294 49 404 -12 q 124 224 183 111 q 64 490 64 338 q 124 756 64 643 q 294 931 183 869 q 554 992 404 992 q 815 931 704 992 q 984 756 925 869 q 1043 490 1043 643 q 983 225 1043 339 q 813 50 924 111 m 554 183 q 728 262 665 183 q 790 490 790 340 q 727 718 790 640 q 554 796 664 796 q 381 719 443 796 q 318 490 318 642 q 381 261 318 339 q 554 183 443 183 z "},"R":{"ha":982,"x_min":89,"x_max":969,"o":"m 969 0 l 689 0 l 519 313 q 418 367 488 367 l 340 367 l 340 0 l 89 0 l 89 979 l 556 979 q 823 902 733 979 q 913 679 913 825 q 851 491 913 568 q 679 388 790 414 q 814 278 764 369 l 969 0 m 515 558 q 637 585 600 558 q 674 671 674 611 q 637 759 674 732 q 515 786 600 786 l 338 786 l 338 558 l 515 558 z "},"Ŕ":{"ha":982,"x_min":89,"x_max":969,"o":"m 969 0 l 689 0 l 519 313 q 418 367 488 367 l 340 367 l 340 0 l 89 0 l 89 979 l 556 979 q 823 902 733 979 q 913 679 913 825 q 851 491 913 568 q 679 388 790 414 q 814 278 764 369 l 969 0 m 515 558 q 637 585 600 558 q 674 671 674 611 q 637 759 674 732 q 515 786 600 786 l 338 786 l 338 558 l 515 558 m 421 1063 l 565 1281 l 786 1281 l 571 1063 l 421 1063 z "},"Ř":{"ha":982,"x_min":89,"x_max":969,"o":"m 969 0 l 689 0 l 519 313 q 418 367 488 367 l 340 367 l 340 0 l 89 0 l 89 979 l 556 979 q 823 902 733 979 q 913 679 913 825 q 851 491 913 568 q 679 388 790 414 q 814 278 764 369 l 969 0 m 515 558 q 637 585 600 558 q 674 671 674 611 q 637 759 674 732 q 515 786 600 786 l 338 786 l 338 558 l 515 558 m 754 1281 l 564 1063 l 428 1063 l 238 1281 l 415 1281 l 496 1172 l 576 1281 l 754 1281 z "},"Ŗ":{"ha":982,"x_min":89,"x_max":969,"o":"m 969 0 l 689 0 l 519 313 q 418 367 488 367 l 340 367 l 340 0 l 89 0 l 89 979 l 556 979 q 823 902 733 979 q 913 679 913 825 q 851 491 913 568 q 679 388 790 414 q 814 278 764 369 l 969 0 m 515 558 q 637 585 600 558 q 674 671 674 611 q 637 759 674 732 q 515 786 600 786 l 338 786 l 338 558 l 515 558 m 614 -87 l 614 -181 q 594 -299 614 -249 q 525 -390 574 -349 l 442 -333 q 489 -262 478 -300 l 379 -262 l 379 -87 l 614 -87 z "},"Ȑ":{"ha":982,"x_min":89,"x_max":969,"o":"m 969 0 l 689 0 l 519 313 q 418 367 488 367 l 340 367 l 340 0 l 89 0 l 89 979 l 556 979 q 823 902 733 979 q 913 679 913 825 q 851 491 913 568 q 679 388 790 414 q 814 278 764 369 l 969 0 m 515 558 q 637 585 600 558 q 674 671 674 611 q 637 759 674 732 q 515 786 600 786 l 338 786 l 338 558 l 515 558 m 196 1281 l 351 1281 l 454 1063 l 335 1063 l 196 1281 m 399 1281 l 554 1281 l 657 1063 l 538 1063 l 399 1281 z "},"Ṛ":{"ha":982,"x_min":89,"x_max":969,"o":"m 969 0 l 689 0 l 519 313 q 418 367 488 367 l 340 367 l 340 0 l 89 0 l 89 979 l 556 979 q 823 902 733 979 q 913 679 913 825 q 851 491 913 568 q 679 388 790 414 q 814 278 764 369 l 969 0 m 515 558 q 637 585 600 558 q 674 671 674 611 q 637 759 674 732 q 515 786 600 786 l 338 786 l 338 558 l 515 558 m 606 -79 l 606 -285 l 389 -285 l 389 -79 l 606 -79 z "},"Ȓ":{"ha":982,"x_min":89,"x_max":969,"o":"m 969 0 l 689 0 l 519 313 q 418 367 488 367 l 340 367 l 340 0 l 89 0 l 89 979 l 556 979 q 823 902 733 979 q 913 679 913 825 q 851 491 913 568 q 679 388 790 414 q 814 278 764 369 l 969 0 m 515 558 q 637 585 600 558 q 674 671 674 611 q 637 759 674 732 q 515 786 600 786 l 338 786 l 338 558 l 515 558 m 496 1271 q 658 1231 592 1271 q 751 1118 725 1192 l 644 1074 q 496 1131 604 1131 q 347 1074 388 1131 l 240 1118 q 333 1231 267 1192 q 496 1271 400 1271 z "},"Ṟ":{"ha":982,"x_min":89,"x_max":969,"o":"m 969 0 l 689 0 l 519 313 q 418 367 488 367 l 340 367 l 340 0 l 89 0 l 89 979 l 556 979 q 823 902 733 979 q 913 679 913 825 q 851 491 913 568 q 679 388 790 414 q 814 278 764 369 l 969 0 m 515 558 q 637 585 600 558 q 674 671 674 611 q 637 759 674 732 q 515 786 600 786 l 338 786 l 338 558 l 515 558 m 276 -114 l 718 -114 l 718 -251 l 276 -251 l 276 -114 z "},"S":{"ha":922,"x_min":53,"x_max":867,"o":"m 443 -12 q 226 17 333 -12 q 53 94 119 46 l 132 275 q 283 207 203 231 q 446 183 364 183 q 573 206 529 183 q 617 271 617 229 q 577 332 617 308 q 426 379 538 356 q 211 449 289 408 q 102 543 133 489 q 71 676 71 597 q 122 838 71 767 q 265 951 172 910 q 476 992 357 992 q 681 962 582 992 q 836 885 781 932 l 758 704 q 478 796 625 796 q 364 769 407 796 q 321 697 321 742 q 336 654 321 671 q 393 622 351 638 q 517 589 435 606 q 726 519 650 560 q 835 424 803 478 q 867 294 867 369 q 756 69 867 150 q 443 -12 644 -12 z "},"Ś":{"ha":922,"x_min":53,"x_max":867,"o":"m 443 -12 q 226 17 333 -12 q 53 94 119 46 l 132 275 q 283 207 203 231 q 446 183 364 183 q 573 206 529 183 q 617 271 617 229 q 577 332 617 308 q 426 379 538 356 q 211 449 289 408 q 102 543 133 489 q 71 676 71 597 q 122 838 71 767 q 265 951 172 910 q 476 992 357 992 q 681 962 582 992 q 836 885 781 932 l 758 704 q 478 796 625 796 q 364 769 407 796 q 321 697 321 742 q 336 654 321 671 q 393 622 351 638 q 517 589 435 606 q 726 519 650 560 q 835 424 803 478 q 867 294 867 369 q 756 69 867 150 q 443 -12 644 -12 m 392 1063 l 536 1281 l 757 1281 l 542 1063 l 392 1063 z "},"Ṥ":{"ha":922,"x_min":53,"x_max":867,"o":"m 443 -12 q 226 17 333 -12 q 53 94 119 46 l 132 275 q 283 207 203 231 q 446 183 364 183 q 573 206 529 183 q 617 271 617 229 q 577 332 617 308 q 426 379 538 356 q 211 449 289 408 q 102 543 133 489 q 71 676 71 597 q 122 838 71 767 q 265 951 172 910 q 476 992 357 992 q 681 962 582 992 q 836 885 781 932 l 758 704 q 478 796 625 796 q 364 769 407 796 q 321 697 321 742 q 336 654 321 671 q 393 622 351 638 q 517 589 435 606 q 726 519 650 560 q 835 424 803 478 q 867 294 867 369 q 756 69 867 150 q 443 -12 644 -12 m 438 1063 l 582 1281 l 803 1281 l 588 1063 l 438 1063 m 421 1279 l 421 1057 l 163 1057 l 163 1279 l 421 1279 z "},"Š":{"ha":922,"x_min":53,"x_max":867,"o":"m 443 -12 q 226 17 333 -12 q 53 94 119 46 l 132 275 q 283 207 203 231 q 446 183 364 183 q 573 206 529 183 q 617 271 617 229 q 577 332 617 308 q 426 379 538 356 q 211 449 289 408 q 102 543 133 489 q 71 676 71 597 q 122 838 71 767 q 265 951 172 910 q 476 992 357 992 q 681 962 582 992 q 836 885 781 932 l 758 704 q 478 796 625 796 q 364 769 407 796 q 321 697 321 742 q 336 654 321 671 q 393 622 351 638 q 517 589 435 606 q 726 519 650 560 q 835 424 803 478 q 867 294 867 369 q 756 69 867 150 q 443 -12 644 -12 m 725 1281 l 535 1063 l 399 1063 l 208 1281 l 386 1281 l 467 1172 l 547 1281 l 725 1281 z "},"Ṧ":{"ha":922,"x_min":53,"x_max":867,"o":"m 443 -12 q 226 17 333 -12 q 53 94 119 46 l 132 275 q 283 207 203 231 q 446 183 364 183 q 573 206 529 183 q 617 271 617 229 q 577 332 617 308 q 426 379 538 356 q 211 449 289 408 q 102 543 133 489 q 71 676 71 597 q 122 838 71 767 q 265 951 172 910 q 476 992 357 992 q 681 962 582 992 q 836 885 781 932 l 758 704 q 478 796 625 796 q 364 769 407 796 q 321 697 321 742 q 336 654 321 671 q 393 622 351 638 q 517 589 435 606 q 726 519 650 560 q 835 424 803 478 q 867 294 867 369 q 756 69 867 150 q 443 -12 644 -12 m 725 1281 l 535 1063 l 399 1063 l 208 1281 l 386 1281 l 467 1172 l 547 1281 l 725 1281 m 596 1506 l 596 1283 l 338 1283 l 338 1506 l 596 1506 z "},"Ş":{"ha":922,"x_min":53,"x_max":867,"o":"m 867 294 q 772 82 867 163 q 504 -11 678 1 l 496 -56 l 508 -56 q 597 -81 565 -56 q 628 -151 628 -107 q 577 -241 628 -207 q 431 -275 526 -275 q 364 -269 401 -275 q 299 -251 326 -262 l 313 -162 q 424 -182 379 -182 q 482 -151 482 -182 q 439 -128 482 -128 q 394 -135 422 -128 l 367 -104 l 379 -10 q 197 25 285 -3 q 53 94 110 53 l 132 275 q 283 207 203 231 q 446 183 364 183 q 573 206 529 183 q 617 271 617 229 q 577 332 617 308 q 426 379 538 356 q 211 449 289 408 q 102 543 133 489 q 71 676 71 597 q 122 838 71 767 q 265 951 172 910 q 476 992 357 992 q 681 962 582 992 q 836 885 781 932 l 758 704 q 478 796 625 796 q 364 769 407 796 q 321 697 321 742 q 336 654 321 671 q 393 622 351 638 q 517 589 435 606 q 726 519 650 560 q 835 424 803 478 q 867 294 867 369 z "},"Ŝ":{"ha":922,"x_min":53,"x_max":867,"o":"m 443 -12 q 226 17 333 -12 q 53 94 119 46 l 132 275 q 283 207 203 231 q 446 183 364 183 q 573 206 529 183 q 617 271 617 229 q 577 332 617 308 q 426 379 538 356 q 211 449 289 408 q 102 543 133 489 q 71 676 71 597 q 122 838 71 767 q 265 951 172 910 q 476 992 357 992 q 681 962 582 992 q 836 885 781 932 l 758 704 q 478 796 625 796 q 364 769 407 796 q 321 697 321 742 q 336 654 321 671 q 393 622 351 638 q 517 589 435 606 q 726 519 650 560 q 835 424 803 478 q 867 294 867 369 q 756 69 867 150 q 443 -12 644 -12 m 208 1063 l 399 1281 l 535 1281 l 725 1063 l 547 1063 l 467 1171 l 386 1063 l 208 1063 z "},"Ș":{"ha":922,"x_min":53,"x_max":867,"o":"m 443 -12 q 226 17 333 -12 q 53 94 119 46 l 132 275 q 283 207 203 231 q 446 183 364 183 q 573 206 529 183 q 617 271 617 229 q 577 332 617 308 q 426 379 538 356 q 211 449 289 408 q 102 543 133 489 q 71 676 71 597 q 122 838 71 767 q 265 951 172 910 q 476 992 357 992 q 681 962 582 992 q 836 885 781 932 l 758 704 q 478 796 625 796 q 364 769 407 796 q 321 697 321 742 q 336 654 321 671 q 393 622 351 638 q 517 589 435 606 q 726 519 650 560 q 835 424 803 478 q 867 294 867 369 q 756 69 867 150 q 443 -12 644 -12 m 574 -87 l 574 -181 q 553 -299 574 -249 q 485 -390 533 -349 l 401 -333 q 449 -262 438 -300 l 339 -262 l 339 -87 l 574 -87 z "},"Ṡ":{"ha":922,"x_min":53,"x_max":867,"o":"m 443 -12 q 226 17 333 -12 q 53 94 119 46 l 132 275 q 283 207 203 231 q 446 183 364 183 q 573 206 529 183 q 617 271 617 229 q 577 332 617 308 q 426 379 538 356 q 211 449 289 408 q 102 543 133 489 q 71 676 71 597 q 122 838 71 767 q 265 951 172 910 q 476 992 357 992 q 681 962 582 992 q 836 885 781 932 l 758 704 q 478 796 625 796 q 364 769 407 796 q 321 697 321 742 q 336 654 321 671 q 393 622 351 638 q 517 589 435 606 q 726 519 650 560 q 835 424 803 478 q 867 294 867 369 q 756 69 867 150 q 443 -12 644 -12 m 596 1283 l 596 1061 l 338 1061 l 338 1283 l 596 1283 z "},"Ṣ":{"ha":922,"x_min":53,"x_max":867,"o":"m 443 -12 q 226 17 333 -12 q 53 94 119 46 l 132 275 q 283 207 203 231 q 446 183 364 183 q 573 206 529 183 q 617 271 617 229 q 577 332 617 308 q 426 379 538 356 q 211 449 289 408 q 102 543 133 489 q 71 676 71 597 q 122 838 71 767 q 265 951 172 910 q 476 992 357 992 q 681 962 582 992 q 836 885 781 932 l 758 704 q 478 796 625 796 q 364 769 407 796 q 321 697 321 742 q 336 654 321 671 q 393 622 351 638 q 517 589 435 606 q 726 519 650 560 q 835 424 803 478 q 867 294 867 369 q 756 69 867 150 q 443 -12 644 -12 m 565 -79 l 565 -285 l 349 -285 l 349 -79 l 565 -79 z "},"Ṩ":{"ha":922,"x_min":53,"x_max":867,"o":"m 443 -12 q 226 17 333 -12 q 53 94 119 46 l 132 275 q 283 207 203 231 q 446 183 364 183 q 573 206 529 183 q 617 271 617 229 q 577 332 617 308 q 426 379 538 356 q 211 449 289 408 q 102 543 133 489 q 71 676 71 597 q 122 838 71 767 q 265 951 172 910 q 476 992 357 992 q 681 962 582 992 q 836 885 781 932 l 758 704 q 478 796 625 796 q 364 769 407 796 q 321 697 321 742 q 336 654 321 671 q 393 622 351 638 q 517 589 435 606 q 726 519 650 560 q 835 424 803 478 q 867 294 867 369 q 756 69 867 150 q 443 -12 644 -12 m 565 -79 l 565 -285 l 349 -285 l 349 -79 l 565 -79 m 596 1283 l 596 1061 l 338 1061 l 338 1283 l 596 1283 z "},"ẞ":{"ha":999,"x_min":89,"x_max":958,"o":"m 754 511 q 904 429 850 492 q 958 275 958 367 q 917 131 958 196 q 805 28 876 65 q 644 -8 733 -8 q 499 9 561 -8 q 381 67 438 26 l 444 244 q 629 178 554 178 q 694 206 669 178 q 718 285 718 235 q 681 371 718 346 q 550 396 643 396 l 426 396 l 426 593 l 531 593 q 646 686 646 593 q 610 765 646 736 q 513 793 574 793 q 385 746 431 793 q 339 614 339 699 l 339 0 l 89 0 l 89 606 q 203 888 89 786 q 519 989 317 989 q 711 955 629 989 q 838 858 793 921 q 882 710 882 794 q 848 592 882 644 q 754 511 814 539 z "},"Ə":{"ha":1079,"x_min":64,"x_max":1015,"o":"m 507 992 q 776 930 661 992 q 953 755 890 868 q 1015 490 1015 642 q 958 231 1015 346 q 796 52 900 117 q 557 -12 692 -12 q 194 119 325 -12 q 64 497 64 251 l 64 592 l 753 592 q 496 790 711 790 q 218 704 344 790 l 139 885 q 306 963 204 933 q 507 992 407 992 m 549 183 q 757 399 728 183 l 321 399 q 393 238 335 292 q 549 183 451 183 z "},"T":{"ha":878,"x_min":17,"x_max":861,"o":"m 310 772 l 17 772 l 17 979 l 861 979 l 861 772 l 568 772 l 568 0 l 310 0 l 310 772 z "},"Ŧ":{"ha":878,"x_min":17,"x_max":861,"o":"m 568 772 l 568 590 l 751 590 l 751 397 l 568 397 l 568 0 l 310 0 l 310 397 l 125 397 l 125 590 l 310 590 l 310 772 l 17 772 l 17 979 l 861 979 l 861 772 l 568 772 z "},"Ť":{"ha":878,"x_min":17,"x_max":861,"o":"m 310 772 l 17 772 l 17 979 l 861 979 l 861 772 l 568 772 l 568 0 l 310 0 l 310 772 m 697 1281 l 507 1063 l 371 1063 l 181 1281 l 358 1281 l 439 1172 l 519 1281 l 697 1281 z "},"Ţ":{"ha":878,"x_min":17,"x_max":861,"o":"m 488 0 l 478 -56 l 490 -56 q 578 -81 547 -56 q 610 -151 610 -107 q 559 -241 610 -207 q 413 -275 508 -275 q 346 -269 383 -275 q 281 -251 308 -262 l 294 -162 q 406 -182 361 -182 q 464 -151 464 -182 q 421 -128 464 -128 q 376 -135 404 -128 l 349 -104 l 361 0 l 310 0 l 310 772 l 17 772 l 17 979 l 861 979 l 861 772 l 568 772 l 568 0 l 488 0 z "},"Ț":{"ha":878,"x_min":17,"x_max":861,"o":"m 310 772 l 17 772 l 17 979 l 861 979 l 861 772 l 568 772 l 568 0 l 310 0 l 310 772 m 556 -87 l 556 -181 q 535 -299 556 -249 q 467 -390 515 -349 l 383 -333 q 431 -262 419 -300 l 321 -262 l 321 -87 l 556 -87 z "},"Ṭ":{"ha":878,"x_min":17,"x_max":861,"o":"m 310 772 l 17 772 l 17 979 l 861 979 l 861 772 l 568 772 l 568 0 l 310 0 l 310 772 m 547 -79 l 547 -285 l 331 -285 l 331 -79 l 547 -79 z "},"Ṯ":{"ha":878,"x_min":17,"x_max":861,"o":"m 310 772 l 17 772 l 17 979 l 861 979 l 861 772 l 568 772 l 568 0 l 310 0 l 310 772 m 218 -114 l 660 -114 l 660 -251 l 218 -251 l 218 -114 z "},"U":{"ha":1035,"x_min":83,"x_max":951,"o":"m 517 -12 q 194 96 304 -12 q 83 413 83 204 l 83 979 l 333 979 l 333 403 q 381 240 333 297 q 517 183 428 183 q 653 240 606 183 q 700 403 700 297 l 700 979 l 951 979 l 951 413 q 840 97 951 206 q 517 -12 728 -12 z "},"Ú":{"ha":1035,"x_min":83,"x_max":951,"o":"m 517 -12 q 194 96 304 -12 q 83 413 83 204 l 83 979 l 333 979 l 333 403 q 381 240 333 297 q 517 183 428 183 q 653 240 606 183 q 700 403 700 297 l 700 979 l 951 979 l 951 413 q 840 97 951 206 q 517 -12 728 -12 m 442 1063 l 586 1281 l 807 1281 l 592 1063 l 442 1063 z "},"Ŭ":{"ha":1035,"x_min":83,"x_max":951,"o":"m 517 -12 q 194 96 304 -12 q 83 413 83 204 l 83 979 l 333 979 l 333 403 q 381 240 333 297 q 517 183 428 183 q 653 240 606 183 q 700 403 700 297 l 700 979 l 951 979 l 951 413 q 840 97 951 206 q 517 -12 728 -12 m 517 1074 q 355 1114 422 1074 q 261 1226 288 1154 l 368 1271 q 517 1214 408 1214 q 665 1271 625 1214 l 772 1226 q 678 1114 746 1154 q 517 1074 611 1074 z "},"Û":{"ha":1035,"x_min":83,"x_max":951,"o":"m 517 -12 q 194 96 304 -12 q 83 413 83 204 l 83 979 l 333 979 l 333 403 q 381 240 333 297 q 517 183 428 183 q 653 240 606 183 q 700 403 700 297 l 700 979 l 951 979 l 951 413 q 840 97 951 206 q 517 -12 728 -12 m 258 1063 l 449 1281 l 585 1281 l 775 1063 l 597 1063 l 517 1171 l 436 1063 l 258 1063 z "},"Ȕ":{"ha":1035,"x_min":83,"x_max":951,"o":"m 517 -12 q 194 96 304 -12 q 83 413 83 204 l 83 979 l 333 979 l 333 403 q 381 240 333 297 q 517 183 428 183 q 653 240 606 183 q 700 403 700 297 l 700 979 l 951 979 l 951 413 q 840 97 951 206 q 517 -12 728 -12 m 217 1281 l 372 1281 l 475 1063 l 356 1063 l 217 1281 m 419 1281 l 575 1281 l 678 1063 l 558 1063 l 419 1281 z "},"Ü":{"ha":1035,"x_min":83,"x_max":951,"o":"m 517 -12 q 194 96 304 -12 q 83 413 83 204 l 83 979 l 333 979 l 333 403 q 381 240 333 297 q 517 183 428 183 q 653 240 606 183 q 700 403 700 297 l 700 979 l 951 979 l 951 413 q 840 97 951 206 q 517 -12 728 -12 m 489 1276 l 489 1068 l 269 1068 l 269 1276 l 489 1276 m 764 1276 l 764 1068 l 544 1068 l 544 1276 l 764 1276 z "},"Ụ":{"ha":1035,"x_min":83,"x_max":951,"o":"m 517 -12 q 194 96 304 -12 q 83 413 83 204 l 83 979 l 333 979 l 333 403 q 381 240 333 297 q 517 183 428 183 q 653 240 606 183 q 700 403 700 297 l 700 979 l 951 979 l 951 413 q 840 97 951 206 q 517 -12 728 -12 m 625 -79 l 625 -285 l 408 -285 l 408 -79 l 625 -79 z "},"Ù":{"ha":1035,"x_min":83,"x_max":951,"o":"m 517 -12 q 194 96 304 -12 q 83 413 83 204 l 83 979 l 333 979 l 333 403 q 381 240 333 297 q 517 183 428 183 q 653 240 606 183 q 700 403 700 297 l 700 979 l 951 979 l 951 413 q 840 97 951 206 q 517 -12 728 -12 m 226 1281 l 447 1281 l 592 1063 l 442 1063 l 226 1281 z "},"Ủ":{"ha":1035,"x_min":83,"x_max":951,"o":"m 517 -12 q 194 96 304 -12 q 83 413 83 204 l 83 979 l 333 979 l 333 403 q 381 240 333 297 q 517 183 428 183 q 653 240 606 183 q 700 403 700 297 l 700 979 l 951 979 l 951 413 q 840 97 951 206 q 517 -12 728 -12 m 574 1063 l 460 1063 l 460 1094 q 476 1132 460 1119 q 521 1157 492 1144 q 549 1176 549 1167 q 507 1199 549 1199 q 431 1183 472 1199 l 400 1261 q 539 1286 463 1286 q 649 1260 607 1286 q 692 1197 692 1233 q 674 1156 692 1171 q 624 1126 656 1140 q 585 1105 597 1114 q 574 1082 574 1096 l 574 1063 z "},"Ư":{"ha":1035,"x_min":83,"x_max":1104,"o":"m 1104 1146 l 1104 1086 q 1063 950 1104 1007 q 951 874 1021 893 l 951 413 q 840 97 951 206 q 517 -12 728 -12 q 194 96 304 -12 q 83 413 83 204 l 83 979 l 333 979 l 333 403 q 381 240 333 297 q 517 183 428 183 q 653 240 606 183 q 700 403 700 297 l 700 979 l 774 979 q 867 1008 842 979 q 893 1115 893 1038 l 893 1146 l 1104 1146 z "},"Ứ":{"ha":1035,"x_min":83,"x_max":1104,"o":"m 1104 1146 l 1104 1086 q 1063 950 1104 1007 q 951 874 1021 893 l 951 413 q 840 97 951 206 q 517 -12 728 -12 q 194 96 304 -12 q 83 413 83 204 l 83 979 l 333 979 l 333 403 q 381 240 333 297 q 517 183 428 183 q 653 240 606 183 q 700 403 700 297 l 700 979 l 774 979 q 867 1008 842 979 q 893 1115 893 1038 l 893 1146 l 1104 1146 m 442 1063 l 586 1281 l 807 1281 l 592 1063 l 442 1063 z "},"Ự":{"ha":1035,"x_min":83,"x_max":1104,"o":"m 1104 1146 l 1104 1086 q 1063 950 1104 1007 q 951 874 1021 893 l 951 413 q 840 97 951 206 q 517 -12 728 -12 q 194 96 304 -12 q 83 413 83 204 l 83 979 l 333 979 l 333 403 q 381 240 333 297 q 517 183 428 183 q 653 240 606 183 q 700 403 700 297 l 700 979 l 774 979 q 867 1008 842 979 q 893 1115 893 1038 l 893 1146 l 1104 1146 m 625 -79 l 625 -285 l 408 -285 l 408 -79 l 625 -79 z "},"Ừ":{"ha":1035,"x_min":83,"x_max":1104,"o":"m 1104 1146 l 1104 1086 q 1063 950 1104 1007 q 951 874 1021 893 l 951 413 q 840 97 951 206 q 517 -12 728 -12 q 194 96 304 -12 q 83 413 83 204 l 83 979 l 333 979 l 333 403 q 381 240 333 297 q 517 183 428 183 q 653 240 606 183 q 700 403 700 297 l 700 979 l 774 979 q 867 1008 842 979 q 893 1115 893 1038 l 893 1146 l 1104 1146 m 226 1281 l 447 1281 l 592 1063 l 442 1063 l 226 1281 z "},"Ử":{"ha":1035,"x_min":83,"x_max":1104,"o":"m 1104 1146 l 1104 1086 q 1063 950 1104 1007 q 951 874 1021 893 l 951 413 q 840 97 951 206 q 517 -12 728 -12 q 194 96 304 -12 q 83 413 83 204 l 83 979 l 333 979 l 333 403 q 381 240 333 297 q 517 183 428 183 q 653 240 606 183 q 700 403 700 297 l 700 979 l 774 979 q 867 1008 842 979 q 893 1115 893 1038 l 893 1146 l 1104 1146 m 574 1063 l 460 1063 l 460 1094 q 476 1132 460 1119 q 521 1157 492 1144 q 549 1176 549 1167 q 507 1199 549 1199 q 431 1183 472 1199 l 400 1261 q 539 1286 463 1286 q 649 1260 607 1286 q 692 1197 692 1233 q 674 1156 692 1171 q 624 1126 656 1140 q 585 1105 597 1114 q 574 1082 574 1096 l 574 1063 z "},"Ữ":{"ha":1035,"x_min":83,"x_max":1104,"o":"m 1104 1146 l 1104 1086 q 1063 950 1104 1007 q 951 874 1021 893 l 951 413 q 840 97 951 206 q 517 -12 728 -12 q 194 96 304 -12 q 83 413 83 204 l 83 979 l 333 979 l 333 403 q 381 240 333 297 q 517 183 428 183 q 653 240 606 183 q 700 403 700 297 l 700 979 l 774 979 q 867 1008 842 979 q 893 1115 893 1038 l 893 1146 l 1104 1146 m 268 1064 q 314 1228 268 1174 q 429 1283 360 1283 q 475 1274 453 1283 q 531 1246 497 1265 q 575 1222 558 1229 q 608 1214 592 1214 q 647 1231 632 1214 q 665 1279 661 1247 l 765 1279 q 719 1115 765 1169 q 604 1060 674 1060 q 557 1069 581 1060 q 503 1099 533 1079 q 458 1123 475 1115 q 425 1131 442 1131 q 387 1114 401 1131 q 368 1064 372 1097 l 268 1064 z "},"Ű":{"ha":1035,"x_min":83,"x_max":951,"o":"m 517 -12 q 194 96 304 -12 q 83 413 83 204 l 83 979 l 333 979 l 333 403 q 381 240 333 297 q 517 183 428 183 q 653 240 606 183 q 700 403 700 297 l 700 979 l 951 979 l 951 413 q 840 97 951 206 q 517 -12 728 -12 m 356 1063 l 458 1281 l 614 1281 l 475 1063 l 356 1063 m 558 1063 l 661 1281 l 817 1281 l 678 1063 l 558 1063 z "},"Ȗ":{"ha":1035,"x_min":83,"x_max":951,"o":"m 517 -12 q 194 96 304 -12 q 83 413 83 204 l 83 979 l 333 979 l 333 403 q 381 240 333 297 q 517 183 428 183 q 653 240 606 183 q 700 403 700 297 l 700 979 l 951 979 l 951 413 q 840 97 951 206 q 517 -12 728 -12 m 517 1271 q 679 1231 613 1271 q 772 1118 746 1192 l 665 1074 q 517 1131 625 1131 q 368 1074 408 1131 l 261 1118 q 354 1231 288 1192 q 517 1271 421 1271 z "},"Ū":{"ha":1035,"x_min":83,"x_max":951,"o":"m 517 -12 q 194 96 304 -12 q 83 413 83 204 l 83 979 l 333 979 l 333 403 q 381 240 333 297 q 517 183 428 183 q 653 240 606 183 q 700 403 700 297 l 700 979 l 951 979 l 951 413 q 840 97 951 206 q 517 -12 728 -12 m 296 1246 l 738 1246 l 738 1097 l 296 1097 l 296 1246 z "},"Ṻ":{"ha":1035,"x_min":83,"x_max":951,"o":"m 517 -12 q 194 96 304 -12 q 83 413 83 204 l 83 979 l 333 979 l 333 403 q 381 240 333 297 q 517 183 428 183 q 653 240 606 183 q 700 403 700 297 l 700 979 l 951 979 l 951 413 q 840 97 951 206 q 517 -12 728 -12 m 296 1246 l 738 1246 l 738 1097 l 296 1097 l 296 1246 m 489 1499 l 489 1290 l 269 1290 l 269 1499 l 489 1499 m 764 1499 l 764 1290 l 544 1290 l 544 1499 l 764 1499 z "},"Ų":{"ha":1035,"x_min":83,"x_max":951,"o":"m 951 979 l 951 413 q 882 146 951 249 q 676 7 813 43 q 620 -27 640 -3 q 600 -83 600 -51 q 681 -153 600 -153 q 753 -139 717 -153 l 778 -249 q 631 -275 713 -275 q 500 -231 551 -275 q 449 -121 449 -187 q 460 -63 449 -92 q 492 -12 471 -35 q 187 103 290 -6 q 83 413 83 211 l 83 979 l 333 979 l 333 403 q 381 240 333 297 q 517 183 428 183 q 653 240 606 183 q 700 403 700 297 l 700 979 l 951 979 z "},"Ů":{"ha":1035,"x_min":83,"x_max":951,"o":"m 517 -12 q 194 96 304 -12 q 83 413 83 204 l 83 979 l 333 979 l 333 403 q 381 240 333 297 q 517 183 428 183 q 653 240 606 183 q 700 403 700 297 l 700 979 l 951 979 l 951 413 q 840 97 951 206 q 517 -12 728 -12 m 517 1056 q 406 1100 451 1056 q 360 1210 360 1144 q 406 1318 360 1274 q 517 1363 451 1363 q 628 1318 582 1363 q 674 1210 674 1274 q 628 1100 674 1144 q 517 1056 582 1056 m 517 1149 q 558 1166 542 1149 q 574 1210 574 1183 q 558 1252 574 1235 q 517 1269 542 1269 q 476 1252 492 1269 q 460 1210 460 1235 q 476 1166 460 1183 q 517 1149 492 1149 z "},"Ũ":{"ha":1035,"x_min":83,"x_max":951,"o":"m 517 -12 q 194 96 304 -12 q 83 413 83 204 l 83 979 l 333 979 l 333 403 q 381 240 333 297 q 517 183 428 183 q 653 240 606 183 q 700 403 700 297 l 700 979 l 951 979 l 951 413 q 840 97 951 206 q 517 -12 728 -12 m 268 1064 q 314 1228 268 1174 q 429 1283 360 1283 q 475 1274 453 1283 q 531 1246 497 1265 q 575 1222 558 1229 q 608 1214 592 1214 q 647 1231 632 1214 q 665 1279 661 1247 l 765 1279 q 719 1115 765 1169 q 604 1060 674 1060 q 557 1069 581 1060 q 503 1099 533 1079 q 458 1123 475 1115 q 425 1131 442 1131 q 387 1114 401 1131 q 368 1064 372 1097 l 268 1064 z "},"Ṹ":{"ha":1035,"x_min":83,"x_max":951,"o":"m 517 -12 q 194 96 304 -12 q 83 413 83 204 l 83 979 l 333 979 l 333 403 q 381 240 333 297 q 517 183 428 183 q 653 240 606 183 q 700 403 700 297 l 700 979 l 951 979 l 951 413 q 840 97 951 206 q 517 -12 728 -12 m 268 1064 q 314 1228 268 1174 q 429 1283 360 1283 q 475 1274 453 1283 q 531 1246 497 1265 q 575 1222 558 1229 q 608 1214 592 1214 q 647 1231 632 1214 q 665 1279 661 1247 l 765 1279 q 719 1115 765 1169 q 604 1060 674 1060 q 557 1069 581 1060 q 503 1099 533 1079 q 458 1123 475 1115 q 425 1131 442 1131 q 387 1114 401 1131 q 368 1064 372 1097 l 268 1064 m 442 1285 l 586 1503 l 807 1503 l 592 1285 l 442 1285 z "},"V":{"ha":1032,"x_min":-32,"x_max":1063,"o":"m 1063 979 l 617 0 l 414 0 l -32 979 l 233 979 l 518 318 l 804 979 l 1063 979 z "},"W":{"ha":1557,"x_min":17,"x_max":1539,"o":"m 1539 979 l 1189 0 l 986 0 l 779 588 l 569 0 l 365 0 l 17 979 l 276 979 l 479 358 l 699 979 l 875 979 l 1085 347 l 1297 979 l 1539 979 z "},"Ẃ":{"ha":1557,"x_min":17,"x_max":1539,"o":"m 1539 979 l 1189 0 l 986 0 l 779 588 l 569 0 l 365 0 l 17 979 l 276 979 l 479 358 l 699 979 l 875 979 l 1085 347 l 1297 979 l 1539 979 m 703 1063 l 847 1281 l 1068 1281 l 853 1063 l 703 1063 z "},"Ŵ":{"ha":1557,"x_min":17,"x_max":1539,"o":"m 1539 979 l 1189 0 l 986 0 l 779 588 l 569 0 l 365 0 l 17 979 l 276 979 l 479 358 l 699 979 l 875 979 l 1085 347 l 1297 979 l 1539 979 m 519 1063 l 710 1281 l 846 1281 l 1036 1063 l 858 1063 l 778 1171 l 697 1063 l 519 1063 z "},"Ẅ":{"ha":1557,"x_min":17,"x_max":1539,"o":"m 1539 979 l 1189 0 l 986 0 l 779 588 l 569 0 l 365 0 l 17 979 l 276 979 l 479 358 l 699 979 l 875 979 l 1085 347 l 1297 979 l 1539 979 m 750 1276 l 750 1068 l 531 1068 l 531 1276 l 750 1276 m 1025 1276 l 1025 1068 l 806 1068 l 806 1276 l 1025 1276 z "},"Ẁ":{"ha":1557,"x_min":17,"x_max":1539,"o":"m 1539 979 l 1189 0 l 986 0 l 779 588 l 569 0 l 365 0 l 17 979 l 276 979 l 479 358 l 699 979 l 875 979 l 1085 347 l 1297 979 l 1539 979 m 488 1281 l 708 1281 l 853 1063 l 703 1063 l 488 1281 z "},"X":{"ha":953,"x_min":-43,"x_max":994,"o":"m 994 0 l 696 0 l 475 308 l 253 0 l -43 0 l 331 494 l -36 979 l 261 979 l 475 679 l 692 979 l 988 979 l 619 494 l 994 0 z "},"Y":{"ha":903,"x_min":-87,"x_max":993,"o":"m 579 436 l 579 0 l 324 0 l 324 436 l -87 979 l 200 979 l 450 639 l 703 979 l 993 979 l 579 436 z "},"Ý":{"ha":903,"x_min":-87,"x_max":993,"o":"m 579 436 l 579 0 l 324 0 l 324 436 l -87 979 l 200 979 l 450 639 l 703 979 l 993 979 l 579 436 m 376 1063 l 521 1281 l 742 1281 l 526 1063 l 376 1063 z "},"Ŷ":{"ha":903,"x_min":-87,"x_max":993,"o":"m 579 436 l 579 0 l 324 0 l 324 436 l -87 979 l 200 979 l 450 639 l 703 979 l 993 979 l 579 436 m 193 1063 l 383 1281 l 519 1281 l 710 1063 l 532 1063 l 451 1171 l 371 1063 l 193 1063 z "},"Ÿ":{"ha":903,"x_min":-87,"x_max":993,"o":"m 579 436 l 579 0 l 324 0 l 324 436 l -87 979 l 200 979 l 450 639 l 703 979 l 993 979 l 579 436 m 424 1276 l 424 1068 l 204 1068 l 204 1276 l 424 1276 m 699 1276 l 699 1068 l 479 1068 l 479 1276 l 699 1276 z "},"Ẏ":{"ha":903,"x_min":-87,"x_max":993,"o":"m 579 436 l 579 0 l 324 0 l 324 436 l -87 979 l 200 979 l 450 639 l 703 979 l 993 979 l 579 436 m 581 1283 l 581 1061 l 322 1061 l 322 1283 l 581 1283 z "},"Ỵ":{"ha":903,"x_min":-87,"x_max":993,"o":"m 579 436 l 579 0 l 324 0 l 324 436 l -87 979 l 200 979 l 450 639 l 703 979 l 993 979 l 579 436 m 561 -79 l 561 -285 l 344 -285 l 344 -79 l 561 -79 z "},"Ỳ":{"ha":903,"x_min":-87,"x_max":993,"o":"m 579 436 l 579 0 l 324 0 l 324 436 l -87 979 l 200 979 l 450 639 l 703 979 l 993 979 l 579 436 m 161 1281 l 382 1281 l 526 1063 l 376 1063 l 161 1281 z "},"Ỷ":{"ha":903,"x_min":-87,"x_max":993,"o":"m 579 436 l 579 0 l 324 0 l 324 436 l -87 979 l 200 979 l 450 639 l 703 979 l 993 979 l 579 436 m 508 1063 l 394 1063 l 394 1094 q 410 1132 394 1119 q 456 1157 426 1144 q 483 1176 483 1167 q 442 1199 483 1199 q 365 1183 407 1199 l 335 1261 q 474 1286 397 1286 q 584 1260 542 1286 q 626 1197 626 1233 q 608 1156 626 1171 q 558 1126 590 1140 q 520 1105 532 1114 q 508 1082 508 1096 l 508 1063 z "},"Ȳ":{"ha":903,"x_min":-87,"x_max":993,"o":"m 579 436 l 579 0 l 324 0 l 324 436 l -87 979 l 200 979 l 450 639 l 703 979 l 993 979 l 579 436 m 231 1246 l 672 1246 l 672 1097 l 231 1097 l 231 1246 z "},"Ỹ":{"ha":903,"x_min":-87,"x_max":993,"o":"m 579 436 l 579 0 l 324 0 l 324 436 l -87 979 l 200 979 l 450 639 l 703 979 l 993 979 l 579 436 m 203 1064 q 249 1228 203 1174 q 364 1283 294 1283 q 410 1274 388 1283 q 465 1246 432 1265 q 510 1222 493 1229 q 543 1214 526 1214 q 581 1231 567 1214 q 600 1279 596 1247 l 700 1279 q 654 1115 700 1169 q 539 1060 608 1060 q 492 1069 515 1060 q 438 1099 468 1079 q 393 1123 410 1115 q 360 1131 376 1131 q 322 1114 336 1131 q 303 1064 307 1097 l 203 1064 z "},"Z":{"ha":857,"x_min":72,"x_max":810,"o":"m 810 200 l 810 0 l 72 0 l 72 188 l 507 779 l 72 779 l 72 979 l 793 979 l 793 796 l 354 200 l 810 200 z "},"Ź":{"ha":857,"x_min":72,"x_max":810,"o":"m 810 200 l 810 0 l 72 0 l 72 188 l 507 779 l 72 779 l 72 979 l 793 979 l 793 796 l 354 200 l 810 200 m 357 1063 l 501 1281 l 722 1281 l 507 1063 l 357 1063 z "},"Ž":{"ha":857,"x_min":72,"x_max":810,"o":"m 810 200 l 810 0 l 72 0 l 72 188 l 507 779 l 72 779 l 72 979 l 793 979 l 793 796 l 354 200 l 810 200 m 690 1281 l 500 1063 l 364 1063 l 174 1281 l 351 1281 l 432 1172 l 513 1281 l 690 1281 z "},"Ż":{"ha":857,"x_min":72,"x_max":810,"o":"m 810 200 l 810 0 l 72 0 l 72 188 l 507 779 l 72 779 l 72 979 l 793 979 l 793 796 l 354 200 l 810 200 m 561 1283 l 561 1061 l 303 1061 l 303 1283 l 561 1283 z "},"Ẓ":{"ha":857,"x_min":72,"x_max":810,"o":"m 810 200 l 810 0 l 72 0 l 72 188 l 507 779 l 72 779 l 72 979 l 793 979 l 793 796 l 354 200 l 810 200 m 531 -79 l 531 -285 l 314 -285 l 314 -79 l 531 -79 z "},"a":{"ha":767,"x_min":43,"x_max":700,"o":"m 385 700 q 623 626 546 700 q 700 394 700 551 l 700 0 l 468 0 l 468 96 q 403 17 449 46 q 293 -11 357 -11 q 165 17 222 -11 q 76 97 108 46 q 43 211 43 147 q 81 328 43 285 q 203 392 119 372 q 428 411 286 411 l 465 411 l 465 428 q 442 499 465 479 q 358 519 418 519 q 249 501 311 519 q 133 453 188 482 l 71 615 q 220 676 131 651 q 385 700 310 700 m 351 154 q 433 190 401 154 q 465 281 465 225 l 465 297 l 443 297 q 317 281 354 297 q 279 228 279 265 q 299 175 279 196 q 351 154 319 154 z "},"á":{"ha":767,"x_min":43,"x_max":700,"o":"m 385 700 q 623 626 546 700 q 700 394 700 551 l 700 0 l 468 0 l 468 96 q 403 17 449 46 q 293 -11 357 -11 q 165 17 222 -11 q 76 97 108 46 q 43 211 43 147 q 81 328 43 285 q 203 392 119 372 q 428 411 286 411 l 465 411 l 465 428 q 442 499 465 479 q 358 519 418 519 q 249 501 311 519 q 133 453 188 482 l 71 615 q 220 676 131 651 q 385 700 310 700 m 351 154 q 433 190 401 154 q 465 281 465 225 l 465 297 l 443 297 q 317 281 354 297 q 279 228 279 265 q 299 175 279 196 q 351 154 319 154 m 315 772 l 451 1058 l 685 1058 l 465 772 l 315 772 z "},"ă":{"ha":767,"x_min":43,"x_max":700,"o":"m 385 700 q 623 626 546 700 q 700 394 700 551 l 700 0 l 468 0 l 468 96 q 403 17 449 46 q 293 -11 357 -11 q 165 17 222 -11 q 76 97 108 46 q 43 211 43 147 q 81 328 43 285 q 203 392 119 372 q 428 411 286 411 l 465 411 l 465 428 q 442 499 465 479 q 358 519 418 519 q 249 501 311 519 q 133 453 188 482 l 71 615 q 220 676 131 651 q 385 700 310 700 m 351 154 q 433 190 401 154 q 465 281 465 225 l 465 297 l 443 297 q 317 281 354 297 q 279 228 279 265 q 299 175 279 196 q 351 154 319 154 m 390 800 q 219 855 294 800 q 122 1011 144 910 l 228 1056 q 390 950 289 950 q 553 1056 492 950 l 658 1010 q 561 855 636 910 q 390 800 486 800 z "},"ắ":{"ha":767,"x_min":43,"x_max":700,"o":"m 385 700 q 623 626 546 700 q 700 394 700 551 l 700 0 l 468 0 l 468 96 q 403 17 449 46 q 293 -11 357 -11 q 165 17 222 -11 q 76 97 108 46 q 43 211 43 147 q 81 328 43 285 q 203 392 119 372 q 428 411 286 411 l 465 411 l 465 428 q 442 499 465 479 q 358 519 418 519 q 249 501 311 519 q 133 453 188 482 l 71 615 q 220 676 131 651 q 385 700 310 700 m 351 154 q 433 190 401 154 q 465 281 465 225 l 465 297 l 443 297 q 317 281 354 297 q 279 228 279 265 q 299 175 279 196 q 351 154 319 154 m 321 922 l 460 1118 l 664 1118 l 460 922 l 321 922 m 390 765 q 228 805 294 765 q 135 918 161 844 l 215 951 q 287 902 236 921 q 390 883 338 883 q 494 902 443 883 q 565 951 544 921 l 646 918 q 553 805 619 844 q 390 765 486 765 z "},"ặ":{"ha":767,"x_min":43,"x_max":700,"o":"m 385 700 q 623 626 546 700 q 700 394 700 551 l 700 0 l 468 0 l 468 96 q 403 17 449 46 q 293 -11 357 -11 q 165 17 222 -11 q 76 97 108 46 q 43 211 43 147 q 81 328 43 285 q 203 392 119 372 q 428 411 286 411 l 465 411 l 465 428 q 442 499 465 479 q 358 519 418 519 q 249 501 311 519 q 133 453 188 482 l 71 615 q 220 676 131 651 q 385 700 310 700 m 351 154 q 433 190 401 154 q 465 281 465 225 l 465 297 l 443 297 q 317 281 354 297 q 279 228 279 265 q 299 175 279 196 q 351 154 319 154 m 492 -79 l 492 -285 l 275 -285 l 275 -79 l 492 -79 m 390 800 q 219 855 294 800 q 122 1011 144 910 l 228 1056 q 390 950 289 950 q 553 1056 492 950 l 658 1010 q 561 855 636 910 q 390 800 486 800 z "},"ằ":{"ha":767,"x_min":43,"x_max":700,"o":"m 385 700 q 623 626 546 700 q 700 394 700 551 l 700 0 l 468 0 l 468 96 q 403 17 449 46 q 293 -11 357 -11 q 165 17 222 -11 q 76 97 108 46 q 43 211 43 147 q 81 328 43 285 q 203 392 119 372 q 428 411 286 411 l 465 411 l 465 428 q 442 499 465 479 q 358 519 418 519 q 249 501 311 519 q 133 453 188 482 l 71 615 q 220 676 131 651 q 385 700 310 700 m 351 154 q 433 190 401 154 q 465 281 465 225 l 465 297 l 443 297 q 317 281 354 297 q 279 228 279 265 q 299 175 279 196 q 351 154 319 154 m 117 1118 l 321 1118 l 460 922 l 321 922 l 117 1118 m 390 765 q 228 805 294 765 q 135 918 161 844 l 215 951 q 287 902 236 921 q 390 883 338 883 q 494 902 443 883 q 565 951 544 921 l 646 918 q 553 805 619 844 q 390 765 486 765 z "},"ẳ":{"ha":767,"x_min":43,"x_max":700,"o":"m 385 700 q 623 626 546 700 q 700 394 700 551 l 700 0 l 468 0 l 468 96 q 403 17 449 46 q 293 -11 357 -11 q 165 17 222 -11 q 76 97 108 46 q 43 211 43 147 q 81 328 43 285 q 203 392 119 372 q 428 411 286 411 l 465 411 l 465 428 q 442 499 465 479 q 358 519 418 519 q 249 501 311 519 q 133 453 188 482 l 71 615 q 220 676 131 651 q 385 700 310 700 m 351 154 q 433 190 401 154 q 465 281 465 225 l 465 297 l 443 297 q 317 281 354 297 q 279 228 279 265 q 299 175 279 196 q 351 154 319 154 m 447 925 l 333 925 l 333 953 q 353 994 333 981 q 397 1015 372 1007 q 422 1026 422 1024 q 413 1037 422 1032 q 381 1042 403 1042 q 304 1028 347 1042 l 274 1101 q 413 1126 336 1126 q 524 1103 482 1126 q 565 1044 565 1081 q 547 1003 565 1018 q 497 976 529 989 q 460 958 472 967 q 447 935 447 950 l 447 925 m 390 765 q 228 805 294 765 q 135 918 161 844 l 215 951 q 287 902 236 921 q 390 883 338 883 q 494 902 443 883 q 565 951 544 921 l 646 918 q 553 805 619 844 q 390 765 486 765 z "},"ẵ":{"ha":767,"x_min":43,"x_max":700,"o":"m 385 700 q 623 626 546 700 q 700 394 700 551 l 700 0 l 468 0 l 468 96 q 403 17 449 46 q 293 -11 357 -11 q 165 17 222 -11 q 76 97 108 46 q 43 211 43 147 q 81 328 43 285 q 203 392 119 372 q 428 411 286 411 l 465 411 l 465 428 q 442 499 465 479 q 358 519 418 519 q 249 501 311 519 q 133 453 188 482 l 71 615 q 220 676 131 651 q 385 700 310 700 m 351 154 q 433 190 401 154 q 465 281 465 225 l 465 297 l 443 297 q 317 281 354 297 q 279 228 279 265 q 299 175 279 196 q 351 154 319 154 m 142 978 q 190 1081 142 1039 q 303 1124 238 1124 q 404 1104 340 1124 q 445 1092 425 1097 q 482 1088 465 1088 q 521 1094 507 1088 q 539 1119 535 1101 l 639 1119 q 591 1016 639 1058 q 478 974 543 974 q 376 993 440 974 q 335 1005 356 1000 q 299 1010 315 1010 q 260 1003 274 1010 q 242 978 246 996 l 142 978 m 390 765 q 228 805 294 765 q 135 918 161 844 l 215 951 q 287 902 236 921 q 390 883 338 883 q 494 902 443 883 q 565 951 544 921 l 646 918 q 553 805 619 844 q 390 765 486 765 z "},"ǎ":{"ha":767,"x_min":43,"x_max":700,"o":"m 385 700 q 623 626 546 700 q 700 394 700 551 l 700 0 l 468 0 l 468 96 q 403 17 449 46 q 293 -11 357 -11 q 165 17 222 -11 q 76 97 108 46 q 43 211 43 147 q 81 328 43 285 q 203 392 119 372 q 428 411 286 411 l 465 411 l 465 428 q 442 499 465 479 q 358 519 418 519 q 249 501 311 519 q 133 453 188 482 l 71 615 q 220 676 131 651 q 385 700 310 700 m 351 154 q 433 190 401 154 q 465 281 465 225 l 465 297 l 443 297 q 317 281 354 297 q 279 228 279 265 q 299 175 279 196 q 351 154 319 154 m 649 1058 l 461 772 l 319 772 l 132 1058 l 317 1058 l 390 913 l 464 1058 l 649 1058 z "},"â":{"ha":767,"x_min":43,"x_max":700,"o":"m 385 700 q 623 626 546 700 q 700 394 700 551 l 700 0 l 468 0 l 468 96 q 403 17 449 46 q 293 -11 357 -11 q 165 17 222 -11 q 76 97 108 46 q 43 211 43 147 q 81 328 43 285 q 203 392 119 372 q 428 411 286 411 l 465 411 l 465 428 q 442 499 465 479 q 358 519 418 519 q 249 501 311 519 q 133 453 188 482 l 71 615 q 220 676 131 651 q 385 700 310 700 m 351 154 q 433 190 401 154 q 465 281 465 225 l 465 297 l 443 297 q 317 281 354 297 q 279 228 279 265 q 299 175 279 196 q 351 154 319 154 m 132 772 l 319 1058 l 461 1058 l 649 772 l 464 772 l 390 919 l 317 772 l 132 772 z "},"ấ":{"ha":767,"x_min":43,"x_max":810,"o":"m 385 700 q 623 626 546 700 q 700 394 700 551 l 700 0 l 468 0 l 468 96 q 403 17 449 46 q 293 -11 357 -11 q 165 17 222 -11 q 76 97 108 46 q 43 211 43 147 q 81 328 43 285 q 203 392 119 372 q 428 411 286 411 l 465 411 l 465 428 q 442 499 465 479 q 358 519 418 519 q 249 501 311 519 q 133 453 188 482 l 71 615 q 220 676 131 651 q 385 700 310 700 m 351 154 q 433 190 401 154 q 465 281 465 225 l 465 297 l 443 297 q 317 281 354 297 q 279 228 279 265 q 299 175 279 196 q 351 154 319 154 m 526 922 l 615 1118 l 810 1118 l 642 922 l 526 922 m 132 772 l 322 960 l 458 960 l 649 772 l 474 772 l 390 856 l 307 772 l 132 772 z "},"ậ":{"ha":767,"x_min":43,"x_max":700,"o":"m 385 700 q 623 626 546 700 q 700 394 700 551 l 700 0 l 468 0 l 468 96 q 403 17 449 46 q 293 -11 357 -11 q 165 17 222 -11 q 76 97 108 46 q 43 211 43 147 q 81 328 43 285 q 203 392 119 372 q 428 411 286 411 l 465 411 l 465 428 q 442 499 465 479 q 358 519 418 519 q 249 501 311 519 q 133 453 188 482 l 71 615 q 220 676 131 651 q 385 700 310 700 m 351 154 q 433 190 401 154 q 465 281 465 225 l 465 297 l 443 297 q 317 281 354 297 q 279 228 279 265 q 299 175 279 196 q 351 154 319 154 m 492 -79 l 492 -285 l 275 -285 l 275 -79 l 492 -79 m 132 772 l 319 1058 l 461 1058 l 649 772 l 464 772 l 390 919 l 317 772 l 132 772 z "},"ầ":{"ha":767,"x_min":43,"x_max":700,"o":"m 385 700 q 623 626 546 700 q 700 394 700 551 l 700 0 l 468 0 l 468 96 q 403 17 449 46 q 293 -11 357 -11 q 165 17 222 -11 q 76 97 108 46 q 43 211 43 147 q 81 328 43 285 q 203 392 119 372 q 428 411 286 411 l 465 411 l 465 428 q 442 499 465 479 q 358 519 418 519 q 249 501 311 519 q 133 453 188 482 l 71 615 q 220 676 131 651 q 385 700 310 700 m 351 154 q 433 190 401 154 q 465 281 465 225 l 465 297 l 443 297 q 317 281 354 297 q 279 228 279 265 q 299 175 279 196 q 351 154 319 154 m 410 1118 l 604 1118 l 699 922 l 585 922 l 410 1118 m 132 772 l 322 960 l 458 960 l 649 772 l 474 772 l 390 856 l 307 772 l 132 772 z "},"ẩ":{"ha":767,"x_min":43,"x_max":757,"o":"m 385 700 q 623 626 546 700 q 700 394 700 551 l 700 0 l 468 0 l 468 96 q 403 17 449 46 q 293 -11 357 -11 q 165 17 222 -11 q 76 97 108 46 q 43 211 43 147 q 81 328 43 285 q 203 392 119 372 q 428 411 286 411 l 465 411 l 465 428 q 442 499 465 479 q 358 519 418 519 q 249 501 311 519 q 133 453 188 482 l 71 615 q 220 676 131 651 q 385 700 310 700 m 351 154 q 433 190 401 154 q 465 281 465 225 l 465 297 l 443 297 q 317 281 354 297 q 279 228 279 265 q 299 175 279 196 q 351 154 319 154 m 640 925 l 525 925 l 525 953 q 544 994 525 981 q 589 1015 564 1007 q 614 1026 614 1024 q 604 1037 614 1032 q 574 1042 594 1042 q 496 1028 542 1042 l 467 1101 q 606 1126 529 1126 q 716 1103 675 1126 q 757 1044 757 1081 q 740 1003 757 1018 q 690 976 722 989 q 653 958 665 967 q 640 935 640 950 l 640 925 m 132 772 l 322 960 l 458 960 l 649 772 l 474 772 l 390 856 l 307 772 l 132 772 z "},"ẫ":{"ha":767,"x_min":43,"x_max":700,"o":"m 385 700 q 623 626 546 700 q 700 394 700 551 l 700 0 l 468 0 l 468 96 q 403 17 449 46 q 293 -11 357 -11 q 165 17 222 -11 q 76 97 108 46 q 43 211 43 147 q 81 328 43 285 q 203 392 119 372 q 428 411 286 411 l 465 411 l 465 428 q 442 499 465 479 q 358 519 418 519 q 249 501 311 519 q 133 453 188 482 l 71 615 q 220 676 131 651 q 385 700 310 700 m 351 154 q 433 190 401 154 q 465 281 465 225 l 465 297 l 443 297 q 317 281 354 297 q 279 228 279 265 q 299 175 279 196 q 351 154 319 154 m 142 986 q 190 1092 142 1049 q 303 1135 238 1135 q 353 1128 326 1135 q 404 1114 381 1122 q 482 1096 456 1096 q 522 1102 508 1096 q 539 1129 535 1108 l 639 1129 q 591 1024 639 1067 q 478 981 543 981 q 376 1003 440 981 q 299 1021 325 1021 q 260 1014 274 1021 q 242 986 246 1007 l 142 986 m 132 772 l 322 960 l 458 960 l 649 772 l 474 772 l 390 856 l 307 772 l 132 772 z "},"ȁ":{"ha":767,"x_min":43,"x_max":700,"o":"m 385 700 q 623 626 546 700 q 700 394 700 551 l 700 0 l 468 0 l 468 96 q 403 17 449 46 q 293 -11 357 -11 q 165 17 222 -11 q 76 97 108 46 q 43 211 43 147 q 81 328 43 285 q 203 392 119 372 q 428 411 286 411 l 465 411 l 465 428 q 442 499 465 479 q 358 519 418 519 q 249 501 311 519 q 133 453 188 482 l 71 615 q 220 676 131 651 q 385 700 310 700 m 351 154 q 433 190 401 154 q 465 281 465 225 l 465 297 l 443 297 q 317 281 354 297 q 279 228 279 265 q 299 175 279 196 q 351 154 319 154 m 131 1058 l 300 1058 l 340 772 l 239 772 l 131 1058 m 332 1058 l 501 1058 l 542 772 l 440 772 l 332 1058 z "},"ä":{"ha":767,"x_min":43,"x_max":700,"o":"m 385 700 q 623 626 546 700 q 700 394 700 551 l 700 0 l 468 0 l 468 96 q 403 17 449 46 q 293 -11 357 -11 q 165 17 222 -11 q 76 97 108 46 q 43 211 43 147 q 81 328 43 285 q 203 392 119 372 q 428 411 286 411 l 465 411 l 465 428 q 442 499 465 479 q 358 519 418 519 q 249 501 311 519 q 133 453 188 482 l 71 615 q 220 676 131 651 q 385 700 310 700 m 351 154 q 433 190 401 154 q 465 281 465 225 l 465 297 l 443 297 q 317 281 354 297 q 279 228 279 265 q 299 175 279 196 q 351 154 319 154 m 363 1017 l 363 810 l 143 810 l 143 1017 l 363 1017 m 638 1017 l 638 810 l 418 810 l 418 1017 l 638 1017 z "},"ȧ":{"ha":767,"x_min":43,"x_max":700,"o":"m 385 700 q 623 626 546 700 q 700 394 700 551 l 700 0 l 468 0 l 468 96 q 403 17 449 46 q 293 -11 357 -11 q 165 17 222 -11 q 76 97 108 46 q 43 211 43 147 q 81 328 43 285 q 203 392 119 372 q 428 411 286 411 l 465 411 l 465 428 q 442 499 465 479 q 358 519 418 519 q 249 501 311 519 q 133 453 188 482 l 71 615 q 220 676 131 651 q 385 700 310 700 m 351 154 q 433 190 401 154 q 465 281 465 225 l 465 297 l 443 297 q 317 281 354 297 q 279 228 279 265 q 299 175 279 196 q 351 154 319 154 m 519 1025 l 519 801 l 261 801 l 261 1025 l 519 1025 z "},"ạ":{"ha":767,"x_min":43,"x_max":700,"o":"m 385 700 q 623 626 546 700 q 700 394 700 551 l 700 0 l 468 0 l 468 96 q 403 17 449 46 q 293 -11 357 -11 q 165 17 222 -11 q 76 97 108 46 q 43 211 43 147 q 81 328 43 285 q 203 392 119 372 q 428 411 286 411 l 465 411 l 465 428 q 442 499 465 479 q 358 519 418 519 q 249 501 311 519 q 133 453 188 482 l 71 615 q 220 676 131 651 q 385 700 310 700 m 351 154 q 433 190 401 154 q 465 281 465 225 l 465 297 l 443 297 q 317 281 354 297 q 279 228 279 265 q 299 175 279 196 q 351 154 319 154 m 492 -79 l 492 -285 l 275 -285 l 275 -79 l 492 -79 z "},"à":{"ha":767,"x_min":43,"x_max":700,"o":"m 385 700 q 623 626 546 700 q 700 394 700 551 l 700 0 l 468 0 l 468 96 q 403 17 449 46 q 293 -11 357 -11 q 165 17 222 -11 q 76 97 108 46 q 43 211 43 147 q 81 328 43 285 q 203 392 119 372 q 428 411 286 411 l 465 411 l 465 428 q 442 499 465 479 q 358 519 418 519 q 249 501 311 519 q 133 453 188 482 l 71 615 q 220 676 131 651 q 385 700 310 700 m 351 154 q 433 190 401 154 q 465 281 465 225 l 465 297 l 443 297 q 317 281 354 297 q 279 228 279 265 q 299 175 279 196 q 351 154 319 154 m 96 1058 l 329 1058 l 465 772 l 315 772 l 96 1058 z "},"ả":{"ha":767,"x_min":43,"x_max":700,"o":"m 385 700 q 623 626 546 700 q 700 394 700 551 l 700 0 l 468 0 l 468 96 q 403 17 449 46 q 293 -11 357 -11 q 165 17 222 -11 q 76 97 108 46 q 43 211 43 147 q 81 328 43 285 q 203 392 119 372 q 428 411 286 411 l 465 411 l 465 428 q 442 499 465 479 q 358 519 418 519 q 249 501 311 519 q 133 453 188 482 l 71 615 q 220 676 131 651 q 385 700 310 700 m 351 154 q 433 190 401 154 q 465 281 465 225 l 465 297 l 443 297 q 317 281 354 297 q 279 228 279 265 q 299 175 279 196 q 351 154 319 154 m 450 772 l 333 772 l 333 806 q 347 854 333 835 q 385 892 361 874 q 406 911 399 903 q 413 929 413 919 q 369 961 413 961 q 306 949 339 961 l 274 1035 q 396 1061 333 1061 q 521 1030 476 1061 q 565 954 565 999 q 547 901 565 921 q 496 857 529 881 q 461 829 472 840 q 450 803 450 818 l 450 772 z "},"ȃ":{"ha":767,"x_min":43,"x_max":700,"o":"m 385 700 q 623 626 546 700 q 700 394 700 551 l 700 0 l 468 0 l 468 96 q 403 17 449 46 q 293 -11 357 -11 q 165 17 222 -11 q 76 97 108 46 q 43 211 43 147 q 81 328 43 285 q 203 392 119 372 q 428 411 286 411 l 465 411 l 465 428 q 442 499 465 479 q 358 519 418 519 q 249 501 311 519 q 133 453 188 482 l 71 615 q 220 676 131 651 q 385 700 310 700 m 351 154 q 433 190 401 154 q 465 281 465 225 l 465 297 l 443 297 q 317 281 354 297 q 279 228 279 265 q 299 175 279 196 q 351 154 319 154 m 390 1049 q 561 994 486 1049 q 658 838 636 939 l 553 793 q 390 899 490 899 q 228 793 290 899 l 122 839 q 219 994 144 939 q 390 1049 294 1049 z "},"ā":{"ha":767,"x_min":43,"x_max":700,"o":"m 385 700 q 623 626 546 700 q 700 394 700 551 l 700 0 l 468 0 l 468 96 q 403 17 449 46 q 293 -11 357 -11 q 165 17 222 -11 q 76 97 108 46 q 43 211 43 147 q 81 328 43 285 q 203 392 119 372 q 428 411 286 411 l 465 411 l 465 428 q 442 499 465 479 q 358 519 418 519 q 249 501 311 519 q 133 453 188 482 l 71 615 q 220 676 131 651 q 385 700 310 700 m 351 154 q 433 190 401 154 q 465 281 465 225 l 465 297 l 443 297 q 317 281 354 297 q 279 228 279 265 q 299 175 279 196 q 351 154 319 154 m 169 986 l 611 986 l 611 839 l 169 839 l 169 986 z "},"ą":{"ha":767,"x_min":43,"x_max":747,"o":"m 747 -249 q 601 -275 682 -275 q 470 -231 521 -275 q 419 -117 419 -186 q 468 1 419 -50 l 468 96 q 403 17 449 46 q 296 -11 358 -11 q 166 17 224 -11 q 76 97 108 46 q 43 211 43 147 q 81 328 43 285 q 203 391 119 371 q 428 411 286 411 l 465 411 l 465 428 q 442 499 465 479 q 358 519 418 519 q 249 501 311 519 q 133 453 188 482 l 71 615 q 220 676 131 651 q 385 700 310 700 q 623 626 546 700 q 700 394 700 551 l 700 0 l 683 0 q 602 -23 633 0 q 571 -83 571 -46 q 650 -153 571 -153 q 724 -139 688 -153 l 747 -249 m 351 154 q 433 190 401 154 q 465 281 465 225 l 465 297 l 443 297 q 317 281 356 297 q 279 228 279 264 q 299 175 279 196 q 351 154 319 154 z "},"å":{"ha":767,"x_min":43,"x_max":700,"o":"m 385 700 q 623 626 546 700 q 700 394 700 551 l 700 0 l 468 0 l 468 96 q 403 17 449 46 q 293 -11 357 -11 q 165 17 222 -11 q 76 97 108 46 q 43 211 43 147 q 81 328 43 285 q 203 392 119 372 q 428 411 286 411 l 465 411 l 465 428 q 442 499 465 479 q 358 519 418 519 q 249 501 311 519 q 133 453 188 482 l 71 615 q 220 676 131 651 q 385 700 310 700 m 351 154 q 433 190 401 154 q 465 281 465 225 l 465 297 l 443 297 q 317 281 354 297 q 279 228 279 265 q 299 175 279 196 q 351 154 319 154 m 390 763 q 279 807 325 763 q 233 917 233 851 q 279 1025 233 981 q 390 1069 325 1069 q 501 1025 456 1069 q 547 917 547 981 q 501 807 547 851 q 390 763 456 763 m 390 856 q 431 874 415 856 q 447 917 447 892 q 431 959 447 942 q 390 976 415 976 q 349 959 365 976 q 333 917 333 942 q 349 874 333 892 q 390 856 365 856 z "},"ǻ":{"ha":767,"x_min":43,"x_max":754,"o":"m 390 763 q 279 807 325 763 q 233 917 233 851 q 279 1025 233 981 q 390 1069 325 1069 q 444 1060 421 1069 l 533 1188 l 754 1188 l 535 974 q 546 917 546 944 q 501 807 546 851 q 390 763 456 763 m 390 976 q 349 959 365 976 q 332 917 332 942 q 348 873 332 890 q 390 856 364 856 q 431 873 415 856 q 447 917 447 890 q 431 959 447 942 q 390 976 415 976 m 385 700 q 623 626 546 700 q 700 394 700 551 l 700 0 l 468 0 l 468 96 q 403 17 449 46 q 293 -11 357 -11 q 165 17 222 -11 q 76 97 108 46 q 43 211 43 147 q 81 328 43 285 q 203 392 119 372 q 428 411 286 411 l 465 411 l 465 428 q 442 499 465 479 q 358 519 418 519 q 249 501 311 519 q 133 453 188 482 l 71 615 q 220 676 131 651 q 385 700 310 700 m 351 154 q 433 190 401 154 q 465 281 465 225 l 465 297 l 443 297 q 317 281 354 297 q 279 228 279 265 q 299 175 279 196 q 351 154 319 154 z "},"ã":{"ha":767,"x_min":43,"x_max":700,"o":"m 385 700 q 623 626 546 700 q 700 394 700 551 l 700 0 l 468 0 l 468 96 q 403 17 449 46 q 293 -11 357 -11 q 165 17 222 -11 q 76 97 108 46 q 43 211 43 147 q 81 328 43 285 q 203 392 119 372 q 428 411 286 411 l 465 411 l 465 428 q 442 499 465 479 q 358 519 418 519 q 249 501 311 519 q 133 453 188 482 l 71 615 q 220 676 131 651 q 385 700 310 700 m 351 154 q 433 190 401 154 q 465 281 465 225 l 465 297 l 443 297 q 317 281 354 297 q 279 228 279 265 q 299 175 279 196 q 351 154 319 154 m 142 810 q 188 974 142 919 q 303 1028 233 1028 q 349 1019 326 1028 q 404 990 371 1010 q 449 966 432 974 q 482 958 465 958 q 520 975 506 958 q 539 1024 535 992 l 639 1024 q 593 860 639 914 q 478 806 547 806 q 432 815 454 806 q 376 843 410 824 q 332 867 349 860 q 299 875 315 875 q 260 858 275 875 q 242 810 246 842 l 142 810 z "},"æ":{"ha":1154,"x_min":43,"x_max":1114,"o":"m 1114 294 l 699 294 q 741 199 708 228 q 836 169 774 169 q 944 186 892 169 q 1040 232 997 203 l 1103 69 q 979 10 1051 32 q 833 -11 907 -11 q 668 21 739 -11 q 554 114 597 53 q 463 21 522 53 q 324 -11 403 -11 q 179 17 243 -11 q 79 97 115 46 q 43 211 43 147 q 81 328 43 285 q 201 392 118 372 q 424 411 283 411 l 461 411 l 461 429 q 438 498 461 476 q 365 519 415 519 q 249 501 311 519 q 133 453 186 483 l 71 615 q 218 676 129 651 q 382 700 307 700 q 603 622 533 700 q 815 700 688 700 q 971 656 903 700 q 1076 533 1039 613 q 1114 350 1114 453 l 1114 294 m 811 533 q 697 411 710 533 l 907 411 q 878 502 903 471 q 811 533 854 533 m 358 154 q 431 191 401 154 q 461 279 461 228 l 461 297 l 438 297 q 316 281 353 297 q 279 228 279 264 q 301 174 279 194 q 358 154 322 154 z "},"ǽ":{"ha":1154,"x_min":43,"x_max":1114,"o":"m 1114 294 l 699 294 q 741 199 708 228 q 836 169 774 169 q 944 186 892 169 q 1040 232 997 203 l 1103 69 q 979 10 1051 32 q 833 -11 907 -11 q 668 21 739 -11 q 554 114 597 53 q 463 21 522 53 q 324 -11 403 -11 q 179 17 243 -11 q 79 97 115 46 q 43 211 43 147 q 81 328 43 285 q 201 392 118 372 q 424 411 283 411 l 461 411 l 461 429 q 438 498 461 476 q 365 519 415 519 q 249 501 311 519 q 133 453 186 483 l 71 615 q 218 676 129 651 q 382 700 307 700 q 603 622 533 700 q 815 700 688 700 q 971 656 903 700 q 1076 533 1039 613 q 1114 350 1114 453 l 1114 294 m 811 533 q 697 411 710 533 l 907 411 q 878 502 903 471 q 811 533 854 533 m 358 154 q 431 191 401 154 q 461 279 461 228 l 461 297 l 438 297 q 316 281 353 297 q 279 228 279 264 q 301 174 279 194 q 358 154 322 154 m 503 772 l 639 1058 l 872 1058 l 653 772 l 503 772 z "},"b":{"ha":868,"x_min":72,"x_max":826,"o":"m 525 700 q 682 657 614 700 q 788 534 750 614 q 826 349 826 454 q 788 161 826 243 q 681 34 750 79 q 525 -11 613 -11 q 401 17 457 -11 q 315 93 344 44 l 315 0 l 72 0 l 72 979 l 319 979 l 319 603 q 405 674 350 647 q 525 700 460 700 m 449 174 q 547 219 513 174 q 582 349 582 264 q 548 472 582 429 q 450 515 514 515 q 350 472 385 515 q 315 346 315 428 q 350 218 315 263 q 449 174 385 174 z "},"c":{"ha":694,"x_min":40,"x_max":688,"o":"m 413 -11 q 139 83 238 -11 q 40 340 40 178 q 88 529 40 447 q 223 656 136 611 q 424 700 310 700 q 572 678 500 700 q 688 618 643 656 l 625 451 q 541 497 590 479 q 449 514 492 514 q 334 472 374 514 q 294 346 294 431 q 334 218 294 261 q 449 175 374 175 q 541 192 492 175 q 625 239 590 210 l 688 71 q 567 10 640 32 q 413 -11 494 -11 z "},"ć":{"ha":694,"x_min":40,"x_max":710,"o":"m 413 -11 q 139 83 238 -11 q 40 340 40 178 q 88 529 40 447 q 223 656 136 611 q 424 700 310 700 q 572 678 500 700 q 688 618 643 656 l 625 451 q 541 497 590 479 q 449 514 492 514 q 334 472 374 514 q 294 346 294 431 q 334 218 294 261 q 449 175 374 175 q 541 192 492 175 q 625 239 590 210 l 688 71 q 567 10 640 32 q 413 -11 494 -11 m 340 772 l 476 1058 l 710 1058 l 490 772 l 340 772 z "},"č":{"ha":694,"x_min":40,"x_max":688,"o":"m 413 -11 q 139 83 238 -11 q 40 340 40 178 q 88 529 40 447 q 223 656 136 611 q 424 700 310 700 q 572 678 500 700 q 688 618 643 656 l 625 451 q 541 497 590 479 q 449 514 492 514 q 334 472 374 514 q 294 346 294 431 q 334 218 294 261 q 449 175 374 175 q 541 192 492 175 q 625 239 590 210 l 688 71 q 567 10 640 32 q 413 -11 494 -11 m 674 1058 l 486 772 l 344 772 l 157 1058 l 342 1058 l 415 913 l 489 1058 l 674 1058 z "},"ç":{"ha":694,"x_min":40,"x_max":688,"o":"m 688 71 q 583 15 646 36 q 449 -10 519 -6 l 440 -56 l 453 -56 q 541 -81 510 -56 q 572 -151 572 -107 q 522 -241 572 -207 q 375 -275 471 -275 q 308 -269 346 -275 q 243 -251 271 -262 l 257 -162 q 368 -182 324 -182 q 426 -151 426 -182 q 383 -128 426 -128 q 339 -135 367 -128 l 311 -104 l 324 -4 q 115 110 189 19 q 40 340 40 200 q 88 529 40 447 q 223 656 136 611 q 424 700 310 700 q 572 678 500 700 q 688 618 643 656 l 625 451 q 541 497 590 479 q 449 514 492 514 q 334 472 374 514 q 294 346 294 431 q 334 218 294 261 q 449 175 374 175 q 541 192 492 175 q 625 239 590 210 l 688 71 z "},"ḉ":{"ha":694,"x_min":40,"x_max":710,"o":"m 490 772 l 340 772 l 476 1058 l 710 1058 l 490 772 m 449 514 q 334 472 374 514 q 294 346 294 431 q 334 218 294 261 q 449 175 374 175 q 541 192 492 175 q 625 239 590 210 l 688 71 q 583 15 646 36 q 449 -10 519 -6 l 440 -56 l 453 -56 q 541 -81 510 -56 q 572 -151 572 -107 q 522 -241 572 -207 q 375 -275 471 -275 q 308 -269 346 -275 q 243 -251 271 -262 l 257 -162 q 368 -182 324 -182 q 426 -151 426 -182 q 383 -128 426 -128 q 339 -135 367 -128 l 311 -104 l 324 -4 q 115 110 189 19 q 40 340 40 200 q 88 529 40 447 q 223 656 136 611 q 424 700 310 700 q 572 678 500 700 q 688 618 643 656 l 625 451 q 541 497 590 479 q 449 514 492 514 z "},"ĉ":{"ha":694,"x_min":40,"x_max":688,"o":"m 413 -11 q 139 83 238 -11 q 40 340 40 178 q 88 529 40 447 q 223 656 136 611 q 424 700 310 700 q 572 678 500 700 q 688 618 643 656 l 625 451 q 541 497 590 479 q 449 514 492 514 q 334 472 374 514 q 294 346 294 431 q 334 218 294 261 q 449 175 374 175 q 541 192 492 175 q 625 239 590 210 l 688 71 q 567 10 640 32 q 413 -11 494 -11 m 157 772 l 344 1058 l 486 1058 l 674 772 l 489 772 l 415 919 l 342 772 l 157 772 z "},"ċ":{"ha":694,"x_min":40,"x_max":688,"o":"m 413 -11 q 139 83 238 -11 q 40 340 40 178 q 88 529 40 447 q 223 656 136 611 q 424 700 310 700 q 572 678 500 700 q 688 618 643 656 l 625 451 q 541 497 590 479 q 449 514 492 514 q 334 472 374 514 q 294 346 294 431 q 334 218 294 261 q 449 175 374 175 q 541 192 492 175 q 625 239 590 210 l 688 71 q 567 10 640 32 q 413 -11 494 -11 m 544 1025 l 544 801 l 286 801 l 286 1025 l 544 1025 z "},"d":{"ha":868,"x_min":40,"x_max":796,"o":"m 796 979 l 796 0 l 553 0 l 553 93 q 467 17 524 44 q 343 -11 411 -11 q 187 34 256 -11 q 79 161 118 79 q 40 349 40 243 q 78 534 40 454 q 185 657 117 614 q 343 700 254 700 q 463 674 408 700 q 549 603 518 647 l 549 979 l 796 979 m 418 174 q 518 218 483 174 q 553 346 553 263 q 518 472 553 428 q 418 515 483 515 q 319 472 354 515 q 285 349 285 429 q 320 219 285 265 q 418 174 356 174 z "},"ð":{"ha":844,"x_min":40,"x_max":804,"o":"m 692 750 q 776 588 747 674 q 804 418 804 501 q 700 101 804 214 q 407 -11 596 -11 q 217 30 300 -11 q 87 144 133 71 q 40 313 40 217 q 84 477 40 404 q 206 591 128 550 q 382 632 283 632 q 551 585 488 632 q 481 697 526 647 l 228 635 l 196 756 l 344 792 q 200 829 278 822 l 253 996 q 594 854 451 974 l 765 896 l 796 775 l 692 750 m 417 174 q 515 209 481 174 q 549 313 549 244 q 417 453 549 453 q 285 313 285 453 q 417 174 285 174 z "},"ď":{"ha":868,"x_min":40,"x_max":943,"o":"m 549 979 l 796 979 l 796 0 l 553 0 l 553 93 q 467 17 524 44 q 343 -11 411 -11 q 187 34 256 -11 q 79 161 118 79 q 40 349 40 243 q 78 534 40 454 q 185 657 117 614 q 343 700 254 700 q 463 674 408 700 q 549 603 518 647 l 549 979 m 943 979 l 907 708 l 828 708 l 828 979 l 943 979 m 418 174 q 518 218 483 174 q 553 346 553 263 q 518 472 553 428 q 418 515 483 515 q 319 472 354 515 q 285 349 285 429 q 320 219 285 265 q 418 174 356 174 z "},"đ":{"ha":868,"x_min":40,"x_max":911,"o":"m 911 728 l 796 728 l 796 0 l 553 0 l 553 93 q 467 17 524 44 q 343 -11 411 -11 q 187 34 256 -11 q 79 161 118 79 q 40 349 40 243 q 78 534 40 454 q 185 657 117 614 q 343 700 254 700 q 463 674 408 700 q 549 603 518 647 l 549 728 l 294 728 l 294 897 l 549 897 l 549 979 l 796 979 l 796 897 l 911 897 l 911 728 m 418 174 q 518 218 483 174 q 553 346 553 263 q 518 472 553 428 q 418 515 483 515 q 319 472 354 515 q 285 349 285 429 q 320 219 285 265 q 418 174 356 174 z "},"ḍ":{"ha":868,"x_min":40,"x_max":796,"o":"m 796 979 l 796 0 l 553 0 l 553 93 q 467 17 524 44 q 343 -11 411 -11 q 187 34 256 -11 q 79 161 118 79 q 40 349 40 243 q 78 534 40 454 q 185 657 117 614 q 343 700 254 700 q 463 674 408 700 q 549 603 518 647 l 549 979 l 796 979 m 418 174 q 518 218 483 174 q 553 346 553 263 q 518 472 553 428 q 418 515 483 515 q 319 472 354 515 q 285 349 285 429 q 320 219 285 265 q 418 174 356 174 m 543 -79 l 543 -285 l 326 -285 l 326 -79 l 543 -79 z "},"ḏ":{"ha":868,"x_min":40,"x_max":796,"o":"m 796 979 l 796 0 l 553 0 l 553 93 q 467 17 524 44 q 343 -11 411 -11 q 187 34 256 -11 q 79 161 118 79 q 40 349 40 243 q 78 534 40 454 q 185 657 117 614 q 343 700 254 700 q 463 674 408 700 q 549 603 518 647 l 549 979 l 796 979 m 418 174 q 518 218 483 174 q 553 346 553 263 q 518 472 553 428 q 418 515 483 515 q 319 472 354 515 q 285 349 285 429 q 320 219 285 265 q 418 174 356 174 m 214 -114 l 656 -114 l 656 -251 l 214 -251 l 214 -114 z "},"ǆ":{"ha":1589,"x_min":40,"x_max":1546,"o":"m 796 979 l 796 0 l 553 0 l 553 93 q 467 17 524 44 q 343 -11 411 -11 q 187 34 256 -11 q 79 161 118 79 q 40 349 40 243 q 78 534 40 454 q 185 657 117 614 q 343 700 254 700 q 463 674 408 700 q 549 603 518 647 l 549 979 l 796 979 m 418 174 q 518 218 483 174 q 553 346 553 263 q 518 472 553 428 q 418 515 483 515 q 319 472 354 515 q 285 349 285 429 q 320 219 285 265 q 418 174 356 174 m 1546 182 l 1546 0 l 931 0 l 931 174 l 1238 501 l 931 501 l 931 683 l 1532 683 l 1532 521 l 1217 182 l 1546 182 m 1500 1058 l 1313 772 l 1171 772 l 983 1058 l 1168 1058 l 1242 913 l 1315 1058 l 1500 1058 z "},"e":{"ha":743,"x_min":40,"x_max":703,"o":"m 703 294 l 281 294 q 329 199 292 228 q 436 169 367 169 q 538 186 486 169 q 629 232 589 203 l 692 69 q 568 10 640 32 q 424 -11 496 -11 q 219 32 306 -11 q 87 156 133 75 q 40 344 40 236 q 84 528 40 447 q 206 655 128 610 q 383 700 285 700 q 617 606 531 700 q 703 350 703 513 l 703 294 m 390 533 q 278 411 292 533 l 496 411 q 390 533 488 533 z "},"é":{"ha":743,"x_min":40,"x_max":703,"o":"m 703 294 l 281 294 q 329 199 292 228 q 436 169 367 169 q 538 186 486 169 q 629 232 589 203 l 692 69 q 568 10 640 32 q 424 -11 496 -11 q 219 32 306 -11 q 87 156 133 75 q 40 344 40 236 q 84 528 40 447 q 206 655 128 610 q 383 700 285 700 q 617 606 531 700 q 703 350 703 513 l 703 294 m 390 533 q 278 411 292 533 l 496 411 q 390 533 488 533 m 308 772 l 444 1058 l 678 1058 l 458 772 l 308 772 z "},"ĕ":{"ha":743,"x_min":40,"x_max":703,"o":"m 703 294 l 281 294 q 329 199 292 228 q 436 169 367 169 q 538 186 486 169 q 629 232 589 203 l 692 69 q 568 10 640 32 q 424 -11 496 -11 q 219 32 306 -11 q 87 156 133 75 q 40 344 40 236 q 84 528 40 447 q 206 655 128 610 q 383 700 285 700 q 617 606 531 700 q 703 350 703 513 l 703 294 m 390 533 q 278 411 292 533 l 496 411 q 390 533 488 533 m 383 800 q 213 855 288 800 q 115 1011 138 910 l 221 1056 q 383 950 282 950 q 546 1056 485 950 l 651 1010 q 554 855 629 910 q 383 800 479 800 z "},"ě":{"ha":743,"x_min":40,"x_max":703,"o":"m 703 294 l 281 294 q 329 199 292 228 q 436 169 367 169 q 538 186 486 169 q 629 232 589 203 l 692 69 q 568 10 640 32 q 424 -11 496 -11 q 219 32 306 -11 q 87 156 133 75 q 40 344 40 236 q 84 528 40 447 q 206 655 128 610 q 383 700 285 700 q 617 606 531 700 q 703 350 703 513 l 703 294 m 390 533 q 278 411 292 533 l 496 411 q 390 533 488 533 m 642 1058 l 454 772 l 313 772 l 125 1058 l 310 1058 l 383 913 l 457 1058 l 642 1058 z "},"ḝ":{"ha":743,"x_min":40,"x_max":703,"o":"m 383 800 q 213 855 288 800 q 115 1011 138 910 l 221 1056 q 383 950 282 950 q 546 1056 485 950 l 651 1010 q 554 855 629 910 q 383 800 479 800 m 703 294 l 281 294 q 329 199 292 228 q 436 169 367 169 q 538 186 486 169 q 629 232 589 203 l 692 69 q 588 17 649 38 q 463 -10 526 -4 l 454 -56 l 467 -56 q 555 -81 524 -56 q 586 -151 586 -107 q 535 -241 586 -207 q 389 -275 485 -275 q 322 -269 360 -275 q 257 -251 285 -262 l 271 -162 q 382 -182 338 -182 q 440 -151 440 -182 q 397 -128 440 -128 q 353 -135 381 -128 l 325 -104 l 338 -4 q 119 110 197 18 q 40 344 40 201 q 84 528 40 447 q 206 655 128 610 q 383 700 285 700 q 617 606 531 700 q 703 350 703 513 l 703 294 m 390 533 q 278 411 292 533 l 496 411 q 390 533 488 533 z "},"ê":{"ha":743,"x_min":40,"x_max":703,"o":"m 703 294 l 281 294 q 329 199 292 228 q 436 169 367 169 q 538 186 486 169 q 629 232 589 203 l 692 69 q 568 10 640 32 q 424 -11 496 -11 q 219 32 306 -11 q 87 156 133 75 q 40 344 40 236 q 84 528 40 447 q 206 655 128 610 q 383 700 285 700 q 617 606 531 700 q 703 350 703 513 l 703 294 m 390 533 q 278 411 292 533 l 496 411 q 390 533 488 533 m 125 772 l 313 1058 l 454 1058 l 642 772 l 457 772 l 383 919 l 310 772 l 125 772 z "},"ế":{"ha":743,"x_min":40,"x_max":803,"o":"m 703 294 l 281 294 q 329 199 292 228 q 436 169 367 169 q 538 186 486 169 q 629 232 589 203 l 692 69 q 568 10 640 32 q 424 -11 496 -11 q 219 32 306 -11 q 87 156 133 75 q 40 344 40 236 q 84 528 40 447 q 206 655 128 610 q 383 700 285 700 q 617 606 531 700 q 703 350 703 513 l 703 294 m 390 533 q 278 411 292 533 l 496 411 q 390 533 488 533 m 519 922 l 608 1118 l 803 1118 l 635 922 l 519 922 m 125 772 l 315 960 l 451 960 l 642 772 l 467 772 l 383 856 l 300 772 l 125 772 z "},"ệ":{"ha":743,"x_min":40,"x_max":703,"o":"m 703 294 l 281 294 q 329 199 292 228 q 436 169 367 169 q 538 186 486 169 q 629 232 589 203 l 692 69 q 568 10 640 32 q 424 -11 496 -11 q 219 32 306 -11 q 87 156 133 75 q 40 344 40 236 q 84 528 40 447 q 206 655 128 610 q 383 700 285 700 q 617 606 531 700 q 703 350 703 513 l 703 294 m 390 533 q 278 411 292 533 l 496 411 q 390 533 488 533 m 524 -79 l 524 -285 l 307 -285 l 307 -79 l 524 -79 m 125 772 l 313 1058 l 454 1058 l 642 772 l 457 772 l 383 919 l 310 772 l 125 772 z "},"ề":{"ha":743,"x_min":40,"x_max":703,"o":"m 703 294 l 281 294 q 329 199 292 228 q 436 169 367 169 q 538 186 486 169 q 629 232 589 203 l 692 69 q 568 10 640 32 q 424 -11 496 -11 q 219 32 306 -11 q 87 156 133 75 q 40 344 40 236 q 84 528 40 447 q 206 655 128 610 q 383 700 285 700 q 617 606 531 700 q 703 350 703 513 l 703 294 m 390 533 q 278 411 292 533 l 496 411 q 390 533 488 533 m 403 1118 l 597 1118 l 692 922 l 578 922 l 403 1118 m 125 772 l 315 960 l 451 960 l 642 772 l 467 772 l 383 856 l 300 772 l 125 772 z "},"ể":{"ha":743,"x_min":40,"x_max":750,"o":"m 703 294 l 281 294 q 329 199 292 228 q 436 169 367 169 q 538 186 486 169 q 629 232 589 203 l 692 69 q 568 10 640 32 q 424 -11 496 -11 q 219 32 306 -11 q 87 156 133 75 q 40 344 40 236 q 84 528 40 447 q 206 655 128 610 q 383 700 285 700 q 617 606 531 700 q 703 350 703 513 l 703 294 m 390 533 q 278 411 292 533 l 496 411 q 390 533 488 533 m 633 925 l 518 925 l 518 953 q 538 994 518 981 q 582 1015 557 1007 q 607 1026 607 1024 q 597 1037 607 1032 q 567 1042 588 1042 q 489 1028 535 1042 l 460 1101 q 599 1126 522 1126 q 709 1103 668 1126 q 750 1044 750 1081 q 733 1003 750 1018 q 683 976 715 989 q 646 958 658 967 q 633 935 633 950 l 633 925 m 125 772 l 315 960 l 451 960 l 642 772 l 467 772 l 383 856 l 300 772 l 125 772 z "},"ễ":{"ha":743,"x_min":40,"x_max":703,"o":"m 703 294 l 281 294 q 329 199 292 228 q 436 169 367 169 q 538 186 486 169 q 629 232 589 203 l 692 69 q 568 10 640 32 q 424 -11 496 -11 q 219 32 306 -11 q 87 156 133 75 q 40 344 40 236 q 84 528 40 447 q 206 655 128 610 q 383 700 285 700 q 617 606 531 700 q 703 350 703 513 l 703 294 m 390 533 q 278 411 292 533 l 496 411 q 390 533 488 533 m 135 986 q 183 1092 135 1049 q 296 1135 231 1135 q 347 1128 319 1135 q 397 1114 374 1122 q 475 1096 449 1096 q 515 1102 501 1096 q 532 1129 528 1108 l 632 1129 q 584 1024 632 1067 q 471 981 536 981 q 369 1003 433 981 q 292 1021 318 1021 q 253 1014 267 1021 q 235 986 239 1007 l 135 986 m 125 772 l 315 960 l 451 960 l 642 772 l 467 772 l 383 856 l 300 772 l 125 772 z "},"ȅ":{"ha":743,"x_min":40,"x_max":703,"o":"m 703 294 l 281 294 q 329 199 292 228 q 436 169 367 169 q 538 186 486 169 q 629 232 589 203 l 692 69 q 568 10 640 32 q 424 -11 496 -11 q 219 32 306 -11 q 87 156 133 75 q 40 344 40 236 q 84 528 40 447 q 206 655 128 610 q 383 700 285 700 q 617 606 531 700 q 703 350 703 513 l 703 294 m 390 533 q 278 411 292 533 l 496 411 q 390 533 488 533 m 124 1058 l 293 1058 l 333 772 l 232 772 l 124 1058 m 325 1058 l 494 1058 l 535 772 l 433 772 l 325 1058 z "},"ë":{"ha":743,"x_min":40,"x_max":703,"o":"m 703 294 l 281 294 q 329 199 292 228 q 436 169 367 169 q 538 186 486 169 q 629 232 589 203 l 692 69 q 568 10 640 32 q 424 -11 496 -11 q 219 32 306 -11 q 87 156 133 75 q 40 344 40 236 q 84 528 40 447 q 206 655 128 610 q 383 700 285 700 q 617 606 531 700 q 703 350 703 513 l 703 294 m 390 533 q 278 411 292 533 l 496 411 q 390 533 488 533 m 356 1017 l 356 810 l 136 810 l 136 1017 l 356 1017 m 631 1017 l 631 810 l 411 810 l 411 1017 l 631 1017 z "},"ė":{"ha":743,"x_min":40,"x_max":703,"o":"m 703 294 l 281 294 q 329 199 292 228 q 436 169 367 169 q 538 186 486 169 q 629 232 589 203 l 692 69 q 568 10 640 32 q 424 -11 496 -11 q 219 32 306 -11 q 87 156 133 75 q 40 344 40 236 q 84 528 40 447 q 206 655 128 610 q 383 700 285 700 q 617 606 531 700 q 703 350 703 513 l 703 294 m 390 533 q 278 411 292 533 l 496 411 q 390 533 488 533 m 513 1025 l 513 801 l 254 801 l 254 1025 l 513 1025 z "},"ẹ":{"ha":743,"x_min":40,"x_max":703,"o":"m 703 294 l 281 294 q 329 199 292 228 q 436 169 367 169 q 538 186 486 169 q 629 232 589 203 l 692 69 q 568 10 640 32 q 424 -11 496 -11 q 219 32 306 -11 q 87 156 133 75 q 40 344 40 236 q 84 528 40 447 q 206 655 128 610 q 383 700 285 700 q 617 606 531 700 q 703 350 703 513 l 703 294 m 390 533 q 278 411 292 533 l 496 411 q 390 533 488 533 m 524 -79 l 524 -285 l 307 -285 l 307 -79 l 524 -79 z "},"è":{"ha":743,"x_min":40,"x_max":703,"o":"m 703 294 l 281 294 q 329 199 292 228 q 436 169 367 169 q 538 186 486 169 q 629 232 589 203 l 692 69 q 568 10 640 32 q 424 -11 496 -11 q 219 32 306 -11 q 87 156 133 75 q 40 344 40 236 q 84 528 40 447 q 206 655 128 610 q 383 700 285 700 q 617 606 531 700 q 703 350 703 513 l 703 294 m 390 533 q 278 411 292 533 l 496 411 q 390 533 488 533 m 89 1058 l 322 1058 l 458 772 l 308 772 l 89 1058 z "},"ẻ":{"ha":743,"x_min":40,"x_max":703,"o":"m 703 294 l 281 294 q 329 199 292 228 q 436 169 367 169 q 538 186 486 169 q 629 232 589 203 l 692 69 q 568 10 640 32 q 424 -11 496 -11 q 219 32 306 -11 q 87 156 133 75 q 40 344 40 236 q 84 528 40 447 q 206 655 128 610 q 383 700 285 700 q 617 606 531 700 q 703 350 703 513 l 703 294 m 390 533 q 278 411 292 533 l 496 411 q 390 533 488 533 m 443 772 l 326 772 l 326 806 q 340 854 326 835 q 378 892 354 874 q 399 911 392 903 q 406 929 406 919 q 363 961 406 961 q 299 949 332 961 l 267 1035 q 389 1061 326 1061 q 514 1030 469 1061 q 558 954 558 999 q 540 901 558 921 q 489 857 522 881 q 454 829 465 840 q 443 803 443 818 l 443 772 z "},"ȇ":{"ha":743,"x_min":40,"x_max":703,"o":"m 703 294 l 281 294 q 329 199 292 228 q 436 169 367 169 q 538 186 486 169 q 629 232 589 203 l 692 69 q 568 10 640 32 q 424 -11 496 -11 q 219 32 306 -11 q 87 156 133 75 q 40 344 40 236 q 84 528 40 447 q 206 655 128 610 q 383 700 285 700 q 617 606 531 700 q 703 350 703 513 l 703 294 m 390 533 q 278 411 292 533 l 496 411 q 390 533 488 533 m 383 1049 q 554 994 479 1049 q 651 838 629 939 l 546 793 q 383 899 483 899 q 221 793 283 899 l 115 839 q 213 994 138 939 q 383 1049 288 1049 z "},"ē":{"ha":743,"x_min":40,"x_max":703,"o":"m 703 294 l 281 294 q 329 199 292 228 q 436 169 367 169 q 538 186 486 169 q 629 232 589 203 l 692 69 q 568 10 640 32 q 424 -11 496 -11 q 219 32 306 -11 q 87 156 133 75 q 40 344 40 236 q 84 528 40 447 q 206 655 128 610 q 383 700 285 700 q 617 606 531 700 q 703 350 703 513 l 703 294 m 390 533 q 278 411 292 533 l 496 411 q 390 533 488 533 m 163 986 l 604 986 l 604 839 l 163 839 l 163 986 z "},"ḗ":{"ha":743,"x_min":40,"x_max":703,"o":"m 703 294 l 281 294 q 329 199 292 228 q 436 169 367 169 q 538 186 486 169 q 629 232 589 203 l 692 69 q 568 10 640 32 q 424 -11 496 -11 q 219 32 306 -11 q 87 156 133 75 q 40 344 40 236 q 84 528 40 447 q 206 655 128 610 q 383 700 285 700 q 617 606 531 700 q 703 350 703 513 l 703 294 m 390 533 q 278 411 292 533 l 496 411 q 390 533 488 533 m 163 986 l 604 986 l 604 839 l 163 839 l 163 986 m 308 1035 l 444 1321 l 678 1321 l 458 1035 l 308 1035 z "},"ḕ":{"ha":743,"x_min":40,"x_max":703,"o":"m 703 294 l 281 294 q 329 199 292 228 q 436 169 367 169 q 538 186 486 169 q 629 232 589 203 l 692 69 q 568 10 640 32 q 424 -11 496 -11 q 219 32 306 -11 q 87 156 133 75 q 40 344 40 236 q 84 528 40 447 q 206 655 128 610 q 383 700 285 700 q 617 606 531 700 q 703 350 703 513 l 703 294 m 390 533 q 278 411 292 533 l 496 411 q 390 533 488 533 m 163 986 l 604 986 l 604 839 l 163 839 l 163 986 m 89 1321 l 322 1321 l 458 1035 l 308 1035 l 89 1321 z "},"ę":{"ha":743,"x_min":40,"x_max":703,"o":"m 703 294 l 281 294 q 329 199 292 228 q 436 169 367 169 q 538 186 486 169 q 629 232 589 203 l 692 69 q 610 25 674 56 q 535 -24 557 0 q 514 -83 514 -49 q 593 -153 514 -153 q 667 -139 629 -153 l 690 -249 q 543 -275 625 -275 q 413 -231 464 -275 q 361 -121 361 -187 q 407 -11 361 -56 q 138 90 236 -6 q 40 344 40 185 q 84 528 40 447 q 206 655 128 610 q 383 700 285 700 q 617 606 531 700 q 703 350 703 513 l 703 294 m 390 533 q 314 501 343 533 q 278 411 285 469 l 496 411 q 390 533 488 533 z "},"ẽ":{"ha":743,"x_min":40,"x_max":703,"o":"m 703 294 l 281 294 q 329 199 292 228 q 436 169 367 169 q 538 186 486 169 q 629 232 589 203 l 692 69 q 568 10 640 32 q 424 -11 496 -11 q 219 32 306 -11 q 87 156 133 75 q 40 344 40 236 q 84 528 40 447 q 206 655 128 610 q 383 700 285 700 q 617 606 531 700 q 703 350 703 513 l 703 294 m 390 533 q 278 411 292 533 l 496 411 q 390 533 488 533 m 135 810 q 181 974 135 919 q 296 1028 226 1028 q 342 1019 319 1028 q 397 990 364 1010 q 442 966 425 974 q 475 958 458 958 q 513 975 499 958 q 532 1024 528 992 l 632 1024 q 586 860 632 914 q 471 806 540 806 q 425 815 447 806 q 369 843 403 824 q 325 867 342 860 q 292 875 308 875 q 253 858 268 875 q 235 810 239 842 l 135 810 z "},"ə":{"ha":743,"x_min":40,"x_max":701,"o":"m 338 700 q 529 656 447 700 q 656 532 611 613 q 701 344 701 451 q 660 160 701 240 q 543 34 618 79 q 371 -11 468 -11 q 129 81 218 -11 q 40 336 40 174 l 40 394 l 467 394 q 421 490 456 461 q 319 519 386 519 q 114 457 231 519 l 51 619 q 180 679 104 658 q 338 700 256 700 m 360 156 q 471 278 458 156 l 253 278 q 360 156 261 156 z "},"f":{"ha":547,"x_min":4,"x_max":585,"o":"m 379 683 l 543 683 l 543 501 l 379 501 l 379 0 l 132 0 l 132 501 l 4 501 l 4 683 l 132 683 q 226 899 139 826 q 486 982 313 972 l 571 988 l 585 808 l 519 806 q 410 782 440 803 q 379 708 379 761 l 379 683 z "},"g":{"ha":874,"x_min":40,"x_max":801,"o":"m 801 683 l 801 83 q 701 -174 801 -86 q 403 -261 600 -261 q 222 -240 310 -261 q 71 -179 135 -218 l 133 -11 q 266 -62 197 -44 q 396 -81 335 -81 q 517 -45 478 -81 q 557 67 557 -10 l 557 119 q 469 47 526 74 q 346 19 413 19 q 188 61 257 19 q 79 180 118 103 q 40 358 40 257 q 79 538 40 460 q 188 658 118 615 q 346 700 257 700 q 471 672 414 700 q 558 596 528 644 l 558 683 l 801 683 m 421 204 q 522 245 486 204 q 558 358 558 286 q 522 474 558 432 q 421 515 486 515 q 321 474 357 515 q 285 358 285 433 q 322 245 285 286 q 421 204 358 204 z "},"ğ":{"ha":874,"x_min":40,"x_max":801,"o":"m 801 683 l 801 83 q 701 -174 801 -86 q 403 -261 600 -261 q 222 -240 310 -261 q 71 -179 135 -218 l 133 -11 q 266 -62 197 -44 q 396 -81 335 -81 q 517 -45 478 -81 q 557 67 557 -10 l 557 119 q 469 47 526 74 q 346 19 413 19 q 188 61 257 19 q 79 180 118 103 q 40 358 40 257 q 79 538 40 460 q 188 658 118 615 q 346 700 257 700 q 471 672 414 700 q 558 596 528 644 l 558 683 l 801 683 m 421 204 q 522 245 486 204 q 558 358 558 286 q 522 474 558 432 q 421 515 486 515 q 321 474 357 515 q 285 358 285 433 q 322 245 285 286 q 421 204 358 204 m 438 800 q 267 855 342 800 q 169 1011 192 910 l 275 1056 q 438 950 336 950 q 600 1056 539 950 l 706 1010 q 608 855 683 910 q 438 800 533 800 z "},"ǧ":{"ha":874,"x_min":40,"x_max":801,"o":"m 801 683 l 801 83 q 701 -174 801 -86 q 403 -261 600 -261 q 222 -240 310 -261 q 71 -179 135 -218 l 133 -11 q 266 -62 197 -44 q 396 -81 335 -81 q 517 -45 478 -81 q 557 67 557 -10 l 557 119 q 469 47 526 74 q 346 19 413 19 q 188 61 257 19 q 79 180 118 103 q 40 358 40 257 q 79 538 40 460 q 188 658 118 615 q 346 700 257 700 q 471 672 414 700 q 558 596 528 644 l 558 683 l 801 683 m 421 204 q 522 245 486 204 q 558 358 558 286 q 522 474 558 432 q 421 515 486 515 q 321 474 357 515 q 285 358 285 433 q 322 245 285 286 q 421 204 358 204 m 696 1058 l 508 772 l 367 772 l 179 1058 l 364 1058 l 438 913 l 511 1058 l 696 1058 z "},"ĝ":{"ha":874,"x_min":40,"x_max":801,"o":"m 801 683 l 801 83 q 701 -174 801 -86 q 403 -261 600 -261 q 222 -240 310 -261 q 71 -179 135 -218 l 133 -11 q 266 -62 197 -44 q 396 -81 335 -81 q 517 -45 478 -81 q 557 67 557 -10 l 557 119 q 469 47 526 74 q 346 19 413 19 q 188 61 257 19 q 79 180 118 103 q 40 358 40 257 q 79 538 40 460 q 188 658 118 615 q 346 700 257 700 q 471 672 414 700 q 558 596 528 644 l 558 683 l 801 683 m 421 204 q 522 245 486 204 q 558 358 558 286 q 522 474 558 432 q 421 515 486 515 q 321 474 357 515 q 285 358 285 433 q 322 245 285 286 q 421 204 358 204 m 179 772 l 367 1058 l 508 1058 l 696 772 l 511 772 l 438 919 l 364 772 l 179 772 z "},"ģ":{"ha":874,"x_min":40,"x_max":801,"o":"m 801 683 l 801 83 q 701 -174 801 -86 q 403 -261 600 -261 q 222 -240 310 -261 q 71 -179 135 -218 l 133 -11 q 266 -62 197 -44 q 396 -81 335 -81 q 517 -45 478 -81 q 557 67 557 -10 l 557 119 q 469 47 526 74 q 346 19 413 19 q 188 61 257 19 q 79 180 118 103 q 40 358 40 257 q 79 538 40 460 q 188 658 118 615 q 346 700 257 700 q 471 672 414 700 q 558 596 528 644 l 558 683 l 801 683 m 421 204 q 522 245 486 204 q 558 358 558 286 q 522 474 558 432 q 421 515 486 515 q 321 474 357 515 q 285 358 285 433 q 322 245 285 286 q 421 204 358 204 m 554 988 l 554 813 l 319 813 l 319 906 q 340 1024 319 974 q 408 1115 360 1074 l 492 1058 q 444 988 456 1028 l 554 988 z "},"ġ":{"ha":874,"x_min":40,"x_max":801,"o":"m 801 683 l 801 83 q 701 -174 801 -86 q 403 -261 600 -261 q 222 -240 310 -261 q 71 -179 135 -218 l 133 -11 q 266 -62 197 -44 q 396 -81 335 -81 q 517 -45 478 -81 q 557 67 557 -10 l 557 119 q 469 47 526 74 q 346 19 413 19 q 188 61 257 19 q 79 180 118 103 q 40 358 40 257 q 79 538 40 460 q 188 658 118 615 q 346 700 257 700 q 471 672 414 700 q 558 596 528 644 l 558 683 l 801 683 m 421 204 q 522 245 486 204 q 558 358 558 286 q 522 474 558 432 q 421 515 486 515 q 321 474 357 515 q 285 358 285 433 q 322 245 285 286 q 421 204 358 204 m 567 1025 l 567 801 l 308 801 l 308 1025 l 567 1025 z "},"ḡ":{"ha":874,"x_min":40,"x_max":801,"o":"m 801 683 l 801 83 q 701 -174 801 -86 q 403 -261 600 -261 q 222 -240 310 -261 q 71 -179 135 -218 l 133 -11 q 266 -62 197 -44 q 396 -81 335 -81 q 517 -45 478 -81 q 557 67 557 -10 l 557 119 q 469 47 526 74 q 346 19 413 19 q 188 61 257 19 q 79 180 118 103 q 40 358 40 257 q 79 538 40 460 q 188 658 118 615 q 346 700 257 700 q 471 672 414 700 q 558 596 528 644 l 558 683 l 801 683 m 421 204 q 522 245 486 204 q 558 358 558 286 q 522 474 558 432 q 421 515 486 515 q 321 474 357 515 q 285 358 285 433 q 322 245 285 286 q 421 204 358 204 m 217 986 l 658 986 l 658 839 l 217 839 l 217 986 z "},"h":{"ha":840,"x_min":72,"x_max":774,"o":"m 532 700 q 714 627 654 700 q 774 406 774 554 l 774 0 l 526 0 l 526 394 q 505 483 526 456 q 440 511 483 511 q 352 476 385 511 q 319 381 319 440 l 319 0 l 72 0 l 72 979 l 319 979 l 319 601 q 411 675 357 650 q 532 700 465 700 z "},"ħ":{"ha":840,"x_min":-43,"x_max":774,"o":"m 532 700 q 714 627 654 700 q 774 406 774 554 l 774 0 l 526 0 l 526 394 q 505 483 526 456 q 440 511 483 511 q 352 476 385 511 q 319 381 319 440 l 319 0 l 72 0 l 72 728 l -43 728 l -43 897 l 72 897 l 72 979 l 319 979 l 319 897 l 572 897 l 572 728 l 319 728 l 319 601 q 411 675 357 650 q 532 700 465 700 z "},"ḫ":{"ha":840,"x_min":72,"x_max":774,"o":"m 532 700 q 714 627 654 700 q 774 406 774 554 l 774 0 l 526 0 l 526 394 q 505 483 526 456 q 440 511 483 511 q 352 476 385 511 q 319 381 319 440 l 319 0 l 72 0 l 72 979 l 319 979 l 319 601 q 411 675 357 650 q 532 700 465 700 m 424 -324 q 253 -269 328 -324 q 156 -112 178 -214 l 261 -68 q 424 -174 324 -174 q 586 -68 524 -174 l 692 -112 q 594 -269 669 -214 q 424 -324 519 -324 z "},"ĥ":{"ha":840,"x_min":-60,"x_max":774,"o":"m 532 700 q 714 627 654 700 q 774 406 774 554 l 774 0 l 526 0 l 526 394 q 505 483 526 456 q 440 511 483 511 q 352 476 385 511 q 319 381 319 440 l 319 0 l 72 0 l 72 979 l 319 979 l 319 601 q 411 675 357 650 q 532 700 465 700 m -60 1063 l 131 1281 l 267 1281 l 457 1063 l 279 1063 l 199 1171 l 118 1063 l -60 1063 z "},"ḥ":{"ha":840,"x_min":72,"x_max":774,"o":"m 532 700 q 714 627 654 700 q 774 406 774 554 l 774 0 l 526 0 l 526 394 q 505 483 526 456 q 440 511 483 511 q 352 476 385 511 q 319 381 319 440 l 319 0 l 72 0 l 72 979 l 319 979 l 319 601 q 411 675 357 650 q 532 700 465 700 m 532 -79 l 532 -285 l 315 -285 l 315 -79 l 532 -79 z "},"i":{"ha":390,"x_min":67,"x_max":325,"o":"m 72 683 l 319 683 l 319 0 l 72 0 l 72 683 m 325 1025 l 325 801 l 67 801 l 67 1025 l 325 1025 z "},"ı":{"ha":390,"x_min":72,"x_max":319,"o":"m 72 683 l 319 683 l 319 0 l 72 0 l 72 683 z "},"í":{"ha":390,"x_min":72,"x_max":490,"o":"m 72 683 l 319 683 l 319 0 l 72 0 l 72 683 m 121 772 l 257 1058 l 490 1058 l 271 772 l 121 772 z "},"ĭ":{"ha":390,"x_min":-72,"x_max":464,"o":"m 72 683 l 319 683 l 319 0 l 72 0 l 72 683 m 196 800 q 25 855 100 800 q -72 1011 -50 910 l 33 1056 q 196 950 94 950 q 358 1056 297 950 l 464 1010 q 367 855 442 910 q 196 800 292 800 z "},"î":{"ha":390,"x_min":-62,"x_max":454,"o":"m 72 683 l 319 683 l 319 0 l 72 0 l 72 683 m -62 772 l 125 1058 l 267 1058 l 454 772 l 269 772 l 196 919 l 122 772 l -62 772 z "},"ȉ":{"ha":390,"x_min":-64,"x_max":347,"o":"m 72 683 l 319 683 l 319 0 l 72 0 l 72 683 m -64 1058 l 106 1058 l 146 772 l 44 772 l -64 1058 m 138 1058 l 307 1058 l 347 772 l 246 772 l 138 1058 z "},"ï":{"ha":390,"x_min":-51,"x_max":443,"o":"m 72 683 l 319 683 l 319 0 l 72 0 l 72 683 m 168 1017 l 168 810 l -51 810 l -51 1017 l 168 1017 m 443 1017 l 443 810 l 224 810 l 224 1017 l 443 1017 z "},"ḯ":{"ha":390,"x_min":-51,"x_max":490,"o":"m 72 683 l 319 683 l 319 0 l 72 0 l 72 683 m 168 1017 l 168 810 l -51 810 l -51 1017 l 168 1017 m 443 1017 l 443 810 l 224 810 l 224 1017 l 443 1017 m 121 1035 l 257 1321 l 490 1321 l 271 1035 l 121 1035 z "},"ị":{"ha":390,"x_min":67,"x_max":325,"o":"m 72 683 l 319 683 l 319 0 l 72 0 l 72 683 m 325 1025 l 325 801 l 67 801 l 67 1025 l 325 1025 m 304 -79 l 304 -285 l 88 -285 l 88 -79 l 304 -79 z "},"ì":{"ha":390,"x_min":-99,"x_max":319,"o":"m 72 683 l 319 683 l 319 0 l 72 0 l 72 683 m -99 1058 l 135 1058 l 271 772 l 121 772 l -99 1058 z "},"ỉ":{"ha":390,"x_min":72,"x_max":371,"o":"m 72 683 l 319 683 l 319 0 l 72 0 l 72 683 m 256 772 l 139 772 l 139 806 q 153 854 139 835 q 190 892 167 874 q 211 911 204 903 q 218 929 218 919 q 175 961 218 961 q 111 949 144 961 l 79 1035 q 201 1061 139 1061 q 326 1030 282 1061 q 371 954 371 999 q 353 901 371 921 q 301 857 335 881 q 267 829 278 840 q 256 803 256 818 l 256 772 z "},"ȋ":{"ha":390,"x_min":-72,"x_max":464,"o":"m 72 683 l 319 683 l 319 0 l 72 0 l 72 683 m 196 1049 q 367 994 292 1049 q 464 838 442 939 l 358 793 q 196 899 296 899 q 33 793 96 899 l -72 839 q 25 994 -50 939 q 196 1049 100 1049 z "},"ī":{"ha":390,"x_min":-25,"x_max":417,"o":"m 72 683 l 319 683 l 319 0 l 72 0 l 72 683 m -25 986 l 417 986 l 417 839 l -25 839 l -25 986 z "},"į":{"ha":390,"x_min":39,"x_max":367,"o":"m 325 801 l 67 801 l 67 1025 l 325 1025 l 325 801 m 367 -249 q 221 -275 301 -275 q 91 -232 143 -275 q 39 -117 39 -189 q 86 0 39 -51 l 72 0 l 72 683 l 319 683 l 319 0 l 303 0 q 222 -24 253 0 q 190 -83 190 -47 q 269 -153 190 -153 q 343 -139 307 -153 l 367 -249 z "},"ĩ":{"ha":390,"x_min":-53,"x_max":444,"o":"m 72 683 l 319 683 l 319 0 l 72 0 l 72 683 m -53 810 q -7 974 -53 919 q 108 1028 39 1028 q 154 1019 132 1028 q 210 990 176 1010 q 254 966 238 974 q 288 958 271 958 q 326 975 311 958 q 344 1024 340 992 l 444 1024 q 399 860 444 914 q 283 806 353 806 q 238 815 260 806 q 182 843 215 824 q 138 867 154 860 q 104 875 121 875 q 66 858 81 875 q 47 810 51 842 l -53 810 z "},"j":{"ha":390,"x_min":-100,"x_max":322,"o":"m 319 60 q 288 -118 319 -53 q 183 -215 256 -183 q -15 -256 111 -247 l -83 -260 l -100 -85 l -25 -79 q 51 -55 29 -75 q 72 11 72 -35 l 72 683 l 319 683 l 319 60 m 322 1025 l 322 801 l 64 801 l 64 1025 l 322 1025 z "},"ȷ":{"ha":390,"x_min":-100,"x_max":319,"o":"m 319 60 q 288 -118 319 -53 q 183 -215 256 -183 q -15 -256 111 -247 l -83 -260 l -100 -85 l -25 -79 q 51 -55 29 -75 q 72 11 72 -35 l 72 683 l 319 683 l 319 60 z "},"ĵ":{"ha":390,"x_min":-100,"x_max":451,"o":"m 319 60 q 288 -118 319 -53 q 183 -215 256 -183 q -15 -256 111 -247 l -83 -260 l -100 -85 l -25 -79 q 51 -55 29 -75 q 72 11 72 -35 l 72 683 l 319 683 l 319 60 m -65 772 l 122 1058 l 264 1058 l 451 772 l 267 772 l 193 919 l 119 772 l -65 772 z "},"k":{"ha":806,"x_min":72,"x_max":847,"o":"m 549 0 l 319 290 l 319 0 l 72 0 l 72 979 l 319 979 l 319 403 l 544 682 l 838 682 l 571 357 l 847 0 l 549 0 z "},"ķ":{"ha":806,"x_min":72,"x_max":847,"o":"m 549 0 l 319 290 l 319 0 l 72 0 l 72 979 l 319 979 l 319 403 l 544 682 l 838 682 l 571 357 l 847 0 l 549 0 m 519 -87 l 519 -181 q 499 -299 519 -249 q 431 -390 479 -349 l 347 -333 q 394 -262 383 -300 l 285 -262 l 285 -87 l 519 -87 z "},"ĸ":{"ha":806,"x_min":72,"x_max":847,"o":"m 549 0 l 319 290 l 319 0 l 72 0 l 72 683 l 319 683 l 319 403 l 544 682 l 838 682 l 571 357 l 847 0 l 549 0 z "},"l":{"ha":390,"x_min":72,"x_max":319,"o":"m 72 979 l 319 979 l 319 0 l 72 0 l 72 979 z "},"ĺ":{"ha":390,"x_min":72,"x_max":486,"o":"m 72 979 l 319 979 l 319 0 l 72 0 l 72 979 m 121 1063 l 265 1281 l 486 1281 l 271 1063 l 121 1063 z "},"ľ":{"ha":390,"x_min":72,"x_max":465,"o":"m 72 979 l 319 979 l 319 0 l 72 0 l 72 979 m 350 708 l 350 979 l 465 979 l 429 708 l 350 708 z "},"ļ":{"ha":390,"x_min":72,"x_max":319,"o":"m 72 979 l 319 979 l 319 0 l 72 0 l 72 979 m 313 -87 l 313 -181 q 292 -299 313 -249 q 224 -390 272 -349 l 140 -333 q 188 -262 176 -300 l 78 -262 l 78 -87 l 313 -87 z "},"ŀ":{"ha":579,"x_min":72,"x_max":614,"o":"m 72 979 l 319 979 l 319 0 l 72 0 l 72 979 m 614 599 l 614 379 l 358 379 l 358 599 l 614 599 z "},"ḷ":{"ha":390,"x_min":72,"x_max":319,"o":"m 72 979 l 319 979 l 319 0 l 72 0 l 72 979 m 304 -79 l 304 -285 l 88 -285 l 88 -79 l 304 -79 z "},"ǉ":{"ha":781,"x_min":72,"x_max":713,"o":"m 72 979 l 319 979 l 319 0 l 72 0 l 72 979 m 710 60 q 678 -118 710 -53 q 574 -215 646 -183 q 375 -256 501 -247 l 307 -260 l 290 -85 l 365 -79 q 441 -55 419 -75 q 463 11 463 -35 l 463 683 l 710 683 l 710 60 m 713 1025 l 713 801 l 454 801 l 454 1025 l 713 1025 z "},"ḻ":{"ha":390,"x_min":-25,"x_max":417,"o":"m 72 979 l 319 979 l 319 0 l 72 0 l 72 979 m -25 -114 l 417 -114 l 417 -251 l -25 -251 l -25 -114 z "},"ł":{"ha":525,"x_min":-28,"x_max":551,"o":"m 386 454 l 386 0 l 139 0 l 139 311 l 64 268 l -28 431 l 139 528 l 139 979 l 386 979 l 386 671 l 461 714 l 551 550 l 386 454 z "},"m":{"ha":1246,"x_min":72,"x_max":1179,"o":"m 944 700 q 1122 628 1064 700 q 1179 406 1179 556 l 1179 0 l 932 0 l 932 399 q 914 485 932 458 q 854 511 896 511 q 776 475 803 511 q 749 372 749 439 l 749 0 l 501 0 l 501 399 q 483 485 501 458 q 424 511 465 511 q 346 475 372 511 q 319 372 319 439 l 319 0 l 72 0 l 72 683 l 313 683 l 313 597 q 521 700 381 700 q 719 579 668 700 q 815 668 756 636 q 944 700 874 700 z "},"ṃ":{"ha":1246,"x_min":72,"x_max":1179,"o":"m 944 700 q 1122 628 1064 700 q 1179 406 1179 556 l 1179 0 l 932 0 l 932 399 q 914 485 932 458 q 854 511 896 511 q 776 475 803 511 q 749 372 749 439 l 749 0 l 501 0 l 501 399 q 483 485 501 458 q 424 511 465 511 q 346 475 372 511 q 319 372 319 439 l 319 0 l 72 0 l 72 683 l 313 683 l 313 597 q 521 700 381 700 q 719 579 668 700 q 815 668 756 636 q 944 700 874 700 m 733 -79 l 733 -285 l 517 -285 l 517 -79 l 733 -79 z "},"n":{"ha":840,"x_min":72,"x_max":774,"o":"m 532 700 q 714 627 654 700 q 774 406 774 554 l 774 0 l 526 0 l 526 394 q 505 483 526 456 q 440 511 483 511 q 352 476 385 511 q 319 381 319 440 l 319 0 l 72 0 l 72 683 l 313 683 l 313 592 q 406 672 349 644 q 532 700 463 700 z "},"ń":{"ha":840,"x_min":72,"x_max":774,"o":"m 532 700 q 714 627 654 700 q 774 406 774 554 l 774 0 l 526 0 l 526 394 q 505 483 526 456 q 440 511 483 511 q 352 476 385 511 q 319 381 319 440 l 319 0 l 72 0 l 72 683 l 313 683 l 313 592 q 406 672 349 644 q 532 700 463 700 m 349 772 l 485 1058 l 718 1058 l 499 772 l 349 772 z "},"ŉ":{"ha":840,"x_min":72,"x_max":774,"o":"m 322 1058 l 322 965 q 302 847 322 897 q 233 756 282 797 l 150 813 q 197 883 186 843 l 88 883 l 88 1058 l 322 1058 m 532 700 q 714 627 654 700 q 774 406 774 554 l 774 0 l 526 0 l 526 394 q 505 483 526 456 q 440 511 483 511 q 352 476 385 511 q 319 381 319 440 l 319 0 l 72 0 l 72 683 l 313 683 l 313 592 q 406 672 349 644 q 532 700 463 700 z "},"ň":{"ha":840,"x_min":72,"x_max":774,"o":"m 532 700 q 714 627 654 700 q 774 406 774 554 l 774 0 l 526 0 l 526 394 q 505 483 526 456 q 440 511 483 511 q 352 476 385 511 q 319 381 319 440 l 319 0 l 72 0 l 72 683 l 313 683 l 313 592 q 406 672 349 644 q 532 700 463 700 m 682 1058 l 494 772 l 353 772 l 165 1058 l 350 1058 l 424 913 l 497 1058 l 682 1058 z "},"ņ":{"ha":840,"x_min":72,"x_max":774,"o":"m 532 700 q 714 627 654 700 q 774 406 774 554 l 774 0 l 526 0 l 526 394 q 505 483 526 456 q 440 511 483 511 q 352 476 385 511 q 319 381 319 440 l 319 0 l 72 0 l 72 683 l 313 683 l 313 592 q 406 672 349 644 q 532 700 463 700 m 540 -87 l 540 -181 q 520 -299 540 -249 q 451 -390 500 -349 l 368 -333 q 415 -262 404 -300 l 306 -262 l 306 -87 l 540 -87 z "},"ṅ":{"ha":840,"x_min":72,"x_max":774,"o":"m 532 700 q 714 627 654 700 q 774 406 774 554 l 774 0 l 526 0 l 526 394 q 505 483 526 456 q 440 511 483 511 q 352 476 385 511 q 319 381 319 440 l 319 0 l 72 0 l 72 683 l 313 683 l 313 592 q 406 672 349 644 q 532 700 463 700 m 553 1025 l 553 801 l 294 801 l 294 1025 l 553 1025 z "},"ṇ":{"ha":840,"x_min":72,"x_max":774,"o":"m 532 700 q 714 627 654 700 q 774 406 774 554 l 774 0 l 526 0 l 526 394 q 505 483 526 456 q 440 511 483 511 q 352 476 385 511 q 319 381 319 440 l 319 0 l 72 0 l 72 683 l 313 683 l 313 592 q 406 672 349 644 q 532 700 463 700 m 532 -79 l 532 -285 l 315 -285 l 315 -79 l 532 -79 z "},"ŋ":{"ha":840,"x_min":72,"x_max":774,"o":"m 532 700 q 715 627 656 700 q 774 406 774 554 l 774 61 q 742 -117 774 -51 q 638 -215 710 -183 q 439 -253 565 -246 l 371 -257 l 357 -83 l 429 -78 q 505 -54 483 -74 q 526 13 526 -35 l 526 394 q 506 483 526 456 q 440 511 485 511 q 352 475 385 511 q 319 381 319 439 l 319 0 l 72 0 l 72 683 l 313 683 l 313 592 q 406 672 349 644 q 532 700 463 700 z "},"ǌ":{"ha":1231,"x_min":72,"x_max":1163,"o":"m 532 700 q 714 627 654 700 q 774 406 774 554 l 774 0 l 526 0 l 526 394 q 505 483 526 456 q 440 511 483 511 q 352 476 385 511 q 319 381 319 440 l 319 0 l 72 0 l 72 683 l 313 683 l 313 592 q 406 672 349 644 q 532 700 463 700 m 1160 60 q 1128 -118 1160 -53 q 1024 -215 1096 -183 q 825 -256 951 -247 l 757 -260 l 740 -85 l 815 -79 q 891 -55 869 -75 q 913 11 913 -35 l 913 683 l 1160 683 l 1160 60 m 1163 1025 l 1163 801 l 904 801 l 904 1025 l 1163 1025 z "},"ṉ":{"ha":840,"x_min":72,"x_max":774,"o":"m 532 700 q 714 627 654 700 q 774 406 774 554 l 774 0 l 526 0 l 526 394 q 505 483 526 456 q 440 511 483 511 q 352 476 385 511 q 319 381 319 440 l 319 0 l 72 0 l 72 683 l 313 683 l 313 592 q 406 672 349 644 q 532 700 463 700 m 203 -114 l 644 -114 l 644 -251 l 203 -251 l 203 -114 z "},"ñ":{"ha":840,"x_min":72,"x_max":774,"o":"m 532 700 q 714 627 654 700 q 774 406 774 554 l 774 0 l 526 0 l 526 394 q 505 483 526 456 q 440 511 483 511 q 352 476 385 511 q 319 381 319 440 l 319 0 l 72 0 l 72 683 l 313 683 l 313 592 q 406 672 349 644 q 532 700 463 700 m 175 810 q 221 974 175 919 q 336 1028 267 1028 q 382 1019 360 1028 q 438 990 404 1010 q 482 966 465 974 q 515 958 499 958 q 553 975 539 958 q 572 1024 568 992 l 672 1024 q 626 860 672 914 q 511 806 581 806 q 465 815 488 806 q 410 843 443 824 q 365 867 382 860 q 332 875 349 875 q 294 858 308 875 q 275 810 279 842 l 175 810 z "},"o":{"ha":833,"x_min":40,"x_max":793,"o":"m 417 -11 q 219 33 304 -11 q 87 157 133 76 q 40 346 40 238 q 87 534 40 454 q 218 657 133 614 q 417 700 303 700 q 615 657 531 700 q 747 534 700 614 q 793 346 793 454 q 747 157 793 238 q 615 33 700 76 q 417 -11 531 -11 m 417 174 q 549 346 549 174 q 417 518 549 518 q 285 346 285 518 q 417 174 285 174 z "},"ó":{"ha":833,"x_min":40,"x_max":793,"o":"m 417 -11 q 219 33 304 -11 q 87 157 133 76 q 40 346 40 238 q 87 534 40 454 q 218 657 133 614 q 417 700 303 700 q 615 657 531 700 q 747 534 700 614 q 793 346 793 454 q 747 157 793 238 q 615 33 700 76 q 417 -11 531 -11 m 417 174 q 549 346 549 174 q 417 518 549 518 q 285 346 285 518 q 417 174 285 174 m 342 772 l 478 1058 l 711 1058 l 492 772 l 342 772 z "},"ŏ":{"ha":833,"x_min":40,"x_max":793,"o":"m 417 -11 q 219 33 304 -11 q 87 157 133 76 q 40 346 40 238 q 87 534 40 454 q 218 657 133 614 q 417 700 303 700 q 615 657 531 700 q 747 534 700 614 q 793 346 793 454 q 747 157 793 238 q 615 33 700 76 q 417 -11 531 -11 m 417 174 q 549 346 549 174 q 417 518 549 518 q 285 346 285 518 q 417 174 285 174 m 417 800 q 246 855 321 800 q 149 1011 171 910 l 254 1056 q 417 950 315 950 q 579 1056 518 950 l 685 1010 q 588 855 663 910 q 417 800 513 800 z "},"ô":{"ha":833,"x_min":40,"x_max":793,"o":"m 417 -11 q 219 33 304 -11 q 87 157 133 76 q 40 346 40 238 q 87 534 40 454 q 218 657 133 614 q 417 700 303 700 q 615 657 531 700 q 747 534 700 614 q 793 346 793 454 q 747 157 793 238 q 615 33 700 76 q 417 -11 531 -11 m 417 174 q 549 346 549 174 q 417 518 549 518 q 285 346 285 518 q 417 174 285 174 m 158 772 l 346 1058 l 488 1058 l 675 772 l 490 772 l 417 919 l 343 772 l 158 772 z "},"ố":{"ha":833,"x_min":40,"x_max":836,"o":"m 417 -11 q 219 33 304 -11 q 87 157 133 76 q 40 346 40 238 q 87 534 40 454 q 218 657 133 614 q 417 700 303 700 q 615 657 531 700 q 747 534 700 614 q 793 346 793 454 q 747 157 793 238 q 615 33 700 76 q 417 -11 531 -11 m 417 174 q 549 346 549 174 q 417 518 549 518 q 285 346 285 518 q 417 174 285 174 m 553 922 l 642 1118 l 836 1118 l 668 922 l 553 922 m 158 772 l 349 960 l 485 960 l 675 772 l 500 772 l 417 856 l 333 772 l 158 772 z "},"ộ":{"ha":833,"x_min":40,"x_max":793,"o":"m 417 -11 q 219 33 304 -11 q 87 157 133 76 q 40 346 40 238 q 87 534 40 454 q 218 657 133 614 q 417 700 303 700 q 615 657 531 700 q 747 534 700 614 q 793 346 793 454 q 747 157 793 238 q 615 33 700 76 q 417 -11 531 -11 m 417 174 q 549 346 549 174 q 417 518 549 518 q 285 346 285 518 q 417 174 285 174 m 525 -79 l 525 -285 l 308 -285 l 308 -79 l 525 -79 m 158 772 l 346 1058 l 488 1058 l 675 772 l 490 772 l 417 919 l 343 772 l 158 772 z "},"ồ":{"ha":833,"x_min":40,"x_max":793,"o":"m 417 -11 q 219 33 304 -11 q 87 157 133 76 q 40 346 40 238 q 87 534 40 454 q 218 657 133 614 q 417 700 303 700 q 615 657 531 700 q 747 534 700 614 q 793 346 793 454 q 747 157 793 238 q 615 33 700 76 q 417 -11 531 -11 m 417 174 q 549 346 549 174 q 417 518 549 518 q 285 346 285 518 q 417 174 285 174 m 436 1118 l 631 1118 l 725 922 l 611 922 l 436 1118 m 158 772 l 349 960 l 485 960 l 675 772 l 500 772 l 417 856 l 333 772 l 158 772 z "},"ổ":{"ha":833,"x_min":40,"x_max":793,"o":"m 417 -11 q 219 33 304 -11 q 87 157 133 76 q 40 346 40 238 q 87 534 40 454 q 218 657 133 614 q 417 700 303 700 q 615 657 531 700 q 747 534 700 614 q 793 346 793 454 q 747 157 793 238 q 615 33 700 76 q 417 -11 531 -11 m 417 174 q 549 346 549 174 q 417 518 549 518 q 285 346 285 518 q 417 174 285 174 m 667 925 l 551 925 l 551 953 q 571 994 551 981 q 615 1015 590 1007 q 640 1026 640 1024 q 631 1037 640 1032 q 600 1042 621 1042 q 522 1028 568 1042 l 493 1101 q 632 1126 556 1126 q 742 1103 701 1126 q 783 1044 783 1081 q 766 1003 783 1018 q 717 976 749 989 q 679 958 692 967 q 667 935 667 950 l 667 925 m 158 772 l 349 960 l 485 960 l 675 772 l 500 772 l 417 856 l 333 772 l 158 772 z "},"ỗ":{"ha":833,"x_min":40,"x_max":793,"o":"m 417 -11 q 219 33 304 -11 q 87 157 133 76 q 40 346 40 238 q 87 534 40 454 q 218 657 133 614 q 417 700 303 700 q 615 657 531 700 q 747 534 700 614 q 793 346 793 454 q 747 157 793 238 q 615 33 700 76 q 417 -11 531 -11 m 417 174 q 549 346 549 174 q 417 518 549 518 q 285 346 285 518 q 417 174 285 174 m 168 986 q 216 1092 168 1049 q 329 1135 264 1135 q 380 1128 353 1135 q 431 1114 407 1122 q 508 1096 482 1096 q 548 1102 535 1096 q 565 1129 561 1108 l 665 1129 q 617 1024 665 1067 q 504 981 569 981 q 403 1003 467 981 q 325 1021 351 1021 q 286 1014 300 1021 q 268 986 272 1007 l 168 986 m 158 772 l 349 960 l 485 960 l 675 772 l 500 772 l 417 856 l 333 772 l 158 772 z "},"ȍ":{"ha":833,"x_min":40,"x_max":793,"o":"m 417 -11 q 219 33 304 -11 q 87 157 133 76 q 40 346 40 238 q 87 534 40 454 q 218 657 133 614 q 417 700 303 700 q 615 657 531 700 q 747 534 700 614 q 793 346 793 454 q 747 157 793 238 q 615 33 700 76 q 417 -11 531 -11 m 417 174 q 549 346 549 174 q 417 518 549 518 q 285 346 285 518 q 417 174 285 174 m 157 1058 l 326 1058 l 367 772 l 265 772 l 157 1058 m 358 1058 l 528 1058 l 568 772 l 467 772 l 358 1058 z "},"ö":{"ha":833,"x_min":40,"x_max":793,"o":"m 417 -11 q 219 33 304 -11 q 87 157 133 76 q 40 346 40 238 q 87 534 40 454 q 218 657 133 614 q 417 700 303 700 q 615 657 531 700 q 747 534 700 614 q 793 346 793 454 q 747 157 793 238 q 615 33 700 76 q 417 -11 531 -11 m 417 174 q 549 346 549 174 q 417 518 549 518 q 285 346 285 518 q 417 174 285 174 m 389 1017 l 389 810 l 169 810 l 169 1017 l 389 1017 m 664 1017 l 664 810 l 444 810 l 444 1017 l 664 1017 z "},"ȫ":{"ha":833,"x_min":40,"x_max":793,"o":"m 417 -11 q 219 33 304 -11 q 87 157 133 76 q 40 346 40 238 q 87 534 40 454 q 218 657 133 614 q 417 700 303 700 q 615 657 531 700 q 747 534 700 614 q 793 346 793 454 q 747 157 793 238 q 615 33 700 76 q 417 -11 531 -11 m 417 174 q 549 346 549 174 q 417 518 549 518 q 285 346 285 518 q 417 174 285 174 m 389 1017 l 389 810 l 169 810 l 169 1017 l 389 1017 m 664 1017 l 664 810 l 444 810 l 444 1017 l 664 1017 m 196 1249 l 638 1249 l 638 1101 l 196 1101 l 196 1249 z "},"ȱ":{"ha":833,"x_min":40,"x_max":793,"o":"m 417 -11 q 219 33 304 -11 q 87 157 133 76 q 40 346 40 238 q 87 534 40 454 q 218 657 133 614 q 417 700 303 700 q 615 657 531 700 q 747 534 700 614 q 793 346 793 454 q 747 157 793 238 q 615 33 700 76 q 417 -11 531 -11 m 417 174 q 549 346 549 174 q 417 518 549 518 q 285 346 285 518 q 417 174 285 174 m 546 1025 l 546 801 l 288 801 l 288 1025 l 546 1025 m 196 1249 l 638 1249 l 638 1101 l 196 1101 l 196 1249 z "},"ọ":{"ha":833,"x_min":40,"x_max":793,"o":"m 417 -11 q 219 33 304 -11 q 87 157 133 76 q 40 346 40 238 q 87 534 40 454 q 218 657 133 614 q 417 700 303 700 q 615 657 531 700 q 747 534 700 614 q 793 346 793 454 q 747 157 793 238 q 615 33 700 76 q 417 -11 531 -11 m 417 174 q 549 346 549 174 q 417 518 549 518 q 285 346 285 518 q 417 174 285 174 m 525 -79 l 525 -285 l 308 -285 l 308 -79 l 525 -79 z "},"ò":{"ha":833,"x_min":40,"x_max":793,"o":"m 417 -11 q 219 33 304 -11 q 87 157 133 76 q 40 346 40 238 q 87 534 40 454 q 218 657 133 614 q 417 700 303 700 q 615 657 531 700 q 747 534 700 614 q 793 346 793 454 q 747 157 793 238 q 615 33 700 76 q 417 -11 531 -11 m 417 174 q 549 346 549 174 q 417 518 549 518 q 285 346 285 518 q 417 174 285 174 m 122 1058 l 356 1058 l 492 772 l 342 772 l 122 1058 z "},"ỏ":{"ha":833,"x_min":40,"x_max":793,"o":"m 417 -11 q 219 33 304 -11 q 87 157 133 76 q 40 346 40 238 q 87 534 40 454 q 218 657 133 614 q 417 700 303 700 q 615 657 531 700 q 747 534 700 614 q 793 346 793 454 q 747 157 793 238 q 615 33 700 76 q 417 -11 531 -11 m 417 174 q 549 346 549 174 q 417 518 549 518 q 285 346 285 518 q 417 174 285 174 m 476 772 l 360 772 l 360 806 q 374 854 360 835 q 411 892 388 874 q 432 911 425 903 q 439 929 439 919 q 396 961 439 961 q 332 949 365 961 l 300 1035 q 422 1061 360 1061 q 547 1030 503 1061 q 592 954 592 999 q 574 901 592 921 q 522 857 556 881 q 488 829 499 840 q 476 803 476 818 l 476 772 z "},"ơ":{"ha":833,"x_min":40,"x_max":839,"o":"m 839 796 q 803 668 839 724 q 706 589 767 613 q 771 479 749 543 q 793 343 793 415 q 747 156 793 236 q 615 32 700 75 q 417 -11 531 -11 q 219 32 304 -11 q 87 156 133 75 q 40 343 40 236 q 87 533 40 453 q 217 657 133 614 q 413 700 301 700 q 504 692 451 700 l 533 689 q 601 717 574 689 q 628 825 628 744 l 628 856 l 839 856 l 839 796 m 417 174 q 549 346 549 174 q 417 518 549 518 q 285 346 285 518 q 417 174 285 174 z "},"ớ":{"ha":833,"x_min":40,"x_max":839,"o":"m 839 796 q 803 668 839 724 q 706 589 767 613 q 771 479 749 543 q 793 343 793 415 q 747 156 793 236 q 615 32 700 75 q 417 -11 531 -11 q 219 32 304 -11 q 87 156 133 75 q 40 343 40 236 q 87 533 40 453 q 217 657 133 614 q 413 700 301 700 q 504 692 451 700 l 533 689 q 601 717 574 689 q 628 825 628 744 l 628 856 l 839 856 l 839 796 m 417 174 q 549 346 549 174 q 417 518 549 518 q 285 346 285 518 q 417 174 285 174 m 342 772 l 478 1058 l 711 1058 l 492 772 l 342 772 z "},"ợ":{"ha":833,"x_min":40,"x_max":839,"o":"m 839 796 q 803 668 839 724 q 706 589 767 613 q 771 479 749 543 q 793 343 793 415 q 747 156 793 236 q 615 32 700 75 q 417 -11 531 -11 q 219 32 304 -11 q 87 156 133 75 q 40 343 40 236 q 87 533 40 453 q 217 657 133 614 q 413 700 301 700 q 504 692 451 700 l 533 689 q 601 717 574 689 q 628 825 628 744 l 628 856 l 839 856 l 839 796 m 417 174 q 549 346 549 174 q 417 518 549 518 q 285 346 285 518 q 417 174 285 174 m 525 -79 l 525 -285 l 308 -285 l 308 -79 l 525 -79 z "},"ờ":{"ha":833,"x_min":40,"x_max":839,"o":"m 839 796 q 803 668 839 724 q 706 589 767 613 q 771 479 749 543 q 793 343 793 415 q 747 156 793 236 q 615 32 700 75 q 417 -11 531 -11 q 219 32 304 -11 q 87 156 133 75 q 40 343 40 236 q 87 533 40 453 q 217 657 133 614 q 413 700 301 700 q 504 692 451 700 l 533 689 q 601 717 574 689 q 628 825 628 744 l 628 856 l 839 856 l 839 796 m 417 174 q 549 346 549 174 q 417 518 549 518 q 285 346 285 518 q 417 174 285 174 m 122 1058 l 356 1058 l 492 772 l 342 772 l 122 1058 z "},"ở":{"ha":833,"x_min":40,"x_max":839,"o":"m 839 796 q 803 668 839 724 q 706 589 767 613 q 771 479 749 543 q 793 343 793 415 q 747 156 793 236 q 615 32 700 75 q 417 -11 531 -11 q 219 32 304 -11 q 87 156 133 75 q 40 343 40 236 q 87 533 40 453 q 217 657 133 614 q 413 700 301 700 q 504 692 451 700 l 533 689 q 601 717 574 689 q 628 825 628 744 l 628 856 l 839 856 l 839 796 m 417 174 q 549 346 549 174 q 417 518 549 518 q 285 346 285 518 q 417 174 285 174 m 476 772 l 360 772 l 360 806 q 374 854 360 835 q 411 892 388 874 q 432 911 425 903 q 439 929 439 919 q 396 961 439 961 q 332 949 365 961 l 300 1035 q 422 1061 360 1061 q 547 1030 503 1061 q 592 954 592 999 q 574 901 592 921 q 522 857 556 881 q 488 829 499 840 q 476 803 476 818 l 476 772 z "},"ỡ":{"ha":833,"x_min":40,"x_max":839,"o":"m 839 796 q 803 668 839 724 q 706 589 767 613 q 771 479 749 543 q 793 343 793 415 q 747 156 793 236 q 615 32 700 75 q 417 -11 531 -11 q 219 32 304 -11 q 87 156 133 75 q 40 343 40 236 q 87 533 40 453 q 217 657 133 614 q 413 700 301 700 q 504 692 451 700 l 533 689 q 601 717 574 689 q 628 825 628 744 l 628 856 l 839 856 l 839 796 m 417 174 q 549 346 549 174 q 417 518 549 518 q 285 346 285 518 q 417 174 285 174 m 168 810 q 214 974 168 919 q 329 1028 260 1028 q 375 1019 353 1028 q 431 990 397 1010 q 475 966 458 974 q 508 958 492 958 q 547 975 532 958 q 565 1024 561 992 l 665 1024 q 619 860 665 914 q 504 806 574 806 q 458 815 481 806 q 403 843 436 824 q 358 867 375 860 q 325 875 342 875 q 287 858 301 875 q 268 810 272 842 l 168 810 z "},"ő":{"ha":833,"x_min":40,"x_max":793,"o":"m 417 -11 q 219 33 304 -11 q 87 157 133 76 q 40 346 40 238 q 87 534 40 454 q 218 657 133 614 q 417 700 303 700 q 615 657 531 700 q 747 534 700 614 q 793 346 793 454 q 747 157 793 238 q 615 33 700 76 q 417 -11 531 -11 m 417 174 q 549 346 549 174 q 417 518 549 518 q 285 346 285 518 q 417 174 285 174 m 265 772 l 306 1058 l 475 1058 l 367 772 l 265 772 m 467 772 l 507 1058 l 676 1058 l 568 772 l 467 772 z "},"ȏ":{"ha":833,"x_min":40,"x_max":793,"o":"m 417 -11 q 219 33 304 -11 q 87 157 133 76 q 40 346 40 238 q 87 534 40 454 q 218 657 133 614 q 417 700 303 700 q 615 657 531 700 q 747 534 700 614 q 793 346 793 454 q 747 157 793 238 q 615 33 700 76 q 417 -11 531 -11 m 417 174 q 549 346 549 174 q 417 518 549 518 q 285 346 285 518 q 417 174 285 174 m 417 1049 q 588 994 513 1049 q 685 838 663 939 l 579 793 q 417 899 517 899 q 254 793 317 899 l 149 839 q 246 994 171 939 q 417 1049 321 1049 z "},"ō":{"ha":833,"x_min":40,"x_max":793,"o":"m 417 -11 q 219 33 304 -11 q 87 157 133 76 q 40 346 40 238 q 87 534 40 454 q 218 657 133 614 q 417 700 303 700 q 615 657 531 700 q 747 534 700 614 q 793 346 793 454 q 747 157 793 238 q 615 33 700 76 q 417 -11 531 -11 m 417 174 q 549 346 549 174 q 417 518 549 518 q 285 346 285 518 q 417 174 285 174 m 196 986 l 638 986 l 638 839 l 196 839 l 196 986 z "},"ṓ":{"ha":833,"x_min":40,"x_max":793,"o":"m 417 -11 q 219 33 304 -11 q 87 157 133 76 q 40 346 40 238 q 87 534 40 454 q 218 657 133 614 q 417 700 303 700 q 615 657 531 700 q 747 534 700 614 q 793 346 793 454 q 747 157 793 238 q 615 33 700 76 q 417 -11 531 -11 m 417 174 q 549 346 549 174 q 417 518 549 518 q 285 346 285 518 q 417 174 285 174 m 196 986 l 638 986 l 638 839 l 196 839 l 196 986 m 342 1035 l 478 1321 l 711 1321 l 492 1035 l 342 1035 z "},"ṑ":{"ha":833,"x_min":40,"x_max":793,"o":"m 417 -11 q 219 33 304 -11 q 87 157 133 76 q 40 346 40 238 q 87 534 40 454 q 218 657 133 614 q 417 700 303 700 q 615 657 531 700 q 747 534 700 614 q 793 346 793 454 q 747 157 793 238 q 615 33 700 76 q 417 -11 531 -11 m 417 174 q 549 346 549 174 q 417 518 549 518 q 285 346 285 518 q 417 174 285 174 m 196 986 l 638 986 l 638 839 l 196 839 l 196 986 m 122 1321 l 356 1321 l 492 1035 l 342 1035 l 122 1321 z "},"ǫ":{"ha":833,"x_min":40,"x_max":793,"o":"m 557 8 q 497 -26 518 -1 q 475 -83 475 -50 q 554 -153 475 -153 q 628 -139 592 -153 l 651 -249 q 506 -275 586 -275 q 375 -231 426 -275 q 324 -121 324 -187 q 371 -8 324 -56 q 128 101 217 7 q 40 346 40 194 q 87 534 40 454 q 218 657 133 614 q 417 700 303 700 q 615 657 531 700 q 747 534 700 614 q 793 346 793 454 q 730 129 793 219 q 557 8 667 39 m 417 174 q 549 346 549 174 q 417 518 549 518 q 285 346 285 518 q 417 174 285 174 z "},"ø":{"ha":833,"x_min":40,"x_max":793,"o":"m 658 632 q 758 513 724 586 q 793 346 793 440 q 747 157 793 238 q 615 33 700 76 q 417 -11 531 -11 q 292 4 353 -11 l 233 -96 l 124 -31 l 175 58 q 76 178 111 104 q 40 346 40 253 q 87 534 40 454 q 218 657 133 614 q 417 700 303 700 q 542 685 481 700 l 600 785 l 710 719 l 658 632 m 281 346 q 292 257 281 297 l 444 518 q 417 519 435 519 q 314 478 347 519 q 281 346 281 436 m 417 171 q 520 213 486 171 q 554 346 554 256 q 543 433 554 396 l 390 172 q 417 171 399 171 z "},"ǿ":{"ha":833,"x_min":40,"x_max":793,"o":"m 658 632 q 758 513 724 586 q 793 346 793 440 q 747 157 793 238 q 615 33 700 76 q 417 -11 531 -11 q 292 4 353 -11 l 233 -96 l 124 -31 l 175 58 q 76 178 111 104 q 40 346 40 253 q 87 534 40 454 q 218 657 133 614 q 417 700 303 700 q 542 685 481 700 l 600 785 l 710 719 l 658 632 m 281 346 q 292 257 281 297 l 444 518 q 417 519 435 519 q 314 478 347 519 q 281 346 281 436 m 417 171 q 520 213 486 171 q 554 346 554 256 q 543 433 554 396 l 390 172 q 417 171 399 171 m 342 772 l 478 1058 l 711 1058 l 492 772 l 342 772 z "},"õ":{"ha":833,"x_min":40,"x_max":793,"o":"m 417 -11 q 219 33 304 -11 q 87 157 133 76 q 40 346 40 238 q 87 534 40 454 q 218 657 133 614 q 417 700 303 700 q 615 657 531 700 q 747 534 700 614 q 793 346 793 454 q 747 157 793 238 q 615 33 700 76 q 417 -11 531 -11 m 417 174 q 549 346 549 174 q 417 518 549 518 q 285 346 285 518 q 417 174 285 174 m 168 810 q 214 974 168 919 q 329 1028 260 1028 q 375 1019 353 1028 q 431 990 397 1010 q 475 966 458 974 q 508 958 492 958 q 547 975 532 958 q 565 1024 561 992 l 665 1024 q 619 860 665 914 q 504 806 574 806 q 458 815 481 806 q 403 843 436 824 q 358 867 375 860 q 325 875 342 875 q 287 858 301 875 q 268 810 272 842 l 168 810 z "},"ṍ":{"ha":833,"x_min":40,"x_max":793,"o":"m 417 -11 q 219 33 304 -11 q 87 157 133 76 q 40 346 40 238 q 87 534 40 454 q 218 657 133 614 q 417 700 303 700 q 615 657 531 700 q 747 534 700 614 q 793 346 793 454 q 747 157 793 238 q 615 33 700 76 q 417 -11 531 -11 m 417 174 q 549 346 549 174 q 417 518 549 518 q 285 346 285 518 q 417 174 285 174 m 168 810 q 214 974 168 919 q 329 1028 260 1028 q 375 1019 353 1028 q 431 990 397 1010 q 475 966 458 974 q 508 958 492 958 q 547 975 532 958 q 565 1024 561 992 l 665 1024 q 619 860 665 914 q 504 806 574 806 q 458 815 481 806 q 403 843 436 824 q 358 867 375 860 q 325 875 342 875 q 287 858 301 875 q 268 810 272 842 l 168 810 m 342 1035 l 478 1321 l 711 1321 l 492 1035 l 342 1035 z "},"ṏ":{"ha":833,"x_min":40,"x_max":793,"o":"m 417 -11 q 219 33 304 -11 q 87 157 133 76 q 40 346 40 238 q 87 534 40 454 q 218 657 133 614 q 417 700 303 700 q 615 657 531 700 q 747 534 700 614 q 793 346 793 454 q 747 157 793 238 q 615 33 700 76 q 417 -11 531 -11 m 417 174 q 549 346 549 174 q 417 518 549 518 q 285 346 285 518 q 417 174 285 174 m 168 810 q 214 974 168 919 q 329 1028 260 1028 q 375 1019 353 1028 q 431 990 397 1010 q 475 966 458 974 q 508 958 492 958 q 547 975 532 958 q 565 1024 561 992 l 665 1024 q 619 860 665 914 q 504 806 574 806 q 458 815 481 806 q 403 843 436 824 q 358 867 375 860 q 325 875 342 875 q 287 858 301 875 q 268 810 272 842 l 168 810 m 389 1279 l 389 1072 l 169 1072 l 169 1279 l 389 1279 m 664 1279 l 664 1072 l 444 1072 l 444 1279 l 664 1279 z "},"ȭ":{"ha":833,"x_min":40,"x_max":793,"o":"m 417 -11 q 219 33 304 -11 q 87 157 133 76 q 40 346 40 238 q 87 534 40 454 q 218 657 133 614 q 417 700 303 700 q 615 657 531 700 q 747 534 700 614 q 793 346 793 454 q 747 157 793 238 q 615 33 700 76 q 417 -11 531 -11 m 417 174 q 549 346 549 174 q 417 518 549 518 q 285 346 285 518 q 417 174 285 174 m 168 810 q 214 974 168 919 q 329 1028 260 1028 q 375 1019 353 1028 q 431 990 397 1010 q 475 966 458 974 q 508 958 492 958 q 547 975 532 958 q 565 1024 561 992 l 665 1024 q 619 860 665 914 q 504 806 574 806 q 458 815 481 806 q 403 843 436 824 q 358 867 375 860 q 325 875 342 875 q 287 858 301 875 q 268 810 272 842 l 168 810 m 196 1249 l 638 1249 l 638 1101 l 196 1101 l 196 1249 z "},"œ":{"ha":1244,"x_min":40,"x_max":1206,"o":"m 1206 294 l 790 294 q 833 199 800 228 q 928 169 865 169 q 1035 186 982 169 q 1132 232 1088 203 l 1194 69 q 1071 10 1143 32 q 925 -11 999 -11 q 665 90 754 -11 q 556 15 621 40 q 410 -11 492 -11 q 215 33 299 -11 q 85 157 131 76 q 40 346 40 238 q 85 533 40 453 q 215 657 131 614 q 410 700 299 700 q 558 674 493 700 q 668 597 624 647 q 772 674 711 647 q 907 700 833 700 q 1061 656 993 700 q 1167 532 1129 611 q 1206 350 1206 453 l 1206 294 m 901 533 q 824 502 853 533 q 789 411 794 471 l 997 411 q 969 502 994 471 q 901 533 944 533 m 414 174 q 542 346 542 174 q 414 518 542 518 q 285 346 285 518 q 414 174 285 174 z "},"p":{"ha":868,"x_min":72,"x_max":826,"o":"m 525 700 q 681 655 613 700 q 788 528 750 610 q 826 340 826 446 q 788 155 826 235 q 682 32 750 75 q 525 -11 614 -11 q 405 15 460 -11 q 319 86 350 42 l 319 -250 l 72 -250 l 72 683 l 315 683 l 315 596 q 401 672 344 644 q 525 700 457 700 m 450 174 q 548 217 514 174 q 582 340 582 260 q 547 470 582 425 q 449 515 513 515 q 350 471 385 515 q 315 343 315 426 q 350 217 315 261 q 450 174 385 174 z "},"þ":{"ha":868,"x_min":72,"x_max":826,"o":"m 525 700 q 681 654 613 700 q 788 527 750 608 q 826 340 826 446 q 788 156 826 236 q 682 33 750 76 q 525 -11 614 -11 q 405 15 460 -11 q 319 86 350 42 l 319 -250 l 72 -250 l 72 979 l 319 979 l 319 603 q 405 674 350 647 q 525 700 460 700 m 450 174 q 547 217 513 174 q 582 340 582 260 q 547 470 582 425 q 449 515 511 515 q 350 471 385 515 q 315 343 315 426 q 350 217 315 261 q 450 174 385 174 z "},"q":{"ha":868,"x_min":40,"x_max":796,"o":"m 796 683 l 796 -250 l 549 -250 l 549 86 q 463 15 518 42 q 343 -11 408 -11 q 185 32 254 -11 q 78 155 117 75 q 40 340 40 235 q 79 528 40 446 q 187 655 118 610 q 343 700 256 700 q 467 672 411 700 q 553 596 524 644 l 553 683 l 796 683 m 418 174 q 518 217 483 174 q 553 343 553 261 q 518 471 553 426 q 418 515 483 515 q 320 469 356 515 q 285 340 285 424 q 319 217 285 260 q 418 174 354 174 z "},"r":{"ha":582,"x_min":72,"x_max":599,"o":"m 599 499 l 464 485 q 351 442 383 476 q 319 343 319 407 l 319 0 l 72 0 l 72 683 l 307 683 l 307 565 q 385 660 331 628 q 517 697 439 693 l 585 703 l 599 499 z "},"ŕ":{"ha":582,"x_min":72,"x_max":629,"o":"m 599 499 l 464 485 q 351 442 383 476 q 319 343 319 407 l 319 0 l 72 0 l 72 683 l 307 683 l 307 565 q 385 660 331 628 q 517 697 439 693 l 585 703 l 599 499 m 260 772 l 396 1058 l 629 1058 l 410 772 l 260 772 z "},"ř":{"ha":582,"x_min":72,"x_max":599,"o":"m 599 499 l 464 485 q 351 442 383 476 q 319 343 319 407 l 319 0 l 72 0 l 72 683 l 307 683 l 307 565 q 385 660 331 628 q 517 697 439 693 l 585 703 l 599 499 m 593 1058 l 406 772 l 264 772 l 76 1058 l 261 1058 l 335 913 l 408 1058 l 593 1058 z "},"ŗ":{"ha":582,"x_min":72,"x_max":599,"o":"m 599 499 l 464 485 q 351 442 383 476 q 319 343 319 407 l 319 0 l 72 0 l 72 683 l 307 683 l 307 565 q 385 660 331 628 q 517 697 439 693 l 585 703 l 599 499 m 313 -87 l 313 -181 q 292 -299 313 -249 q 224 -390 272 -349 l 140 -333 q 188 -262 176 -300 l 78 -262 l 78 -87 l 313 -87 z "},"ȑ":{"ha":582,"x_min":72,"x_max":599,"o":"m 599 499 l 464 485 q 351 442 383 476 q 319 343 319 407 l 319 0 l 72 0 l 72 683 l 307 683 l 307 565 q 385 660 331 628 q 517 697 439 693 l 585 703 l 599 499 m 75 1058 l 244 1058 l 285 772 l 183 772 l 75 1058 m 276 1058 l 446 1058 l 486 772 l 385 772 l 276 1058 z "},"ṛ":{"ha":582,"x_min":72,"x_max":599,"o":"m 599 499 l 464 485 q 351 442 383 476 q 319 343 319 407 l 319 0 l 72 0 l 72 683 l 307 683 l 307 565 q 385 660 331 628 q 517 697 439 693 l 585 703 l 599 499 m 304 -79 l 304 -285 l 88 -285 l 88 -79 l 304 -79 z "},"ȓ":{"ha":582,"x_min":67,"x_max":603,"o":"m 599 499 l 464 485 q 351 442 383 476 q 319 343 319 407 l 319 0 l 72 0 l 72 683 l 307 683 l 307 565 q 385 660 331 628 q 517 697 439 693 l 585 703 l 599 499 m 335 1049 q 506 994 431 1049 q 603 838 581 939 l 497 793 q 335 899 435 899 q 172 793 235 899 l 67 839 q 164 994 89 939 q 335 1049 239 1049 z "},"ṟ":{"ha":582,"x_min":-25,"x_max":599,"o":"m 599 499 l 464 485 q 351 442 383 476 q 319 343 319 407 l 319 0 l 72 0 l 72 683 l 307 683 l 307 565 q 385 660 331 628 q 517 697 439 693 l 585 703 l 599 499 m -25 -114 l 417 -114 l 417 -251 l -25 -251 l -25 -114 z "},"s":{"ha":681,"x_min":25,"x_max":651,"o":"m 347 -11 q 165 10 249 -11 q 25 71 82 31 l 88 239 q 214 181 143 203 q 350 160 285 160 q 413 172 390 160 q 435 204 435 183 q 419 232 435 222 q 354 253 403 242 l 244 278 q 94 347 140 301 q 49 478 49 393 q 88 594 49 543 q 197 672 126 644 q 356 700 267 700 q 502 678 429 700 q 635 618 575 657 l 571 457 q 459 510 515 492 q 353 529 403 529 q 290 517 313 529 q 268 481 268 504 q 282 458 268 467 q 331 440 296 449 l 446 414 q 603 341 554 390 q 651 207 651 292 q 570 47 651 106 q 347 -11 489 -11 z "},"ś":{"ha":681,"x_min":25,"x_max":651,"o":"m 347 -11 q 165 10 249 -11 q 25 71 82 31 l 88 239 q 214 181 143 203 q 350 160 285 160 q 413 172 390 160 q 435 204 435 183 q 419 232 435 222 q 354 253 403 242 l 244 278 q 94 347 140 301 q 49 478 49 393 q 88 594 49 543 q 197 672 126 644 q 356 700 267 700 q 502 678 429 700 q 635 618 575 657 l 571 457 q 459 510 515 492 q 353 529 403 529 q 290 517 313 529 q 268 481 268 504 q 282 458 268 467 q 331 440 296 449 l 446 414 q 603 341 554 390 q 651 207 651 292 q 570 47 651 106 q 347 -11 489 -11 m 278 772 l 414 1058 l 647 1058 l 428 772 l 278 772 z "},"ṥ":{"ha":681,"x_min":25,"x_max":678,"o":"m 336 831 l 79 831 l 79 1054 l 338 1054 l 338 833 l 444 1058 l 678 1058 l 458 772 l 308 772 l 336 831 m 446 414 q 603 341 554 390 q 651 207 651 292 q 570 47 651 106 q 347 -11 489 -11 q 165 10 249 -11 q 25 71 82 31 l 88 239 q 214 181 143 203 q 350 160 285 160 q 413 172 390 160 q 435 204 435 183 q 419 232 435 222 q 354 253 403 242 l 244 278 q 94 347 140 301 q 49 478 49 393 q 88 594 49 543 q 197 672 126 644 q 356 700 267 700 q 502 678 429 700 q 635 618 575 657 l 571 457 q 459 510 515 492 q 353 529 403 529 q 290 517 313 529 q 268 481 268 504 q 282 458 268 467 q 331 440 296 449 l 446 414 z "},"š":{"ha":681,"x_min":25,"x_max":651,"o":"m 347 -11 q 165 10 249 -11 q 25 71 82 31 l 88 239 q 214 181 143 203 q 350 160 285 160 q 413 172 390 160 q 435 204 435 183 q 419 232 435 222 q 354 253 403 242 l 244 278 q 94 347 140 301 q 49 478 49 393 q 88 594 49 543 q 197 672 126 644 q 356 700 267 700 q 502 678 429 700 q 635 618 575 657 l 571 457 q 459 510 515 492 q 353 529 403 529 q 290 517 313 529 q 268 481 268 504 q 282 458 268 467 q 331 440 296 449 l 446 414 q 603 341 554 390 q 651 207 651 292 q 570 47 651 106 q 347 -11 489 -11 m 611 1058 l 424 772 l 282 772 l 94 1058 l 279 1058 l 353 913 l 426 1058 l 611 1058 z "},"ṧ":{"ha":681,"x_min":25,"x_max":651,"o":"m 347 -11 q 165 10 249 -11 q 25 71 82 31 l 88 239 q 214 181 143 203 q 350 160 285 160 q 413 172 390 160 q 435 204 435 183 q 419 232 435 222 q 354 253 403 242 l 244 278 q 94 347 140 301 q 49 478 49 393 q 88 594 49 543 q 197 672 126 644 q 356 700 267 700 q 502 678 429 700 q 635 618 575 657 l 571 457 q 459 510 515 492 q 353 529 403 529 q 290 517 313 529 q 268 481 268 504 q 282 458 268 467 q 331 440 296 449 l 446 414 q 603 341 554 390 q 651 207 651 292 q 570 47 651 106 q 347 -11 489 -11 m 611 1058 l 424 772 l 282 772 l 94 1058 l 279 1058 l 353 913 l 426 1058 l 611 1058 m 482 1288 l 482 1064 l 224 1064 l 224 1288 l 482 1288 z "},"ş":{"ha":681,"x_min":25,"x_max":651,"o":"m 651 207 q 582 56 651 113 q 389 -10 513 -1 l 381 -56 l 393 -56 q 481 -81 450 -56 q 513 -151 513 -107 q 462 -241 513 -207 q 315 -275 411 -275 q 249 -269 286 -275 q 183 -251 211 -262 l 197 -162 q 308 -182 264 -182 q 367 -151 367 -182 q 324 -128 367 -128 q 279 -135 307 -128 l 251 -104 l 264 -7 q 25 71 115 8 l 88 239 q 214 181 143 203 q 350 160 285 160 q 413 172 390 160 q 435 204 435 183 q 419 232 435 222 q 354 253 403 242 l 244 278 q 94 347 140 301 q 49 478 49 393 q 88 594 49 543 q 197 672 126 644 q 356 700 267 700 q 502 678 429 700 q 635 618 575 657 l 571 457 q 459 510 515 492 q 353 529 403 529 q 290 517 313 529 q 268 481 268 504 q 282 458 268 467 q 331 440 296 449 l 446 414 q 603 341 554 390 q 651 207 651 292 z "},"ŝ":{"ha":681,"x_min":25,"x_max":651,"o":"m 347 -11 q 165 10 249 -11 q 25 71 82 31 l 88 239 q 214 181 143 203 q 350 160 285 160 q 413 172 390 160 q 435 204 435 183 q 419 232 435 222 q 354 253 403 242 l 244 278 q 94 347 140 301 q 49 478 49 393 q 88 594 49 543 q 197 672 126 644 q 356 700 267 700 q 502 678 429 700 q 635 618 575 657 l 571 457 q 459 510 515 492 q 353 529 403 529 q 290 517 313 529 q 268 481 268 504 q 282 458 268 467 q 331 440 296 449 l 446 414 q 603 341 554 390 q 651 207 651 292 q 570 47 651 106 q 347 -11 489 -11 m 94 772 l 282 1058 l 424 1058 l 611 772 l 426 772 l 353 919 l 279 772 l 94 772 z "},"ș":{"ha":681,"x_min":25,"x_max":651,"o":"m 347 -11 q 165 10 249 -11 q 25 71 82 31 l 88 239 q 214 181 143 203 q 350 160 285 160 q 413 172 390 160 q 435 204 435 183 q 419 232 435 222 q 354 253 403 242 l 244 278 q 94 347 140 301 q 49 478 49 393 q 88 594 49 543 q 197 672 126 644 q 356 700 267 700 q 502 678 429 700 q 635 618 575 657 l 571 457 q 459 510 515 492 q 353 529 403 529 q 290 517 313 529 q 268 481 268 504 q 282 458 268 467 q 331 440 296 449 l 446 414 q 603 341 554 390 q 651 207 651 292 q 570 47 651 106 q 347 -11 489 -11 m 458 -87 l 458 -181 q 438 -299 458 -249 q 369 -390 418 -349 l 286 -333 q 333 -262 322 -300 l 224 -262 l 224 -87 l 458 -87 z "},"ṡ":{"ha":681,"x_min":25,"x_max":651,"o":"m 347 -11 q 165 10 249 -11 q 25 71 82 31 l 88 239 q 214 181 143 203 q 350 160 285 160 q 413 172 390 160 q 435 204 435 183 q 419 232 435 222 q 354 253 403 242 l 244 278 q 94 347 140 301 q 49 478 49 393 q 88 594 49 543 q 197 672 126 644 q 356 700 267 700 q 502 678 429 700 q 635 618 575 657 l 571 457 q 459 510 515 492 q 353 529 403 529 q 290 517 313 529 q 268 481 268 504 q 282 458 268 467 q 331 440 296 449 l 446 414 q 603 341 554 390 q 651 207 651 292 q 570 47 651 106 q 347 -11 489 -11 m 482 1025 l 482 801 l 224 801 l 224 1025 l 482 1025 z "},"ṣ":{"ha":681,"x_min":25,"x_max":651,"o":"m 347 -11 q 165 10 249 -11 q 25 71 82 31 l 88 239 q 214 181 143 203 q 350 160 285 160 q 413 172 390 160 q 435 204 435 183 q 419 232 435 222 q 354 253 403 242 l 244 278 q 94 347 140 301 q 49 478 49 393 q 88 594 49 543 q 197 672 126 644 q 356 700 267 700 q 502 678 429 700 q 635 618 575 657 l 571 457 q 459 510 515 492 q 353 529 403 529 q 290 517 313 529 q 268 481 268 504 q 282 458 268 467 q 331 440 296 449 l 446 414 q 603 341 554 390 q 651 207 651 292 q 570 47 651 106 q 347 -11 489 -11 m 450 -79 l 450 -285 l 233 -285 l 233 -79 l 450 -79 z "},"ṩ":{"ha":681,"x_min":25,"x_max":651,"o":"m 347 -11 q 165 10 249 -11 q 25 71 82 31 l 88 239 q 214 181 143 203 q 350 160 285 160 q 413 172 390 160 q 435 204 435 183 q 419 232 435 222 q 354 253 403 242 l 244 278 q 94 347 140 301 q 49 478 49 393 q 88 594 49 543 q 197 672 126 644 q 356 700 267 700 q 502 678 429 700 q 635 618 575 657 l 571 457 q 459 510 515 492 q 353 529 403 529 q 290 517 313 529 q 268 481 268 504 q 282 458 268 467 q 331 440 296 449 l 446 414 q 603 341 554 390 q 651 207 651 292 q 570 47 651 106 q 347 -11 489 -11 m 450 -79 l 450 -285 l 233 -285 l 233 -79 l 450 -79 m 482 1025 l 482 801 l 224 801 l 224 1025 l 482 1025 z "},"ß":{"ha":976,"x_min":72,"x_max":953,"o":"m 72 600 q 178 891 72 790 q 481 992 283 992 q 710 935 628 992 q 792 776 792 878 q 768 685 792 725 q 701 597 744 644 q 659 545 674 567 q 644 503 644 524 q 668 468 644 481 q 742 442 692 456 q 848 402 806 422 q 922 340 890 382 q 953 228 953 297 q 874 53 953 118 q 660 -11 794 -11 q 500 10 576 -11 q 368 71 424 32 l 431 239 q 549 186 488 206 q 660 167 610 167 q 731 207 731 167 q 706 244 731 231 q 628 274 681 258 q 523 314 564 294 q 452 373 482 333 q 422 476 422 413 q 445 569 422 529 q 510 661 468 610 q 549 713 536 692 q 563 753 563 733 q 468 818 563 818 q 358 772 397 818 q 319 639 319 725 l 319 0 l 72 0 l 72 600 z "},"t":{"ha":563,"x_min":4,"x_max":549,"o":"m 481 167 q 549 171 511 167 l 536 -6 q 450 -11 492 -11 q 208 59 283 -11 q 132 276 132 129 l 132 501 l 4 501 l 4 683 l 132 683 l 132 882 l 379 882 l 379 683 l 543 683 l 543 501 l 379 501 l 379 275 q 481 167 379 167 z "},"ŧ":{"ha":576,"x_min":11,"x_max":556,"o":"m 488 167 q 556 171 518 167 l 543 -6 q 457 -11 499 -11 q 215 59 290 -11 q 139 276 139 129 l 139 301 l 39 301 l 39 469 l 139 469 l 139 501 l 11 501 l 11 683 l 139 683 l 139 882 l 386 882 l 386 683 l 550 683 l 550 501 l 386 501 l 386 469 l 522 469 l 522 301 l 386 301 l 386 275 q 488 167 386 167 z "},"ť":{"ha":563,"x_min":4,"x_max":617,"o":"m 617 979 l 571 736 l 429 736 l 429 979 l 617 979 m 379 275 q 481 167 379 167 q 549 171 511 167 l 536 -6 q 450 -11 492 -11 q 208 59 283 -11 q 132 276 132 129 l 132 501 l 4 501 l 4 683 l 132 683 l 132 882 l 379 882 l 379 683 l 543 683 l 543 501 l 379 501 l 379 275 z "},"ţ":{"ha":563,"x_min":4,"x_max":549,"o":"m 450 -11 q 399 -10 415 -11 l 390 -56 l 403 -56 q 491 -81 460 -56 q 522 -151 522 -107 q 472 -241 522 -207 q 325 -275 421 -275 q 258 -269 296 -275 q 193 -251 221 -262 l 207 -162 q 318 -182 274 -182 q 376 -151 376 -182 q 333 -128 376 -128 q 289 -135 317 -128 l 261 -104 l 276 17 q 167 111 203 47 q 132 276 132 175 l 132 501 l 4 501 l 4 683 l 132 683 l 132 882 l 379 882 l 379 683 l 543 683 l 543 501 l 379 501 l 379 275 q 481 167 379 167 q 549 171 511 167 l 536 -6 q 450 -11 492 -11 z "},"ț":{"ha":563,"x_min":4,"x_max":549,"o":"m 481 167 q 549 171 511 167 l 536 -6 q 450 -11 492 -11 q 208 59 283 -11 q 132 276 132 129 l 132 501 l 4 501 l 4 683 l 132 683 l 132 882 l 379 882 l 379 683 l 543 683 l 543 501 l 379 501 l 379 275 q 481 167 379 167 m 468 -87 l 468 -181 q 448 -299 468 -249 q 379 -390 428 -349 l 296 -333 q 343 -262 332 -300 l 233 -262 l 233 -87 l 468 -87 z "},"ẗ":{"ha":563,"x_min":4,"x_max":549,"o":"m 481 167 q 549 171 511 167 l 536 -6 q 450 -11 492 -11 q 208 59 283 -11 q 132 276 132 129 l 132 501 l 4 501 l 4 683 l 132 683 l 132 882 l 379 882 l 379 683 l 543 683 l 543 501 l 379 501 l 379 275 q 481 167 379 167 m 228 1179 l 228 971 l 8 971 l 8 1179 l 228 1179 m 503 1179 l 503 971 l 283 971 l 283 1179 l 503 1179 z "},"ṭ":{"ha":563,"x_min":4,"x_max":549,"o":"m 481 167 q 549 171 511 167 l 536 -6 q 450 -11 492 -11 q 208 59 283 -11 q 132 276 132 129 l 132 501 l 4 501 l 4 683 l 132 683 l 132 882 l 379 882 l 379 683 l 543 683 l 543 501 l 379 501 l 379 275 q 481 167 379 167 m 460 -79 l 460 -285 l 243 -285 l 243 -79 l 460 -79 z "},"ṯ":{"ha":563,"x_min":4,"x_max":572,"o":"m 481 167 q 549 171 511 167 l 536 -6 q 450 -11 492 -11 q 208 59 283 -11 q 132 276 132 129 l 132 501 l 4 501 l 4 683 l 132 683 l 132 882 l 379 882 l 379 683 l 543 683 l 543 501 l 379 501 l 379 275 q 481 167 379 167 m 131 -114 l 572 -114 l 572 -251 l 131 -251 l 131 -114 z "},"u":{"ha":833,"x_min":67,"x_max":761,"o":"m 761 683 l 761 0 l 521 0 l 521 92 q 440 15 489 42 q 326 -11 390 -11 q 131 62 194 -11 q 67 283 67 135 l 67 683 l 314 683 l 314 278 q 400 178 314 178 q 482 214 450 178 q 514 308 514 250 l 514 683 l 761 683 z "},"ú":{"ha":833,"x_min":67,"x_max":761,"o":"m 761 683 l 761 0 l 521 0 l 521 92 q 440 15 489 42 q 326 -11 390 -11 q 131 62 194 -11 q 67 283 67 135 l 67 683 l 314 683 l 314 278 q 400 178 314 178 q 482 214 450 178 q 514 308 514 250 l 514 683 l 761 683 m 340 772 l 476 1058 l 710 1058 l 490 772 l 340 772 z "},"ŭ":{"ha":833,"x_min":67,"x_max":761,"o":"m 761 683 l 761 0 l 521 0 l 521 92 q 440 15 489 42 q 326 -11 390 -11 q 131 62 194 -11 q 67 283 67 135 l 67 683 l 314 683 l 314 278 q 400 178 314 178 q 482 214 450 178 q 514 308 514 250 l 514 683 l 761 683 m 415 800 q 244 855 319 800 q 147 1011 169 910 l 253 1056 q 415 950 314 950 q 578 1056 517 950 l 683 1010 q 586 855 661 910 q 415 800 511 800 z "},"û":{"ha":833,"x_min":67,"x_max":761,"o":"m 761 683 l 761 0 l 521 0 l 521 92 q 440 15 489 42 q 326 -11 390 -11 q 131 62 194 -11 q 67 283 67 135 l 67 683 l 314 683 l 314 278 q 400 178 314 178 q 482 214 450 178 q 514 308 514 250 l 514 683 l 761 683 m 157 772 l 344 1058 l 486 1058 l 674 772 l 489 772 l 415 919 l 342 772 l 157 772 z "},"ȕ":{"ha":833,"x_min":67,"x_max":761,"o":"m 761 683 l 761 0 l 521 0 l 521 92 q 440 15 489 42 q 326 -11 390 -11 q 131 62 194 -11 q 67 283 67 135 l 67 683 l 314 683 l 314 278 q 400 178 314 178 q 482 214 450 178 q 514 308 514 250 l 514 683 l 761 683 m 156 1058 l 325 1058 l 365 772 l 264 772 l 156 1058 m 357 1058 l 526 1058 l 567 772 l 465 772 l 357 1058 z "},"ü":{"ha":833,"x_min":67,"x_max":761,"o":"m 761 683 l 761 0 l 521 0 l 521 92 q 440 15 489 42 q 326 -11 390 -11 q 131 62 194 -11 q 67 283 67 135 l 67 683 l 314 683 l 314 278 q 400 178 314 178 q 482 214 450 178 q 514 308 514 250 l 514 683 l 761 683 m 388 1017 l 388 810 l 168 810 l 168 1017 l 388 1017 m 663 1017 l 663 810 l 443 810 l 443 1017 l 663 1017 z "},"ụ":{"ha":833,"x_min":67,"x_max":761,"o":"m 761 683 l 761 0 l 521 0 l 521 92 q 440 15 489 42 q 326 -11 390 -11 q 131 62 194 -11 q 67 283 67 135 l 67 683 l 314 683 l 314 278 q 400 178 314 178 q 482 214 450 178 q 514 308 514 250 l 514 683 l 761 683 m 524 -79 l 524 -285 l 307 -285 l 307 -79 l 524 -79 z "},"ù":{"ha":833,"x_min":67,"x_max":761,"o":"m 761 683 l 761 0 l 521 0 l 521 92 q 440 15 489 42 q 326 -11 390 -11 q 131 62 194 -11 q 67 283 67 135 l 67 683 l 314 683 l 314 278 q 400 178 314 178 q 482 214 450 178 q 514 308 514 250 l 514 683 l 761 683 m 121 1058 l 354 1058 l 490 772 l 340 772 l 121 1058 z "},"ủ":{"ha":833,"x_min":67,"x_max":761,"o":"m 761 683 l 761 0 l 521 0 l 521 92 q 440 15 489 42 q 326 -11 390 -11 q 131 62 194 -11 q 67 283 67 135 l 67 683 l 314 683 l 314 278 q 400 178 314 178 q 482 214 450 178 q 514 308 514 250 l 514 683 l 761 683 m 475 772 l 358 772 l 358 806 q 372 854 358 835 q 410 892 386 874 q 431 911 424 903 q 438 929 438 919 q 394 961 438 961 q 331 949 364 961 l 299 1035 q 421 1061 358 1061 q 546 1030 501 1061 q 590 954 590 999 q 572 901 590 921 q 521 857 554 881 q 486 829 497 840 q 475 803 475 818 l 475 772 z "},"ư":{"ha":872,"x_min":67,"x_max":915,"o":"m 915 856 l 915 796 q 873 660 915 718 q 761 583 831 603 l 761 0 l 521 0 l 521 92 q 440 15 489 42 q 326 -11 390 -11 q 131 62 194 -11 q 67 283 67 135 l 67 683 l 314 683 l 314 278 q 400 178 314 178 q 482 214 450 178 q 514 308 514 250 l 514 683 l 583 683 q 676 715 649 683 q 704 825 704 747 l 704 856 l 915 856 z "},"ứ":{"ha":872,"x_min":67,"x_max":915,"o":"m 915 856 l 915 796 q 873 660 915 718 q 761 583 831 603 l 761 0 l 521 0 l 521 92 q 440 15 489 42 q 326 -11 390 -11 q 131 62 194 -11 q 67 283 67 135 l 67 683 l 314 683 l 314 278 q 400 178 314 178 q 482 214 450 178 q 514 308 514 250 l 514 683 l 583 683 q 676 715 649 683 q 704 825 704 747 l 704 856 l 915 856 m 340 772 l 476 1058 l 710 1058 l 490 772 l 340 772 z "},"ự":{"ha":872,"x_min":67,"x_max":915,"o":"m 915 856 l 915 796 q 873 660 915 718 q 761 583 831 603 l 761 0 l 521 0 l 521 92 q 440 15 489 42 q 326 -11 390 -11 q 131 62 194 -11 q 67 283 67 135 l 67 683 l 314 683 l 314 278 q 400 178 314 178 q 482 214 450 178 q 514 308 514 250 l 514 683 l 583 683 q 676 715 649 683 q 704 825 704 747 l 704 856 l 915 856 m 524 -79 l 524 -285 l 307 -285 l 307 -79 l 524 -79 z "},"ừ":{"ha":872,"x_min":67,"x_max":915,"o":"m 915 856 l 915 796 q 873 660 915 718 q 761 583 831 603 l 761 0 l 521 0 l 521 92 q 440 15 489 42 q 326 -11 390 -11 q 131 62 194 -11 q 67 283 67 135 l 67 683 l 314 683 l 314 278 q 400 178 314 178 q 482 214 450 178 q 514 308 514 250 l 514 683 l 583 683 q 676 715 649 683 q 704 825 704 747 l 704 856 l 915 856 m 121 1058 l 354 1058 l 490 772 l 340 772 l 121 1058 z "},"ử":{"ha":872,"x_min":67,"x_max":915,"o":"m 915 856 l 915 796 q 873 660 915 718 q 761 583 831 603 l 761 0 l 521 0 l 521 92 q 440 15 489 42 q 326 -11 390 -11 q 131 62 194 -11 q 67 283 67 135 l 67 683 l 314 683 l 314 278 q 400 178 314 178 q 482 214 450 178 q 514 308 514 250 l 514 683 l 583 683 q 676 715 649 683 q 704 825 704 747 l 704 856 l 915 856 m 475 772 l 358 772 l 358 806 q 372 854 358 835 q 410 892 386 874 q 431 911 424 903 q 438 929 438 919 q 394 961 438 961 q 331 949 364 961 l 299 1035 q 421 1061 358 1061 q 546 1030 501 1061 q 590 954 590 999 q 572 901 590 921 q 521 857 554 881 q 486 829 497 840 q 475 803 475 818 l 475 772 z "},"ữ":{"ha":872,"x_min":67,"x_max":915,"o":"m 915 856 l 915 796 q 873 660 915 718 q 761 583 831 603 l 761 0 l 521 0 l 521 92 q 440 15 489 42 q 326 -11 390 -11 q 131 62 194 -11 q 67 283 67 135 l 67 683 l 314 683 l 314 278 q 400 178 314 178 q 482 214 450 178 q 514 308 514 250 l 514 683 l 583 683 q 676 715 649 683 q 704 825 704 747 l 704 856 l 915 856 m 167 810 q 213 974 167 919 q 328 1028 258 1028 q 374 1019 351 1028 q 429 990 396 1010 q 474 966 457 974 q 507 958 490 958 q 545 975 531 958 q 564 1024 560 992 l 664 1024 q 618 860 664 914 q 503 806 572 806 q 457 815 479 806 q 401 843 435 824 q 357 867 374 860 q 324 875 340 875 q 285 858 300 875 q 267 810 271 842 l 167 810 z "},"ű":{"ha":833,"x_min":67,"x_max":761,"o":"m 761 683 l 761 0 l 521 0 l 521 92 q 440 15 489 42 q 326 -11 390 -11 q 131 62 194 -11 q 67 283 67 135 l 67 683 l 314 683 l 314 278 q 400 178 314 178 q 482 214 450 178 q 514 308 514 250 l 514 683 l 761 683 m 264 772 l 304 1058 l 474 1058 l 365 772 l 264 772 m 465 772 l 506 1058 l 675 1058 l 567 772 l 465 772 z "},"ȗ":{"ha":833,"x_min":67,"x_max":761,"o":"m 761 683 l 761 0 l 521 0 l 521 92 q 440 15 489 42 q 326 -11 390 -11 q 131 62 194 -11 q 67 283 67 135 l 67 683 l 314 683 l 314 278 q 400 178 314 178 q 482 214 450 178 q 514 308 514 250 l 514 683 l 761 683 m 415 1049 q 586 994 511 1049 q 683 838 661 939 l 578 793 q 415 899 515 899 q 253 793 315 899 l 147 839 q 244 994 169 939 q 415 1049 319 1049 z "},"ū":{"ha":833,"x_min":67,"x_max":761,"o":"m 761 683 l 761 0 l 521 0 l 521 92 q 440 15 489 42 q 326 -11 390 -11 q 131 62 194 -11 q 67 283 67 135 l 67 683 l 314 683 l 314 278 q 400 178 314 178 q 482 214 450 178 q 514 308 514 250 l 514 683 l 761 683 m 194 986 l 636 986 l 636 839 l 194 839 l 194 986 z "},"ṻ":{"ha":833,"x_min":67,"x_max":761,"o":"m 761 683 l 761 0 l 521 0 l 521 92 q 440 15 489 42 q 326 -11 390 -11 q 131 62 194 -11 q 67 283 67 135 l 67 683 l 314 683 l 314 278 q 400 178 314 178 q 482 214 450 178 q 514 308 514 250 l 514 683 l 761 683 m 194 986 l 636 986 l 636 839 l 194 839 l 194 986 m 388 1279 l 388 1072 l 168 1072 l 168 1279 l 388 1279 m 663 1279 l 663 1072 l 443 1072 l 443 1279 l 663 1279 z "},"ų":{"ha":833,"x_min":67,"x_max":810,"o":"m 810 -249 q 664 -275 744 -275 q 532 -231 583 -275 q 481 -117 481 -186 q 529 0 481 -51 l 521 0 l 521 92 q 440 15 489 42 q 326 -11 390 -11 q 131 62 194 -11 q 67 283 67 135 l 67 683 l 314 683 l 314 278 q 400 178 314 178 q 482 214 450 178 q 514 308 514 250 l 514 683 l 761 683 l 761 0 l 746 0 q 665 -23 696 0 q 633 -83 633 -46 q 713 -153 633 -153 q 786 -139 749 -153 l 810 -249 z "},"ů":{"ha":833,"x_min":67,"x_max":761,"o":"m 761 683 l 761 0 l 521 0 l 521 92 q 440 15 489 42 q 326 -11 390 -11 q 131 62 194 -11 q 67 283 67 135 l 67 683 l 314 683 l 314 278 q 400 178 314 178 q 482 214 450 178 q 514 308 514 250 l 514 683 l 761 683 m 415 763 q 304 807 350 763 q 258 917 258 851 q 304 1025 258 981 q 415 1069 350 1069 q 526 1025 481 1069 q 572 917 572 981 q 526 807 572 851 q 415 763 481 763 m 415 856 q 456 874 440 856 q 472 917 472 892 q 456 959 472 942 q 415 976 440 976 q 374 959 390 976 q 358 917 358 942 q 374 874 358 892 q 415 856 390 856 z "},"ũ":{"ha":833,"x_min":67,"x_max":761,"o":"m 761 683 l 761 0 l 521 0 l 521 92 q 440 15 489 42 q 326 -11 390 -11 q 131 62 194 -11 q 67 283 67 135 l 67 683 l 314 683 l 314 278 q 400 178 314 178 q 482 214 450 178 q 514 308 514 250 l 514 683 l 761 683 m 167 810 q 213 974 167 919 q 328 1028 258 1028 q 374 1019 351 1028 q 429 990 396 1010 q 474 966 457 974 q 507 958 490 958 q 545 975 531 958 q 564 1024 560 992 l 664 1024 q 618 860 664 914 q 503 806 572 806 q 457 815 479 806 q 401 843 435 824 q 357 867 374 860 q 324 875 340 875 q 285 858 300 875 q 267 810 271 842 l 167 810 z "},"ṹ":{"ha":833,"x_min":67,"x_max":761,"o":"m 761 683 l 761 0 l 521 0 l 521 92 q 440 15 489 42 q 326 -11 390 -11 q 131 62 194 -11 q 67 283 67 135 l 67 683 l 314 683 l 314 278 q 400 178 314 178 q 482 214 450 178 q 514 308 514 250 l 514 683 l 761 683 m 167 810 q 213 974 167 919 q 328 1028 258 1028 q 374 1019 351 1028 q 429 990 396 1010 q 474 966 457 974 q 507 958 490 958 q 545 975 531 958 q 564 1024 560 992 l 664 1024 q 618 860 664 914 q 503 806 572 806 q 457 815 479 806 q 401 843 435 824 q 357 867 374 860 q 324 875 340 875 q 285 858 300 875 q 267 810 271 842 l 167 810 m 340 1035 l 476 1321 l 710 1321 l 490 1035 l 340 1035 z "},"v":{"ha":751,"x_min":-28,"x_max":781,"o":"m 781 682 l 476 0 l 272 0 l -28 682 l 231 682 l 381 297 l 539 682 l 781 682 z "},"w":{"ha":1211,"x_min":-17,"x_max":1226,"o":"m 1226 683 l 940 0 l 738 0 l 601 335 l 474 0 l 269 0 l -17 683 l 233 683 l 385 296 l 532 683 l 690 683 l 839 289 l 988 683 l 1226 683 z "},"ẃ":{"ha":1211,"x_min":-17,"x_max":1226,"o":"m 1226 683 l 940 0 l 738 0 l 601 335 l 474 0 l 269 0 l -17 683 l 233 683 l 385 296 l 532 683 l 690 683 l 839 289 l 988 683 l 1226 683 m 531 772 l 667 1058 l 900 1058 l 681 772 l 531 772 z "},"ŵ":{"ha":1211,"x_min":-17,"x_max":1226,"o":"m 1226 683 l 940 0 l 738 0 l 601 335 l 474 0 l 269 0 l -17 683 l 233 683 l 385 296 l 532 683 l 690 683 l 839 289 l 988 683 l 1226 683 m 347 772 l 535 1058 l 676 1058 l 864 772 l 679 772 l 606 919 l 532 772 l 347 772 z "},"ẅ":{"ha":1211,"x_min":-17,"x_max":1226,"o":"m 1226 683 l 940 0 l 738 0 l 601 335 l 474 0 l 269 0 l -17 683 l 233 683 l 385 296 l 532 683 l 690 683 l 839 289 l 988 683 l 1226 683 m 578 1017 l 578 810 l 358 810 l 358 1017 l 578 1017 m 853 1017 l 853 810 l 633 810 l 633 1017 l 853 1017 z "},"ẁ":{"ha":1211,"x_min":-17,"x_max":1226,"o":"m 1226 683 l 940 0 l 738 0 l 601 335 l 474 0 l 269 0 l -17 683 l 233 683 l 385 296 l 532 683 l 690 683 l 839 289 l 988 683 l 1226 683 m 311 1058 l 544 1058 l 681 772 l 531 772 l 311 1058 z "},"x":{"ha":763,"x_min":-50,"x_max":813,"o":"m 813 0 l 524 0 l 381 181 l 238 0 l -50 0 l 240 353 l -33 683 l 257 683 l 381 522 l 506 683 l 796 683 l 522 353 l 813 0 z "},"y":{"ha":751,"x_min":-28,"x_max":781,"o":"m 781 682 l 364 -250 l 114 -250 l 251 47 l -28 682 l 231 682 l 381 297 l 539 682 l 781 682 z "},"ý":{"ha":751,"x_min":-28,"x_max":781,"o":"m 781 682 l 364 -250 l 114 -250 l 251 47 l -28 682 l 231 682 l 381 297 l 539 682 l 781 682 m 301 772 l 438 1058 l 671 1058 l 451 772 l 301 772 z "},"ŷ":{"ha":751,"x_min":-28,"x_max":781,"o":"m 781 682 l 364 -250 l 114 -250 l 251 47 l -28 682 l 231 682 l 381 297 l 539 682 l 781 682 m 118 772 l 306 1058 l 447 1058 l 635 772 l 450 772 l 376 919 l 303 772 l 118 772 z "},"ÿ":{"ha":751,"x_min":-28,"x_max":781,"o":"m 781 682 l 364 -250 l 114 -250 l 251 47 l -28 682 l 231 682 l 381 297 l 539 682 l 781 682 m 349 1017 l 349 810 l 129 810 l 129 1017 l 349 1017 m 624 1017 l 624 810 l 404 810 l 404 1017 l 624 1017 z "},"ẏ":{"ha":751,"x_min":-28,"x_max":781,"o":"m 781 682 l 364 -250 l 114 -250 l 251 47 l -28 682 l 231 682 l 381 297 l 539 682 l 781 682 m 506 1025 l 506 801 l 247 801 l 247 1025 l 506 1025 z "},"ỵ":{"ha":751,"x_min":-28,"x_max":781,"o":"m 781 682 l 364 -250 l 114 -250 l 251 47 l -28 682 l 231 682 l 381 297 l 539 682 l 781 682 m 713 -79 l 713 -285 l 496 -285 l 496 -79 l 713 -79 z "},"ỳ":{"ha":751,"x_min":-28,"x_max":781,"o":"m 781 682 l 364 -250 l 114 -250 l 251 47 l -28 682 l 231 682 l 381 297 l 539 682 l 781 682 m 82 1058 l 315 1058 l 451 772 l 301 772 l 82 1058 z "},"ỷ":{"ha":751,"x_min":-28,"x_max":781,"o":"m 781 682 l 364 -250 l 114 -250 l 251 47 l -28 682 l 231 682 l 381 297 l 539 682 l 781 682 m 436 772 l 319 772 l 319 806 q 333 854 319 835 q 371 892 347 874 q 392 911 385 903 q 399 929 399 919 q 356 961 399 961 q 292 949 325 961 l 260 1035 q 382 1061 319 1061 q 507 1030 463 1061 q 551 954 551 999 q 533 901 551 921 q 482 857 515 881 q 447 829 458 840 q 436 803 436 818 l 436 772 z "},"ȳ":{"ha":751,"x_min":-28,"x_max":781,"o":"m 781 682 l 364 -250 l 114 -250 l 251 47 l -28 682 l 231 682 l 381 297 l 539 682 l 781 682 m 156 986 l 597 986 l 597 839 l 156 839 l 156 986 z "},"ỹ":{"ha":751,"x_min":-28,"x_max":781,"o":"m 781 682 l 364 -250 l 114 -250 l 251 47 l -28 682 l 231 682 l 381 297 l 539 682 l 781 682 m 128 810 q 174 974 128 919 q 289 1028 219 1028 q 335 1019 313 1028 q 390 990 357 1010 q 435 966 418 974 q 468 958 451 958 q 506 975 492 958 q 525 1024 521 992 l 625 1024 q 579 860 625 914 q 464 806 533 806 q 418 815 440 806 q 363 843 396 824 q 318 867 335 860 q 285 875 301 875 q 247 858 261 875 q 228 810 232 842 l 128 810 z "},"z":{"ha":721,"x_min":63,"x_max":678,"o":"m 678 182 l 678 0 l 63 0 l 63 174 l 369 501 l 63 501 l 63 683 l 664 683 l 664 521 l 349 182 l 678 182 z "},"ź":{"ha":721,"x_min":63,"x_max":678,"o":"m 678 182 l 678 0 l 63 0 l 63 174 l 369 501 l 63 501 l 63 683 l 664 683 l 664 521 l 349 182 l 678 182 m 299 772 l 435 1058 l 668 1058 l 449 772 l 299 772 z "},"ž":{"ha":721,"x_min":63,"x_max":678,"o":"m 678 182 l 678 0 l 63 0 l 63 174 l 369 501 l 63 501 l 63 683 l 664 683 l 664 521 l 349 182 l 678 182 m 632 1058 l 444 772 l 303 772 l 115 1058 l 300 1058 l 374 913 l 447 1058 l 632 1058 z "},"ż":{"ha":721,"x_min":63,"x_max":678,"o":"m 678 182 l 678 0 l 63 0 l 63 174 l 369 501 l 63 501 l 63 683 l 664 683 l 664 521 l 349 182 l 678 182 m 503 1025 l 503 801 l 244 801 l 244 1025 l 503 1025 z "},"ẓ":{"ha":721,"x_min":63,"x_max":678,"o":"m 678 182 l 678 0 l 63 0 l 63 174 l 369 501 l 63 501 l 63 683 l 664 683 l 664 521 l 349 182 l 678 182 m 465 -79 l 465 -285 l 249 -285 l 249 -79 l 465 -79 z "}}}
